<?xml version="1.0" encoding="utf-8"?>
<!-- Generator: Adobe Illustrator 23.0.3, SVG Export Plug-In . SVG Version: 6.00 Build 0)  -->
<svg version="1.1" id="Layer_1" xmlns="http://www.w3.org/2000/svg" xmlns:xlink="http://www.w3.org/1999/xlink" x="0px" y="0px"
	 viewBox="0 0 930 625.8" style="enable-background:new 0 0 930 625.8;" xml:space="preserve">
<style type="text/css">
	.st0{fill:#7C474F;}
	.st1{fill:#D0E0FF;}
	.st2{fill:#F0EFEC;}
	.st3{fill:#603C40;}
	.st4{fill:#FFFFFF;}
	.st5{fill:#9F3843;}
	.st6{fill:#CA515B;}
	.st7{fill:#752E3A;}
	.st8{fill:none;}
	.st9{fill:#A04E58;}
	.st10{fill:#51262F;}
	.st11{fill:#B4B3B1;}
</style>
<title>clark</title>
<path class="st0" d="M189.7,403.7L18,473.7l-0.4,112.5c-0.2,2,1.2,3.8,3,4.1c0.1,0,0.3,0,0.5,0l-2.8,0.4l-2.9-8.3l66.5-3.1
	l-5.4,14.9l25.4-1.1l9.2-0.3l77.8-3.6l4.3-65.1L189.7,403.7z"/>
<path class="st1" d="M81.2,500.1l0.5,9.2c0.1,1.6,3.4,2.7,7.3,2.6l10.4-0.2c4-0.1,7.1-1.4,7-2.9l-0.6-10.7c-0.1-2-5.2-3.2-9.9-2.4
	l-10.3,1.8C83,497.9,81.1,499,81.2,500.1z"/>
<path class="st1" d="M129.3,496l0.7,14.5c0.1,2.6,4.2,4.6,8.9,4.5l15.9-0.3c4.8-0.1,8.6-2.3,8.5-4.9l-0.8-17.3
	c-0.1-3.2-6.1-5.3-11.6-4.2l-15.7,3.2C131.6,492.1,129.2,493.9,129.3,496z"/>
<path class="st1" d="M134.9,555.4l-0.1,13.1c0,2.3,3.4,4,7.5,3.9l15-0.3c4.2-0.1,7.5-2,7.6-4.2l0.2-14.6c0-2.5-4.2-4.4-8.9-3.8
	l-15.1,1.8C137.6,551.7,135,553.4,134.9,555.4z"/>
<path class="st1" d="M135.9,525.8l-0.1,11.3c0,2.6,4.1,4.6,9.2,4.5l12.4-0.2c5.1-0.1,9.3-2.2,9.3-4.8l0.1-12.9
	c0.1-3-5.6-5.1-11.4-4.3l-12.4,1.8C138.8,521.8,135.9,523.7,135.9,525.8z"/>
<path class="st1" d="M82.7,558.3l0.5,9.2c0.1,1.6,3.4,2.7,7.3,2.6l10.4-0.2c4-0.1,7.1-1.5,7-2.9l-0.6-10.7c-0.1-2-5.2-3.2-9.9-2.4
	l-10.3,1.8C84.3,556.1,82.6,557.2,82.7,558.3z"/>
<path class="st1" d="M82.4,528.9l0.5,9.2c0.1,1.6,3.4,2.7,7.3,2.6l10.4-0.2c4-0.1,7.1-1.4,7-2.9l-0.6-10.7c-0.1-2-5.2-3.2-9.9-2.4
	l-10.3,1.8C84.2,526.7,82.4,527.7,82.4,528.9z"/>
<path class="st2" d="M16.3,474.4c-0.4,0.2-0.9,0-1.1-0.4c-0.1-0.4-0.1-0.9,0.3-1.1L67.6,428c3.3-2.9,6.9-5.1,10.8-6.8l123.6-53
	l-13.5,12.2l-8.1,7.3l9.5-0.4l0.1,26L16.3,474.4z"/>
<path class="st3" d="M92.9,538.6l-2,53.7c-0.1,2.1,1.3,4,3.2,4.2c0.1,0,0.2,0,0.3,0l4.5-0.2c1.8-0.2,3.2-1.8,3.2-3.8l1.1-54.3
	L92.9,538.6z"/>
<path class="st4" d="M219.2,369.5l468.9-206.8l8.6-68.3L306.6,277.1c-10.5,4.9-20.3,11.4-29.1,19.4l-98.4,88.9
	c-0.4,0.3-0.4,1-0.1,1.4c0.2,0.3,0.7,0.5,1,0.3L219.2,369.5z"/>
<polygon class="st1" points="198.2,545.2 196.1,524.5 190.8,520.5 189.7,383.1 225,366.7 230.3,543.7 "/>
<polygon class="st5" points="230.1,593.4 225,366.7 688.2,162.7 714.1,600 "/>
<polygon class="st5" points="198.2,545.2 195.9,593 230.1,593.4 230.3,543.7 "/>
<polygon class="st4" points="93.2,536.7 93.1,540.2 103.2,539.7 103.1,535.7 "/>
<path class="st6" d="M18.4,592.2l56.4,3.7l-0.5-14.7l-58.8,2.7l0.2,5.3C15.8,590.8,16.9,592.1,18.4,592.2z"/>
<path class="st3" d="M74.8,595.9l4.1-0.2c1.7-0.1,3-1.6,3.1-3.5l0.1-11.3l-7.8,0.3L74.8,595.9z"/>
<path class="st6" d="M139,585.5l0.1,4.6c0.1,2.5,2,4.5,4.2,4.5l55.1,0.2c1.2,0,2.1-1.1,2.1-2.4c0-0.2,0-0.4-0.1-0.7l-1.3-5.5
	L139,585.5z"/>
<path class="st3" d="M137.1,534.8l-1.2,56.3c-0.1,1.9,1.3,3.4,3,3.5c0.1,0,0.1,0,0.2,0h0.3l-0.5-13.1l7.3,0.2l-1.8-47.3L137.1,534.8
	z"/>
<polyline class="st3" points="169.4,538.2 161,538.6 159.8,581.8 167.8,582.1 "/>
<polyline class="st6" points="186.5,535.9 187.3,590.5 199.5,591.9 198.5,535.3 "/>
<path class="st7" d="M198.7,524.7l0.1,4c0.1,1.7-1.1,3.1-2.6,3.2c-0.1,0-0.1,0-0.1,0l-45.4-0.7l-3.1-3.5c-0.1-1.8,1.4-3.3-0.2-3.1
	l-53.9,7.8c-1.5,0.2-2.9-1-3.1-2.7c0-0.1,0-0.2,0-0.2l0,0c-0.1-1.6,1-2.9,2.4-3.2l43.3-6.3c0.1,0,0.3,0,5.3-1.5l53.2,1.6
	C196.8,520.3,198.5,522.2,198.7,524.7z"/>
<polyline class="st4" points="137,532.5 137.1,534.8 144.4,534.5 144.2,532.2 "/>
<polyline class="st7" points="198.8,528.7 148.1,530.5 92.8,536.2 92.9,538.7 161,538.6 198.7,535.3 "/>
<path class="st5" d="M103.1,535.7"/>
<polygon class="st6" points="142.8,533 142.5,581.7 152.5,581.2 148.2,532.8 "/>
<line class="st8" x1="148.3" y1="536" x2="142.9" y2="536.3"/>
<polygon class="st4" points="142.7,531.5 148.1,531.2 148.2,532.7 142.8,533 "/>
<path class="st6" d="M111.1,537.8l0.2,54.8c0,1.7,1.2,3,2.8,3h0.1l1.5-0.1l1.9-58.1L111.1,537.8z"/>
<path class="st3" d="M117.6,537.5l-1.9,58.1l4.2-0.2c2-0.1,3.7-2,3.8-4.2l1.8-54.1L117.6,537.5z"/>
<polygon class="st4" points="111.1,537.8 125.5,537.2 125.3,533.4 110.9,534.9 "/>
<path class="st4" d="M138.9,582.1l0.1,2.6l60.3,1.6l0,0c0.3-1.1-0.3-2.2-1.2-2.5c-0.1,0-0.1,0-0.1-0.1l-57.5-3.8
	c-0.9,0.1-1.6,0.9-1.5,2C138.9,582,138.9,582.1,138.9,582.1z"/>
<path class="st4" d="M15.4,581.6l64.2-4.6c1.2-0.1,2.3,0.9,2.3,2.3v0.1l0.1,1.4l-66.5,3.1"/>
<polygon class="st9" points="150.4,524.2 145.7,531.4 90.3,537 93.4,531.3 "/>
<polygon class="st10" points="150.4,524.2 144.9,531.4 151.3,530.3 "/>
<polygon class="st6" points="247.7,356.5 253.3,593.7 276.8,594.1 270.3,346.4 "/>
<polygon class="st3" points="270.3,346.4 276.8,594.1 290.5,594.3 276.9,343.4 "/>
<polygon class="st6" points="453.7,263.9 472.6,596.6 517.8,597.4 481.8,251.2 "/>
<polygon class="st3" points="481.8,251.2 517.8,597.4 529.1,597.6 500.2,242.9 "/>
<polygon class="st4" points="190.1,417.5 225.4,406.8 225.6,398.1 190.6,410.6 "/>
<polygon class="st4" points="190,458.6 190.2,463.5 226.6,454 226.9,446.6 "/>
<polygon class="st4" points="190.5,501.5 190.7,505.9 227.9,501.2 227.6,493 "/>
<path class="st1" d="M522.9,292.8l3.1,27.9c0.7,3.9,4,6.6,7.6,5.9l13.2-2.7c3.4-0.7,5.7-4.2,5.3-8l-3.5-33.5c-0.4-4-3.7-6.9-7.3-6.4
	c-0.7,0.1-1.5,0.3-2.2,0.7l-12.8,8.3C523.8,286.5,522.4,289.6,522.9,292.8z"/>
<path class="st1" d="M570.9,274.4l3.1,32.6c0.7,4.6,4.6,7.6,8.7,6.8l0,0l14.7-2.9c3.9-0.7,6.5-4.7,6.1-9.1l-3.4-39.1
	c-0.4-4.6-4.1-8-8.2-7.5c-1,0.1-1.9,0.4-2.7,0.9l-14.4,9.5C572,267.2,570.3,270.8,570.9,274.4z"/>
<path class="st1" d="M623.2,257.4l3.2,33.5c1,6,6.1,10,11.4,8.8l17.6-3.6c5.3-1.1,8.9-6.8,7.9-12.7l0,0l-4.2-38.7
	c-0.7-6.3-5.8-10.8-11.5-10c-1.2,0.2-2.3,0.5-3.3,1.1l-16.2,10C624.4,248.1,622.4,252.7,623.2,257.4z"/>
<path class="st1" d="M532.2,369.6l1.5,24.9c0.3,5.2,4.3,9.1,9,8.8l0,0l9.2-0.7c4.7-0.3,8.2-4.8,7.9-10l-1.7-28.6
	c-0.3-5.2-4.3-9.1-9-8.7c-1,0.1-1.9,0.3-2.9,0.8l-9,4.4C534,362,531.9,365.6,532.2,369.6z"/>
<path class="st1" d="M581,356.5l1.8,31.4c0.3,5.2,4.4,9.2,9.1,8.9l0,0l12.3-0.9c4.7-0.3,8.3-4.9,8-10.1l0,0l-2.1-36.6
	c-0.3-5.2-4.4-9.2-9.1-8.9c-1,0.1-2,0.3-2.9,0.8l-12,6C582.8,348.8,580.7,352.6,581,356.5z"/>
<path class="st1" d="M634.6,345.8l2,33.9c0.4,6,5.1,10.6,10.5,10.2l0,0l17.9-1.3c5.4-0.4,9.5-5.6,9.1-11.7l-2.4-40.3
	c-0.4-6-5.1-10.6-10.5-10.2c-1,0.1-2,0.3-3,0.7l-17.5,7.8C636.8,336.7,634.3,341.1,634.6,345.8z"/>
<path class="st1" d="M544.5,530.8l1,28.8c0.1,3.6,2.9,6.4,6.1,6.4l14.3-0.6c3.2-0.2,5.8-3.2,5.7-6.8l-1-31.5
	c-0.1-3.6-2.9-6.4-6.1-6.4c-0.4,0-0.7,0.1-1,0.2l-14.2,3.3C546.4,524.8,544.4,527.6,544.5,530.8z"/>
<path class="st1" d="M593.7,520.5l1.1,33.3c0.1,4.1,3.2,7.3,7,7.2l0,0l16-0.7c3.7-0.2,6.6-3.6,6.4-7.8l0,0l-1.2-35.2
	c-0.1-4.1-3.2-7.3-7-7.2c-0.2,0-0.4,0-0.7,0.1l-16,2.4C596,513.4,593.5,516.6,593.7,520.5z"/>
<path class="st1" d="M647.6,512l1.1,33.6c0.2,5.8,4.5,10.3,9.7,10.1l0,0l18.7-0.8c5.2-0.2,9.2-5.1,9.1-10.9l0,0l-1.2-37.6
	c-0.2-5.8-4.5-10.3-9.7-10.1c-0.6,0-1.2,0.1-1.8,0.2l-18.6,4.7C650.5,502.5,647.4,506.9,647.6,512z"/>
<path class="st1" d="M538.6,451.2l0.8,23.3c0.2,5.5,4.3,9.8,9.2,9.5l0,0l8.3-0.4c4.9-0.2,8.8-4.8,8.6-10.3l0,0l-0.9-25.5
	c-0.1-5.5-4.3-9.8-9.2-9.5c-0.7,0-1.5,0.2-2.2,0.4l-8.2,2.7C541.1,442.4,538.4,446.5,538.6,451.2z"/>
<path class="st1" d="M587.8,439.8l1,30.1c0.1,5.2,4.1,9.3,8.8,9.1l0,0l12.4-0.5c4.7-0.2,8.3-4.6,8.2-9.8l0,0l-1.1-32.6
	c-0.1-5.2-4.1-9.3-8.8-9.1c-0.5,0-1,0.1-1.5,0.2l-12.4,2.9C590.5,431.2,587.6,435.2,587.8,439.8z"/>
<path class="st1" d="M641.6,431.2l1,30.4c0.2,6.9,5.4,12.3,11.6,12.1l0,0l15.1-0.7c6.2-0.2,11.1-6,10.8-13l0,0l-1.2-34.7
	c-0.2-6.9-5.4-12.3-11.6-12.1c-1,0-1.8,0.2-2.7,0.5l-14.9,4.8C644.8,420.2,641.4,425.5,641.6,431.2z"/>
<path class="st1" d="M290,371.5l2.9,21.1c0.6,3,4,4.9,7.6,4.3l13.4-2.2c3.4-0.6,5.9-3.3,5.5-6.1l-3.2-25.4c-0.5-3.8-5.4-6-9.6-4.2
	l-13,6.4C291,366.8,289.6,369.2,290,371.5z"/>
<path class="st1" d="M338.8,357.1l2.8,24.6c0.7,3.4,4.6,5.7,8.8,5l14.9-2.4c3.9-0.7,6.7-3.6,6.3-6.9l-3.1-29.5
	c-0.4-4.5-6.2-7-11-4.9l-14.6,7.3C339.9,351.6,338.2,354.4,338.8,357.1z"/>
<path class="st1" d="M391.7,343.6l2.9,25.3c0.9,4.5,6.1,7.4,11.5,6.5l17.9-2.9c5.4-0.9,9.1-5.2,8.1-9.7l-3.9-29.2
	c-0.8-6-8.4-9.3-14.9-6.6l-16.5,7.8C393.1,336.5,390.9,340.1,391.7,343.6z"/>
<path class="st1" d="M298.7,429.5l1.2,18.8c0.2,3.9,4.3,6.9,9,6.5l9.3-0.7c4.7-0.3,8.3-3.8,8.1-7.7l-1.5-21.6
	c-0.4-4.9-6.4-8-11.9-5.9l-9.1,3.5C300.6,423.7,298.5,426.5,298.7,429.5z"/>
<path class="st1" d="M348.1,419l1.5,23.7c0.3,3.9,4.3,6.9,9.1,6.6l12.4-0.8c4.8-0.3,8.4-3.8,8.1-7.8l-1.8-27.6
	c-0.4-5-6.6-8.1-12.1-6l-12.2,4.7C350,413.2,347.9,416.1,348.1,419z"/>
<path class="st1" d="M402.4,410.3l1.7,25.5c0.3,4.6,5,7.9,10.5,7.6l18.1-1.2c5.5-0.4,9.7-4.3,9.4-8.9l-2-30.4
	c-0.4-5.6-7.2-9.1-13.5-7l-17.7,6.1C404.7,403.3,402.1,406.8,402.4,410.3z"/>
<path class="st1" d="M309.6,551.1l0.7,21.8c0.1,2.8,2.9,4.9,6.1,4.7l14.5-0.7c3.3-0.2,5.9-2.4,5.8-5.2L336,548
	c-0.1-3.1-3.5-5.3-7.1-4.7l-14.4,2.6C311.6,546.6,309.6,548.7,309.6,551.1z"/>
<path class="st1" d="M359.4,542.7l0.8,25.2c0.1,3.1,3.2,5.5,7,5.4l16.2-0.7c3.7-0.2,6.7-2.8,6.6-6l-0.8-26.5
	c-0.1-3.3-3.7-5.8-7.6-5.3l-16.2,2C361.9,537.3,359.3,539.9,359.4,542.7z"/>
<path class="st1" d="M413.9,535.7l0.8,25.4c0.1,4.4,4.5,7.8,9.8,7.5l19-0.8c5.3-0.2,9.4-3.9,9.2-8.3l-0.9-28.4
	c-0.2-5-5.7-8.5-11.6-7.3l-18.9,3.8C416.9,528.5,413.8,531.9,413.9,535.7z"/>
<path class="st1" d="M304.4,491l0.6,17.5c0.1,4.2,4.2,7.3,9.3,7.1l8.3-0.4c5-0.2,8.9-3.8,8.8-7.9l-0.7-19.3
	c-0.1-4.9-5.8-8.2-11.4-6.9l-8.3,2.1C307.1,484.5,304.3,487.6,304.4,491z"/>
<path class="st1" d="M354.2,481.9l0.7,22.8c0.1,3.9,4.1,6.9,8.8,6.8l12.5-0.6c4.8-0.2,8.5-3.6,8.3-7.5l-0.8-24.6
	c-0.1-4.4-5.1-7.6-10.3-6.6l-12.5,2.4C357,475.3,354.1,478.4,354.2,481.9z"/>
<path class="st1" d="M408.7,474.8l0.7,23c0.2,5.2,5.4,9.2,11.6,9l15.2-0.7c6.3-0.2,11.3-4.7,11.1-10l-0.9-26.2
	c-0.2-6.1-7.2-10.4-14.4-8.6l-15.2,3.8C412,466.4,408.5,470.4,408.7,474.8z"/>
<path class="st1" d="M34.2,481l-0.1,6.9c0,1.6,3.3,2.9,7.5,2.9l7-0.1c4.2-0.1,7.5-1.4,7.5-3l0.1-7.5c0-1.9-4.5-3.3-9.3-2.7l-7,0.8
	C36.6,478.5,34.2,479.7,34.2,481z"/>
<path class="st1" d="M37.1,557.7l-0.1,6.9c0,1.6,3.3,2.9,7.5,2.8l7-0.1c4.2-0.1,7.5-1.4,7.5-3l0.1-7.5c0-1.9-4.5-3.3-9.3-2.7l-7,0.8
	C39.4,555.1,37.1,556.4,37.1,557.7z"/>
<path class="st1" d="M36,531l-0.1,6.9c0,1.6,3.3,2.9,7.5,2.9l7-0.1c4.2-0.1,7.5-1.4,7.5-3l0.1-7.5c0-1.9-4.5-3.3-9.3-2.7l-7,0.7
	C38.4,528.4,36,529.6,36,531z"/>
<path class="st1" d="M35.1,506.3l-0.1,6.9c0,1.6,3.3,2.9,7.5,2.9l7-0.1c4.2-0.1,7.5-1.4,7.5-3l0.1-7.5c0-1.9-4.5-3.3-9.3-2.7l-7,0.8
	C37.5,503.7,35.2,504.9,35.1,506.3z"/>
<path class="st1" d="M78,470.8l0.5,9.2c0.1,1.6,3.4,2.7,7.3,2.6l10.4-0.2c4-0.1,7.1-1.4,7-2.9l-0.6-10.7c-0.1-2-5.2-3.2-9.8-2.4
	l-10.3,1.8C79.7,468.6,77.9,469.6,78,470.8z"/>
<path class="st1" d="M126.2,457l0.7,14.5c0.1,2.6,4.1,4.7,8.9,4.5l15.9-0.3c4.8-0.1,8.6-2.3,8.5-4.9l-0.8-17.3
	c-0.1-3.2-6.1-5.3-11.6-4.2l-15.7,3.1C128.5,453.1,126.1,455,126.2,457z"/>
<path class="st0" d="M688.2,162.7L714.1,600H882c11.2,0,20.2-9.3,20.2-20.8v-409L688.2,162.7z"/>
<path class="st11" d="M696.8,94.4h167.7c7.8,0,14.7,5,17.2,12.6l36.8,55c2,5.8-2.3,11.8-8.3,11.6l-222-10.8L696.8,94.4z"/>
</svg>
