<svg id="Layer_1" data-name="Layer 1" xmlns="http://www.w3.org/2000/svg" viewBox="0 0 930 625.78"><defs><style>.cls-1{fill:#7c474f;}.cls-2{fill:#d0e0ff;}.cls-3{fill:#f0efec;}.cls-4{fill:#603c40;}.cls-5{fill:#fff;}.cls-6{fill:#9f3843;}.cls-7{fill:#ca515b;}.cls-8{fill:#752e3a;}.cls-9{fill:#a04e58;}.cls-10{fill:#51262f;}</style></defs><title>clark</title><path class="cls-1" d="M475,327.22l-238,76L230.76,541a4.55,4.55,0,0,0,4.5,5.21l-3.78.34L228,536.22h91l-8.2,18h34.7l12.65.12H464.57l9.2-79.47Z" transform="translate(-228 29.78)"/><path class="cls-2" d="M321.94,439.21l.24,11.31c.05,1.89,4.47,3.51,9.89,3.61l14.18.27c5.42.11,9.77-1.34,9.73-3.23L355.7,438c-.05-2.39-6.93-4.17-13.32-3.46l-14.14,1.58C324.42,436.56,321.91,437.79,321.94,439.21Z" transform="translate(-228 29.78)"/><path class="cls-2" d="M387.82,436.84l.22,17.82c0,3.18,5.42,5.87,12,6l21.73.47c6.59.15,11.9-2.32,11.86-5.5l-.26-21.22c-.05-3.92-8-6.86-15.69-5.82L396,431.55C391.09,432.21,387.79,434.35,387.82,436.84Z" transform="translate(-228 29.78)"/><path class="cls-2" d="M392.48,509.88l-.86,16c-.15,2.75,4.35,5.1,10,5.24l20.54.5c5.7.14,10.43-2,10.58-4.73l1-17.87c.17-3.13-5.58-5.63-12-5.2l-20.66,1.37C396.25,505.51,392.61,507.48,392.48,509.88Z" transform="translate(-228 29.78)"/><path class="cls-2" d="M395.21,473.73l-.76,13.84c-.17,3.15,5.35,5.84,12.32,6l17,.43c7,.18,12.76-2.22,12.93-5.37l.86-15.74c.21-3.69-7.34-6.61-15.35-5.92l-17.06,1.45C399.43,468.93,395.35,471.11,395.21,473.73Z" transform="translate(-228 29.78)"/><path class="cls-2" d="M320.94,510.53l.24,11.31c.05,1.89,4.47,3.5,9.89,3.61l14.18.27c5.42.1,9.77-1.35,9.73-3.24l-.28-13.15c-.05-2.39-6.93-4.18-13.32-3.46l-14.14,1.58C323.42,507.87,320.91,509.1,320.94,510.53Z" transform="translate(-228 29.78)"/><path class="cls-2" d="M322.19,474.49l.25,11.31c0,1.89,4.46,3.51,9.88,3.61l14.18.27c5.42.11,9.78-1.34,9.74-3.23L356,473.29c-.05-2.39-6.92-4.17-13.32-3.46l-14.14,1.58C324.67,471.84,322.16,473.07,322.19,474.49Z" transform="translate(-228 29.78)"/><path class="cls-3" d="M234.63,404a1.12,1.12,0,0,1-1-2l73.38-52a58,58,0,0,1,15-7.67l171.4-57.94-19.07,14.18L463,307h13l-1.21,31.87Z" transform="translate(-228 29.78)"/><path class="cls-4" d="M336,486.93l-5.57,65.67a4.75,4.75,0,0,0,4.57,5.29h6.19a4.72,4.72,0,0,0,4.58-4.53L350,486.93Z" transform="translate(-228 29.78)"/><path class="cls-5" d="M517,287,1158,63V-29.78L641,178.88A162.87,162.87,0,0,0,600.21,201L461.41,304.23a1.2,1.2,0,0,0,1.12,2.1Z" transform="translate(-228 29.78)"/><polygon class="cls-2" points="251.34 530.78 249.55 505.38 242.5 500.02 248 331.78 297 313.78 295.23 530.78 251.34 530.78"/><polygon class="cls-6" points="292.44 591.61 297 313.78 929.94 89.78 929.94 625.78 292.44 591.61"/><polygon class="cls-6" points="251.34 530.78 245.78 589.12 292.44 591.62 295.23 530.78 251.34 530.78"/><polygon class="cls-5" points="108.41 514.41 108.02 518.71 121.96 518.71 121.96 513.75 108.41 514.41"/><path class="cls-7" d="M231.48,548.35,308.29,556V538H228v6.5A3.87,3.87,0,0,0,231.48,548.35Z" transform="translate(-228 29.78)"/><path class="cls-4" d="M308.29,556h5.59a4.36,4.36,0,0,0,4.35-4.11L319,538H308.29Z" transform="translate(-228 29.78)"/><path class="cls-7" d="M396.47,547v5.62a5.75,5.75,0,0,0,5.5,5.74l75.25,3.32a2.91,2.91,0,0,0,3-3.53l-1.49-6.72Z" transform="translate(-228 29.78)"/><path class="cls-4" d="M396.47,484.82l-4.54,68.84a4.18,4.18,0,0,0,4.17,4.46h.37v-16l10,.75V484.82Z" transform="translate(-228 29.78)"/><polyline class="cls-4" points="212.38 520.56 200.84 520.56 197.12 573.39 207.91 574.25"/><polyline class="cls-7" points="235.92 518.71 234.22 585.62 250.7 587.93 252.19 518.71"/><path class="cls-8" d="M481,475.93v4.89a3.78,3.78,0,0,1-4,3.78l-61.93-3.5-4-4.44c0-2.21,2.1-4-.11-3.76l-74,6.49a3.78,3.78,0,0,1-4.11-3.76h0a3.78,3.78,0,0,1,3.45-3.76l59.5-5.25c.21,0,.41,0,7.24-1.47l72.55,5A5.81,5.81,0,0,1,481,475.93Z" transform="translate(-228 29.78)"/><polyline class="cls-5" points="168.47 511.81 168.47 514.6 178.52 514.6 178.31 511.81"/><polyline class="cls-8" points="253 510.61 183.73 509.88 107.96 513.75 107.96 516.84 200.84 520.56 252.63 518.7"/><path class="cls-6" d="M350,484" transform="translate(-228 29.78)"/><polygon class="cls-7" points="176.29 512.71 173.5 572.28 187.08 572.28 183.73 512.71 176.29 512.71"/><line class="cls-4" x1="183.73" y1="516.71" x2="176.29" y2="516.71"/><rect class="cls-5" x="176.29" y="510.88" width="7.44" height="1.83"/><path class="cls-7" d="M360.74,487.05l-2.45,67.2a3.74,3.74,0,0,0,3.73,3.87h2.08l5.58-71.07Z" transform="translate(-228 29.78)"/><path class="cls-4" d="M369.68,487.05l-5.58,71.07h5.81a5.39,5.39,0,0,0,5.37-5l5.19-66.1Z" transform="translate(-228 29.78)"/><polygon class="cls-5" points="132.74 516.84 152.47 516.84 152.47 512.25 132.74 513.25 132.74 516.84"/><path class="cls-5" d="M396.47,542.83v3.23l82.23,5.37h0a2.47,2.47,0,0,0-1.78-3.2l-78.24-7.87A2.25,2.25,0,0,0,396.47,542.83Z" transform="translate(-228 29.78)"/><path class="cls-5" d="M228,535.19l87.89-1.93a3,3,0,0,1,3.11,3V538H228" transform="translate(-228 29.78)"/><polygon class="cls-9" points="187.08 502.32 180.38 510.88 104.47 514.6 109 507.78 187.08 502.32"/><polygon class="cls-10" points="187.08 502.32 179.38 510.88 188.08 509.88 187.08 502.32"/><polygon class="cls-7" points="328.48 302.57 324.13 593.33 356.27 595.06 359.8 291.42 328.48 302.57"/><polygon class="cls-4" points="359.8 291.42 356.27 595.06 374.77 596.06 369.08 288.11 359.8 291.42"/><polygon class="cls-7" points="614.33 200.78 623.24 609.21 685 612.74 653.41 186.86 614.33 200.78"/><polygon class="cls-4" points="653.41 186.86 685 612.74 700.49 613.6 679.02 177.74 653.41 186.86"/><polygon class="cls-5" points="246.79 373.95 295.44 362.79 296.23 352.2 247.79 365.58 246.79 373.95"/><polygon class="cls-5" points="244.58 424.23 244.5 430.28 294.73 420.78 295.44 411.67 244.58 424.23"/><polygon class="cls-5" points="243.12 476.89 243.12 482.23 294.1 478.56 294.1 468.6 243.12 476.89"/><path class="cls-2" d="M935.39,210.26l2.75,34.39a9,9,0,0,0,10.08,7.64l18.21-2.52a8.94,8.94,0,0,0,7.7-9.52L971.07,199a9,9,0,0,0-12.74-7.43L940.44,201A8.94,8.94,0,0,0,935.39,210.26Z" transform="translate(-228 29.78)"/><path class="cls-2" d="M1001.91,190.52l2.54,40.09a10.26,10.26,0,0,0,11.57,8.76l20.27-2.8a10.26,10.26,0,0,0,8.84-10.73l-2.67-48.08a10.26,10.26,0,0,0-14.58-8.73l-20.14,10.79A10.25,10.25,0,0,0,1001.91,190.52Z" transform="translate(-228 29.78)"/><path class="cls-2" d="M1074.08,172.67l2.68,41.18a13.44,13.44,0,0,0,15.15,11.47l24.25-3.35a13.43,13.43,0,0,0,11.47-15.15l-3.75-47.57a14.1,14.1,0,0,0-19.75-11.8l-22.61,11.29A13.44,13.44,0,0,0,1074.08,172.67Z" transform="translate(-228 29.78)"/><path class="cls-2" d="M944.17,304.89l.74,30.56a11.55,11.55,0,0,0,11.83,11.27l12.6-.3a11.57,11.57,0,0,0,11.28-11.84l-.86-35.13A11.55,11.55,0,0,0,964,289l-12.49,4.88A11.55,11.55,0,0,0,944.17,304.89Z" transform="translate(-228 29.78)"/><path class="cls-2" d="M1011.47,291.64l.93,38.55a11.66,11.66,0,0,0,11.95,11.37l16.85-.41a11.66,11.66,0,0,0,11.38-11.94l-1.09-44.85a11.67,11.67,0,0,0-16-10.54l-16.71,6.72A11.65,11.65,0,0,0,1011.47,291.64Z" transform="translate(-228 29.78)"/><path class="cls-2" d="M1085.17,281.53l1,41.56a13.43,13.43,0,0,0,13.76,13.1l24.47-.59a13.44,13.44,0,0,0,13.11-13.76l-1.21-49.52A13.43,13.43,0,0,0,1118.42,260l-24.28,8.56A13.43,13.43,0,0,0,1085.17,281.53Z" transform="translate(-228 29.78)"/><path class="cls-2" d="M952.84,502.94l-.13,35.33a8.07,8.07,0,0,0,8,8.1l19.59.07a8.06,8.06,0,0,0,8.1-8l.17-38.59a8.06,8.06,0,0,0-9.36-8L959.62,495A8.08,8.08,0,0,0,952.84,502.94Z" transform="translate(-228 29.78)"/><path class="cls-2" d="M1020.49,493.06l-.16,40.87a9.15,9.15,0,0,0,9.11,9.19l21.89.09a9.15,9.15,0,0,0,9.19-9.11l.2-43.08a9.15,9.15,0,0,0-10-9.15L1028.76,484A9.16,9.16,0,0,0,1020.49,493.06Z" transform="translate(-228 29.78)"/><path class="cls-2" d="M1094.45,485.74l-.16,41.24a12.86,12.86,0,0,0,12.81,12.91l25.62.1a12.86,12.86,0,0,0,12.92-12.8l.2-46.09a12.87,12.87,0,0,0-15.2-12.71L1105,473.14A12.85,12.85,0,0,0,1094.45,485.74Z" transform="translate(-228 29.78)"/><path class="cls-2" d="M948.83,405.07l-.1,28.5a12.2,12.2,0,0,0,12.15,12.25l11.32,0a12.2,12.2,0,0,0,12.25-12.15l.12-31.35a12.19,12.19,0,0,0-15.12-11.89l-11.34,2.79A12.21,12.21,0,0,0,948.83,405.07Z" transform="translate(-228 29.78)"/><path class="cls-2" d="M1016.48,394l-.14,36.95a11.6,11.6,0,0,0,11.56,11.65l17,.06a11.6,11.6,0,0,0,11.65-11.55l.17-39.93a11.61,11.61,0,0,0-13.56-11.49l-17,2.92A11.6,11.6,0,0,0,1016.48,394Z" transform="translate(-228 29.78)"/><path class="cls-2" d="M1090.44,386.51l-.14,37.37a15.36,15.36,0,0,0,15.3,15.42l20.63.08a15.36,15.36,0,0,0,15.42-15.3l.16-42.48a15.36,15.36,0,0,0-19-15l-20.65,5A15.34,15.34,0,0,0,1090.44,386.51Z" transform="translate(-228 29.78)"/><path class="cls-2" d="M613.54,293.54l2.78,26c.68,3.69,5.24,6.27,10.19,5.76l18.4-1.89c4.73-.49,8.13-3.64,7.78-7.2L649.59,285c-.46-4.72-7.13-7.63-12.86-5.61l-18.09,7.08C615.06,287.76,613,290.61,613.54,293.54Z" transform="translate(-228 29.78)"/><path class="cls-2" d="M680.77,278.63l2.56,30.27c.79,4.24,6,7.21,11.7,6.62l20.49-2.12c5.35-.55,9.24-4.07,8.94-8.1L721.76,269c-.41-5.48-8.09-8.91-14.74-6.6l-20.36,8.15C682.53,272,680.15,275.26,680.77,278.63Z" transform="translate(-228 29.78)"/><path class="cls-2" d="M753.71,265.14l2.71,31.11c1,5.55,7.89,9.43,15.32,8.66l24.5-2.53c7.43-.77,12.62-5.89,11.59-11.44L804.05,255c-.77-7.32-11-11.87-20-8.91l-22.85,8.52C755.94,256.54,752.9,260.79,753.71,265.14Z" transform="translate(-228 29.78)"/><path class="cls-2" d="M622.41,365l.75,23.08c.15,4.82,5.51,8.64,12,8.52l12.73-.23c6.45-.12,11.55-4.12,11.4-8.94l-.86-26.54c-.2-6.05-8.38-10.12-15.93-7.91l-12.63,3.68C625.26,358,622.29,361.33,622.41,365Z" transform="translate(-228 29.78)"/><path class="cls-2" d="M690.43,355l.94,29.11c.16,4.86,5.57,8.71,12.07,8.59l17-.31c6.51-.12,11.66-4.15,11.5-9l-1.1-33.87c-.2-6.15-8.55-10.25-16.18-8l-16.89,5.07C693.25,348,690.31,351.33,690.43,355Z" transform="translate(-228 29.78)"/><path class="cls-2" d="M764.92,347.36l1,31.39c.19,5.6,6.41,10,13.91,9.9l24.73-.45c7.5-.14,13.43-4.79,13.25-10.39l-1.22-37.41c-.22-6.89-9.38-11.61-18.09-9.32L774,337.54C768.44,339,764.78,343,764.92,347.36Z" transform="translate(-228 29.78)"/><path class="cls-2" d="M631.18,514.58,631,541.26c0,3.37,3.62,6.11,8.12,6.12l19.79.06c4.51,0,8.17-2.7,8.19-6.07l.18-29.14c0-3.77-4.49-6.65-9.47-6.05L638,508.59C634.09,509.07,631.19,511.6,631.18,514.58Z" transform="translate(-228 29.78)"/><path class="cls-2" d="M699.54,507.12,699.38,538c0,3.82,4.11,6.92,9.21,6.94l22.13.06c5.1,0,9.26-3.06,9.28-6.88l.21-32.53c0-4.09-4.69-7.3-10.14-6.91l-22.16,1.6C703.18,500.61,699.56,503.57,699.54,507.12Z" transform="translate(-228 29.78)"/><path class="cls-2" d="M774.3,501.59l-.17,31.15c0,5.36,5.77,9.73,13,9.75l25.9.08c7.18,0,13-4.31,13.06-9.68l.2-34.8c0-6.09-7.35-10.71-15.37-9.6l-25.93,3.58C778.79,492.92,774.32,496.92,774.3,501.59Z" transform="translate(-228 29.78)"/><path class="cls-2" d="M627.12,440.66l-.1,21.53c0,5.09,5.47,9.23,12.28,9.25l11.44,0c6.81,0,12.35-4.09,12.38-9.18l.13-23.67c0-6-7.5-10.42-15.29-9l-11.46,2.11C631,432.76,627.14,436.43,627.12,440.66Z" transform="translate(-228 29.78)"/><path class="cls-2" d="M695.49,432.27l-.14,27.91c0,4.84,5.21,8.77,11.69,8.79l17.16,0c6.48,0,11.75-3.89,11.77-8.73l.17-30.15c0-5.45-6.52-9.6-13.71-8.68l-17.19,2.2C699.62,424.38,695.51,428,695.49,432.27Z" transform="translate(-228 29.78)"/><path class="cls-2" d="M770.24,426.65l-.14,28.22c0,6.41,6.9,11.63,15.47,11.65l20.85.06C815,466.6,822,461.43,822,455l.17-32.08c0-7.54-9.4-13.11-19.2-11.32l-20.87,3.79C775.16,416.68,770.27,421.31,770.24,426.65Z" transform="translate(-228 29.78)"/><path class="cls-2" d="M258.7,413.17l-.49,8.34c-.12,2,4.38,3.71,10.05,3.87l9.52.28c5.66.16,10.35-1.31,10.47-3.28l.54-9.18c.14-2.32-6-4.21-12.55-3.83l-9.57.56C262.08,410.19,258.79,411.53,258.7,413.17Z" transform="translate(-228 29.78)"/><path class="cls-2" d="M258.7,507.15l-.49,8.35c-.12,2,4.38,3.7,10.05,3.86l9.52.28c5.66.16,10.35-1.3,10.47-3.28l.54-9.17c.14-2.33-6-4.22-12.55-3.84l-9.57.56C262.08,504.18,258.79,505.51,258.7,507.15Z" transform="translate(-228 29.78)"/><path class="cls-2" d="M258.7,474.35l-.49,8.35c-.12,2,4.38,3.7,10.05,3.87l9.52.27c5.66.17,10.35-1.3,10.47-3.27l.54-9.18c.14-2.33-6-4.21-12.55-3.83l-9.57.55C262.08,471.38,258.79,472.71,258.7,474.35Z" transform="translate(-228 29.78)"/><path class="cls-2" d="M258.7,444.07l-.49,8.35c-.12,2,4.38,3.7,10.05,3.87l9.52.27c5.66.16,10.35-1.3,10.47-3.27l.54-9.18c.14-2.33-6-4.21-12.55-3.84l-9.57.56C262.08,441.1,258.79,442.43,258.7,444.07Z" transform="translate(-228 29.78)"/><path class="cls-2" d="M319,403.06l.24,11.31c0,1.89,4.47,3.51,9.89,3.61l14.18.27c5.41.11,9.77-1.34,9.73-3.23l-.29-13.16c-.05-2.39-6.92-4.17-13.31-3.46L325.3,400C321.48,400.41,319,401.64,319,403.06Z" transform="translate(-228 29.78)"/><path class="cls-2" d="M385.58,388.94l.22,17.81c0,3.18,5.41,5.88,12,6l21.73.47c6.59.15,11.89-2.31,11.86-5.49l-.27-21.23c-.05-3.91-8-6.86-15.68-5.82l-21.69,2.94C388.84,384.31,385.54,386.44,385.58,388.94Z" transform="translate(-228 29.78)"/></svg>