<?xml version="1.0" encoding="utf-8"?>
<!-- Generator: Adobe Illustrator 23.0.4, SVG Export Plug-In . SVG Version: 6.00 Build 0)  -->
<svg version="1.1" id="Layer_1" xmlns="http://www.w3.org/2000/svg" xmlns:xlink="http://www.w3.org/1999/xlink" x="0px" y="0px"
	 viewBox="0 0 930 625.8" style="enable-background:new 0 0 930 625.8;" xml:space="preserve">
<style type="text/css">
	.st0{fill:#7C474F;}
	.st1{fill:#D0E0FF;}
	.st2{fill:#F0EFEC;}
	.st3{fill:#603C40;}
	.st4{fill:#FFFFFF;}
	.st5{fill:#9F3843;}
	.st6{fill:#CA515B;}
	.st7{fill:#752E3A;}
	.st8{fill:none;}
	.st9{fill:#A04E58;}
	.st10{fill:#51262F;}
</style>
<title>clark</title>
<path class="st0" d="M249,366L14.4,451.8l-0.5,137.9c-0.3,2.5,1.6,4.7,4.1,5c0.2,0,0.4,0,0.7,0l-3.8,0.5L10.9,585l90.9-3.8
	l-7.4,18.3l34.7-1.4l12.6-0.4l106.3-4.4l5.9-79.8L249,366z"/>
<path class="st1" d="M100.7,484.2l0.7,11.3c0.1,1.9,4.6,3.3,10,3.2l14.2-0.3c5.4-0.1,9.7-1.7,9.6-3.6l-0.8-13.1
	c-0.1-2.4-7.1-3.9-13.5-2.9l-14.1,2.2C103.1,481.5,100.6,482.8,100.7,484.2z"/>
<path class="st1" d="M166.4,479.1l1,17.8c0.1,3.2,5.7,5.6,12.2,5.5l21.7-0.4c6.6-0.1,11.8-2.8,11.6-6l-1.1-21.2
	c-0.2-3.9-8.3-6.5-15.9-5.2l-21.5,3.9C169.5,474.4,166.3,476.6,166.4,479.1z"/>
<path class="st1" d="M174.1,551.9l-0.2,16c0,2.8,4.6,4.9,10.2,4.8l20.5-0.4c5.7-0.1,10.3-2.4,10.4-5.2l0.3-17.9
	c0-3.1-5.8-5.4-12.2-4.7l-20.6,2.2C177.7,547.4,174.2,549.5,174.1,551.9z"/>
<path class="st1" d="M175.4,515.7l-0.2,13.9c0,3.2,5.6,5.6,12.6,5.5l17-0.3c7-0.1,12.7-2.7,12.7-5.9l0.2-15.8
	c0.1-3.7-7.6-6.3-15.6-5.3l-17,2.2C179.4,510.7,175.4,513.1,175.4,515.7z"/>
<path class="st1" d="M102.7,555.5l0.7,11.3c0.1,1.9,4.6,3.3,10,3.2l14.2-0.3c5.4-0.1,9.7-1.8,9.6-3.6l-0.8-13.1
	c-0.1-2.4-7.1-3.9-13.5-2.9l-14.1,2.2C105,552.8,102.6,554.1,102.7,555.5z"/>
<path class="st1" d="M102.4,519.5l0.7,11.3c0.1,1.9,4.6,3.3,10,3.2l14.2-0.3c5.4-0.1,9.7-1.7,9.6-3.6l-0.8-13.1
	c-0.1-2.4-7.1-3.9-13.5-2.9l-14.1,2.2C104.8,516.7,102.3,518,102.4,519.5z"/>
<path class="st2" d="M12,452.7c-0.6,0.3-1.2,0-1.5-0.5c-0.2-0.5-0.1-1.1,0.4-1.4l71.2-55c4.5-3.5,9.4-6.3,14.7-8.3l168.9-65
	l-18.5,15l-11,8.9l13-0.5l0.1,31.9L12,452.7z"/>
<path class="st3" d="M116.7,531.3l-2.8,65.8c-0.2,2.6,1.8,4.9,4.4,5.1c0.1,0,0.3,0,0.4,0l6.2-0.3c2.5-0.2,4.4-2.2,4.4-4.7l1.5-66.5
	L116.7,531.3z"/>
<path class="st4" d="M289.3,324.1L930,70.7V-13L408.7,210.9c-14.3,6-27.8,14-39.8,23.8L234.5,343.6c-0.5,0.4-0.6,1.2-0.2,1.7
	c0.3,0.4,0.9,0.6,1.4,0.4L289.3,324.1z"/>
<polygon class="st1" points="260.5,539.4 257.7,514.1 250.4,509.1 249,340.8 297.2,320.7 304.4,537.6 "/>
<polygon class="st5" points="304.1,598.5 297.2,320.7 930,70.7 942.5,606.3 "/>
<polygon class="st5" points="260.5,539.4 257.4,598 304.1,598.5 304.4,537.6 "/>
<polygon class="st4" points="117.1,529 116.9,533.3 130.8,532.7 130.6,527.8 "/>
<path class="st6" d="M14.9,597l77.1,4.5l-0.7-18L11,586.8l0.3,6.5C11.3,595.3,12.9,596.9,14.9,597z"/>
<path class="st3" d="M91.9,601.5l5.6-0.2c2.3-0.1,4.1-2,4.2-4.3l0.2-13.9l-10.7,0.4L91.9,601.5z"/>
<path class="st6" d="M179.7,588.8l0.2,5.6c0.1,3.1,2.7,5.5,5.7,5.5l75.3,0.2c1.6,0,2.9-1.3,2.9-2.9c0-0.3,0-0.5-0.1-0.8l-1.8-6.7
	L179.7,588.8z"/>
<path class="st3" d="M177.1,526.7l-1.7,69c-0.1,2.3,1.8,4.2,4.1,4.3c0.1,0,0.2,0,0.3,0l0.4,0l-0.7-16l10,0.3l-2.4-58L177.1,526.7z"
	/>
<polyline class="st3" points="221.2,530.8 209.7,531.3 208.1,584.3 219,584.7 "/>
<polyline class="st6" points="244.6,528 245.7,594.9 262.3,596.6 260.9,527.3 "/>
<path class="st7" d="M261.2,514.3l0.2,4.9c0.1,2.1-1.5,3.8-3.6,3.9c-0.1,0-0.2,0-0.2,0l-62-0.9l-4.2-4.3c-0.1-2.2,1.9-4.1-0.3-3.8
	l-73.7,9.5c-2.1,0.3-4-1.2-4.2-3.3c0-0.1,0-0.2,0-0.3l0,0c-0.1-2,1.3-3.6,3.3-3.9l59.2-7.7c0.2,0,0.4,0,7.2-1.8l72.7,2
	C258.6,508.9,261,511.3,261.2,514.3z"/>
<polyline class="st4" points="177,523.9 177.1,526.7 187.1,526.3 186.8,523.5 "/>
<polyline class="st7" points="261.4,519.2 192.1,521.4 116.6,528.4 116.7,531.5 209.7,531.3 261.3,527.3 "/>
<path class="st5" d="M130.6,527.8"/>
<polygon class="st6" points="184.8,524.5 184.5,584.1 198.1,583.6 192.2,524.2 "/>
<line class="st8" x1="192.4" y1="528.2" x2="185" y2="528.5"/>
<rect x="184.8" y="522.5" transform="matrix(0.9991 -4.141483e-02 4.141483e-02 0.9991 -21.5159 8.2554)" class="st4" width="7.4" height="1.8"/>
<path class="st6" d="M141.5,530.4l0.3,67.2c0,2.1,1.7,3.7,3.8,3.7c0,0,0.1,0,0.1,0l2.1-0.1l2.6-71.2L141.5,530.4z"/>
<path class="st3" d="M150.4,530l-2.6,71.2l5.8-0.2c2.8-0.1,5.1-2.4,5.2-5.2l2.4-66.3L150.4,530z"/>
<polygon class="st4" points="141.5,530.4 161.2,529.6 161,525 141.3,526.8 "/>
<path class="st4" d="M179.5,584.7l0.1,3.2l82.4,2l0,0c0.4-1.3-0.4-2.7-1.7-3.1c-0.1,0-0.2,0-0.2-0.1l-78.5-4.6
	c-1.2,0.1-2.2,1.1-2.1,2.4C179.5,584.5,179.5,584.6,179.5,584.7z"/>
<path class="st4" d="M10.8,584l87.7-5.6c1.7-0.1,3.1,1.1,3.2,2.8c0,0,0,0.1,0,0.1l0.1,1.7L11,586.8"/>
<polygon class="st9" points="195.2,513.7 188.8,522.5 113.1,529.4 117.4,522.4 "/>
<polygon class="st10" points="195.2,513.7 187.8,522.5 196.5,521.2 "/>
<polygon class="st6" points="328.2,308.2 335.9,598.9 368,599.3 359,295.8 "/>
<polygon class="st3" points="359,295.8 368,599.3 386.6,599.6 368.1,292.1 "/>
<polygon class="st6" points="609.6,194.7 635.4,602.4 697.2,603.4 648,179.2 "/>
<polygon class="st3" points="648,179.2 697.2,603.4 712.7,603.6 673.2,169 "/>
<polygon class="st4" points="249.5,382.9 297.7,369.8 298,359.2 250.2,374.5 "/>
<polygon class="st4" points="249.4,433.3 249.6,439.3 299.3,427.7 299.7,418.6 "/>
<polygon class="st4" points="250.1,485.9 250.3,491.3 301.1,485.5 300.7,475.5 "/>
<path class="st1" d="M704.2,230.1l4.2,34.2c0.9,4.8,5.5,8.1,10.4,7.2l18.1-3.3c4.6-0.8,7.8-5.1,7.3-9.8l-4.8-41.1
	c-0.6-4.9-5.1-8.4-10-7.8c-1,0.1-2.1,0.4-3,0.9l-17.5,10.2C705.4,222.4,703.5,226.2,704.2,230.1z"/>
<path class="st1" d="M769.8,207.6l4.2,40c1,5.6,6.3,9.3,11.9,8.3c0,0,0,0,0,0l20.1-3.6c5.3-0.9,8.9-5.8,8.4-11.1l-4.7-47.9
	c-0.5-5.6-5.6-9.8-11.2-9.2c-1.3,0.1-2.6,0.5-3.7,1.1l-19.7,11.6C771.2,198.7,769,203.2,769.8,207.6z"/>
<path class="st1" d="M841.2,186.8l4.4,41c1.3,7.3,8.3,12.2,15.6,10.8l24.1-4.4c7.3-1.3,12.2-8.3,10.8-15.6c0,0,0,0,0,0l-5.7-47.4
	c-0.9-7.7-7.9-13.2-15.7-12.3c-1.6,0.2-3.1,0.6-4.5,1.3L848,172.5C842.9,175.3,840.1,181,841.2,186.8z"/>
<path class="st1" d="M716.9,324.2l2,30.5c0.4,6.4,5.9,11.2,12.3,10.8c0,0,0,0,0,0l12.6-0.8c6.4-0.4,11.2-5.9,10.8-12.3l-2.3-35.1
	c-0.4-6.4-5.9-11.2-12.3-10.7c-1.3,0.1-2.6,0.4-3.9,1l-12.3,5.4C719.3,314.9,716.5,319.4,716.9,324.2z"/>
<path class="st1" d="M783.5,308.2l2.5,38.5c0.4,6.4,6,11.3,12.4,10.9c0,0,0,0,0,0l16.8-1.1c6.4-0.4,11.3-6,10.9-12.4c0,0,0,0,0,0
	l-2.9-44.8c-0.4-6.4-6-11.3-12.4-10.9c-1.4,0.1-2.7,0.4-4,1l-16.4,7.4C786,298.8,783.2,303.4,783.5,308.2z"/>
<path class="st1" d="M856.8,295.1l2.7,41.5c0.5,7.4,6.9,13,14.3,12.5c0,0,0,0,0,0l24.4-1.6c7.4-0.5,13-6.9,12.5-14.3l-3.3-49.4
	c-0.5-7.4-6.9-13-14.3-12.5c-1.4,0.1-2.8,0.4-4.1,0.9l-23.9,9.6C859.8,283.9,856.4,289.3,856.8,295.1z"/>
<path class="st1" d="M733.7,521.8l1.3,35.3c0.2,4.4,3.9,7.9,8.3,7.8l19.6-0.7c4.4-0.2,7.9-3.9,7.8-8.3l-1.4-38.6
	c-0.2-4.4-3.9-7.9-8.3-7.8c-0.5,0-0.9,0.1-1.3,0.2l-19.4,4C736.3,514.4,733.6,517.8,733.7,521.8z"/>
<path class="st1" d="M800.9,509.1l1.5,40.8c0.2,5,4.4,9,9.5,8.8c0,0,0,0,0,0l21.9-0.8c5-0.2,9-4.4,8.8-9.5c0,0,0,0,0,0l-1.6-43.1
	c-0.2-5-4.4-9-9.5-8.8c-0.3,0-0.6,0-0.9,0.1l-21.9,3C804.1,500.4,800.7,504.4,800.9,509.1z"/>
<path class="st1" d="M874.5,498.7l1.5,41.2c0.3,7.1,6.2,12.6,13.3,12.4c0,0,0,0,0,0l25.6-1c7.1-0.3,12.6-6.2,12.4-13.3c0,0,0,0,0,0
	l-1.7-46.1c-0.3-7.1-6.2-12.6-13.3-12.4c-0.8,0-1.6,0.1-2.4,0.3l-25.4,5.8C878.5,487.1,874.3,492.5,874.5,498.7z"/>
<path class="st1" d="M725.7,424.2l1.1,28.5c0.3,6.7,5.9,12,12.6,11.7c0,0,0,0,0,0l11.3-0.5c6.7-0.3,12-5.9,11.7-12.6c0,0,0,0,0,0
	l-1.2-31.3c-0.2-6.7-5.9-12-12.6-11.7c-1,0-2,0.2-3,0.5l-11.2,3.3C729.1,413.5,725.4,418.5,725.7,424.2z"/>
<path class="st1" d="M792.8,410.3l1.4,36.9c0.2,6.4,5.6,11.4,12,11.2c0,0,0,0,0,0l17-0.6c6.4-0.2,11.4-5.6,11.2-12c0,0,0,0,0,0
	l-1.5-39.9c-0.2-6.4-5.6-11.4-12-11.2c-0.7,0-1.3,0.1-2,0.2l-16.9,3.6C796.5,399.7,792.6,404.6,792.8,410.3z"/>
<path class="st1" d="M866.4,399.7l1.4,37.3c0.3,8.5,7.4,15.1,15.9,14.8c0,0,0,0,0,0l20.6-0.8c8.5-0.3,15.1-7.4,14.8-15.9
	c0,0,0,0,0,0l-1.6-42.5c-0.3-8.5-7.4-15.1-15.9-14.8c-1.3,0-2.5,0.2-3.7,0.6l-20.4,5.9C870.7,386.3,866.1,392.7,866.4,399.7z"/>
<path class="st1" d="M386,326.6l3.9,25.9c0.8,3.7,5.5,6,10.4,5.3l18.3-2.7c4.7-0.7,8-4,7.5-7.5l-4.4-31.1c-0.7-4.7-7.4-7.3-13.1-5.1
	l-17.8,7.8C387.3,320.8,385.4,323.7,386,326.6z"/>
<path class="st1" d="M452.6,308.9l3.8,30.1c1,4.2,6.3,7,12,6.1l20.4-3c5.3-0.8,9.1-4.4,8.6-8.5l-4.2-36.2c-0.6-5.5-8.5-8.6-15-6
	l-20,9C454.1,302.2,451.8,305.6,452.6,308.9z"/>
<path class="st1" d="M524.9,292.4l4,31c1.2,5.5,8.3,9.1,15.7,8l24.4-3.5c7.4-1.1,12.4-6.4,11.1-11.9l-5.3-35.8
	c-1.1-7.3-11.5-11.4-20.4-8.1l-22.5,9.5C526.8,283.7,523.9,288.1,524.9,292.4z"/>
<path class="st1" d="M397.9,397.6l1.7,23c0.3,4.8,5.9,8.4,12.3,8l12.7-0.8c6.4-0.4,11.4-4.6,11-9.4l-2-26.5c-0.5-6-8.8-9.8-16.2-7.2
	L405,389C400.4,390.5,397.6,394,397.9,397.6z"/>
<path class="st1" d="M465.4,384.8l2.1,29c0.4,4.8,5.9,8.5,12.4,8.1l17-1c6.5-0.4,11.5-4.6,11.1-9.5l-2.5-33.8
	c-0.5-6.1-9-9.9-16.5-7.3l-16.7,5.8C467.9,377.7,465.1,381.2,465.4,384.8z"/>
<path class="st1" d="M539.5,374.1l2.3,31.3c0.4,5.6,6.8,9.7,14.3,9.3l24.7-1.5c7.5-0.5,13.2-5.3,12.8-10.9l-2.8-37.3
	c-0.5-6.9-9.9-11.2-18.5-8.6l-24.2,7.5C542.7,365.6,539.2,369.8,539.5,374.1z"/>
<path class="st1" d="M412.8,546.7l0.9,26.7c0.1,3.4,3.9,6,8.4,5.8l19.8-0.8c4.5-0.2,8.1-3,7.9-6.4l-1-29.1c-0.2-3.8-4.8-6.5-9.7-5.7
	l-19.7,3.2C415.5,541.1,412.7,543.7,412.8,546.7z"/>
<path class="st1" d="M480.8,536.4l1.1,30.9c0.2,3.8,4.4,6.7,9.5,6.6l22.1-0.9c5.1-0.2,9.1-3.4,9-7.3l-1.1-32.5
	c-0.2-4.1-5-7.1-10.4-6.5l-22.1,2.5C484.2,529.8,480.7,532.9,480.8,536.4z"/>
<path class="st1" d="M555.3,527.8l1.1,31.1c0.2,5.4,6.2,9.5,13.4,9.2l25.9-1c7.2-0.3,12.8-4.8,12.6-10.2l-1.2-34.8
	c-0.3-6.1-7.8-10.4-15.8-9l-25.8,4.7C559.4,519,555.1,523.1,555.3,527.8z"/>
<path class="st1" d="M405.7,473l0.8,21.5c0.2,5.1,5.8,9,12.7,8.7l11.4-0.5c6.8-0.3,12.2-4.6,12-9.7l-0.9-23.7
	c-0.2-6-7.9-10.1-15.6-8.4l-11.4,2.6C409.3,465,405.5,468.8,405.7,473z"/>
<path class="st1" d="M473.7,461.8l1,27.9c0.2,4.8,5.6,8.5,12,8.3l17.1-0.7c6.5-0.3,11.6-4.4,11.4-9.2l-1.1-30.1
	c-0.2-5.4-6.9-9.3-14.1-8.1l-17.1,2.9C477.5,453.8,473.5,457.6,473.7,461.8z"/>
<path class="st1" d="M548.1,453.1l1,28.2c0.3,6.4,7.4,11.3,15.9,11l20.8-0.8c8.6-0.3,15.4-5.8,15.1-12.2l-1.2-32.1
	c-0.3-7.5-9.9-12.7-19.7-10.5l-20.7,4.7C552.6,442.9,547.9,447.8,548.1,453.1z"/>
<path class="st1" d="M36.5,460.8l-0.1,8.4c0,2,4.5,3.5,10.2,3.5l9.5-0.1c5.7-0.1,10.3-1.7,10.3-3.7l0.2-9.2c0-2.3-6.2-4-12.7-3.3
	l-9.5,1C39.7,457.7,36.5,459.2,36.5,460.8z"/>
<path class="st1" d="M40.4,554.7l-0.1,8.4c0,2,4.5,3.5,10.2,3.4l9.5-0.1c5.7-0.1,10.3-1.7,10.3-3.7l0.2-9.2c0-2.3-6.2-4-12.7-3.3
	l-9.5,1C43.6,551.6,40.4,553.1,40.4,554.7z"/>
<path class="st1" d="M39,522l-0.1,8.4c0,2,4.5,3.5,10.2,3.5l9.5-0.1c5.7-0.1,10.3-1.7,10.3-3.7l0.2-9.2c0-2.3-6.2-4-12.7-3.3
	l-9.5,0.9C42.2,518.8,39,520.3,39,522z"/>
<path class="st1" d="M37.7,491.7l-0.1,8.4c0,2,4.5,3.5,10.2,3.5l9.5-0.1c5.7-0.1,10.3-1.7,10.3-3.7l0.2-9.2c0-2.3-6.2-4-12.7-3.3
	l-9.5,1C41,488.6,37.8,490.1,37.7,491.7z"/>
<path class="st1" d="M96.3,448.2l0.7,11.3c0.1,1.9,4.6,3.3,10,3.2l14.2-0.3c5.4-0.1,9.7-1.7,9.6-3.6l-0.8-13.1
	c-0.1-2.4-7.1-3.9-13.4-2.9l-14.1,2.2C98.7,445.5,96.2,446.8,96.3,448.2z"/>
<path class="st1" d="M162.2,431.4l1,17.8c0.1,3.2,5.6,5.7,12.2,5.5l21.7-0.4c6.6-0.1,11.8-2.8,11.6-6l-1.1-21.2
	c-0.2-3.9-8.3-6.5-15.9-5.2l-21.5,3.8C165.3,426.6,162.1,428.9,162.2,431.4z"/>
</svg>
