<?xml version="1.0" encoding="utf-8"?>
<!-- Generator: Adobe Illustrator 23.0.4, SVG Export Plug-In . SVG Version: 6.00 Build 0)  -->
<svg version="1.1" xmlns="http://www.w3.org/2000/svg" xmlns:xlink="http://www.w3.org/1999/xlink" x="0px" y="0px"
	 viewBox="0 0 1366 768" style="enable-background:new 0 0 1366 768;" xml:space="preserve">
<style type="text/css">
	.st0{fill:#FFFFFF;stroke:#BABABA;stroke-miterlimit:10;}
	.st1{fill:#FFFFFF;}
	.st2{fill:#9F3843;}
	.st3{fill:#502022;}
	.st4{fill:#B3B3B3;}
	.st5{fill:#D0E0FF;}
	.st6{fill:#8BB8FF;}
	.st7{fill:#CA515B;}
	.st8{fill:none;}
	.st9{fill:none;stroke:#BABABA;stroke-miterlimit:10;}
</style>
<g id="Layer_1">
</g>
<g id="Layer_2">
	<path class="st0" d="M363.5,767.5"/>
	<g id="XMLID_1_">
		<g>
			<path class="st1" d="M519.96,233.04L388.5,142.5l-0.6,0.95l-15.28-10.37c-1.47-1.03-2.08-3.32-1.97-5.56
				c0.14-3.02,1.58-5.94,3.96-5.47l779.38,152.8c8.93,1.75,17.44,5.17,25.1,10.08l79.48,50.95c5.95,3.81,2.47,13.05-4.52,11.98
				l-11.55-1.76v-0.6l-51.72-7.28l-0.31-0.05l-6.37-0.89L608,256.15l-46.9-6.61l-10.1-1.42l-11.5-1.62L519.96,233.04z"/>
			<path class="st1" d="M389.8,293.78c5.95,6.34,1.46,16.72-7.24,16.72H363.5v1l-99,2l-69-67l-20.12-19.01
				c-1.42-1.34-2.25-2.94-2.58-4.59c-0.99-4.98,2.63-10.4,8.54-10.4h120.72c4.2,0,8.3,1,11.97,2.87c2.7,1.37,5.18,3.21,7.3,5.47
				l10.81,11.51L389.8,293.78z"/>
			<path class="st2" d="M1184.47,654.18L1184,338l0.1-0.72l6.37,0.89l0.31,0.05l51.72,7.88v273.98c0,16.66-12.71,30.56-29.31,32.05
				l-28.67,2.58L1184.47,654.18z"/>
			<polygon class="st1" points="1242.5,345.5 1242.5,346.1 1190.78,338.22 			"/>
			<polygon class="st2" points="1184.47,654.18 1184.52,654.71 560.92,710.76 560.89,710.44 560.89,251.06 561.1,249.54 608,256.15 
				1184.1,337.28 1184,338 			"/>
			<path class="st3" d="M561.1,249.54l-0.21,1.52v459.38l0.03,0.32L363.5,728.5v-79v-338v-1h19.06c8.7,0,13.19-10.38,7.24-16.72
				l-57.66-61.43l55.76-88.9l132.06,89.59l19.54,13.46l11.5,1.62L561.1,249.54z"/>
			<polygon class="st1" points="519.96,233.04 387.9,143.45 388.5,142.5 			"/>
			<path class="st4" d="M387.9,143.45l-55.76,88.9l-10.81-11.51c-2.12-2.26-4.6-4.1-7.3-5.47l0.47-0.87l55-87l1.15,0.02
				c-0.11,2.24,0.5,4.53,1.97,5.56L387.9,143.45z"/>
			<polygon class="st2" points="363.5,649.5 363.5,728.5 264.5,744.18 264.5,649.5 			"/>
			<polygon class="st5" points="363.5,311.5 363.5,649.5 264.5,649.5 264.5,616.15 264.5,313.5 			"/>
			<path class="st3" d="M264.5,649.5v94.68l-2,0.32l-41-4l-81.61-14.36c-15.26-2.68-26.39-15.94-26.39-31.43V430.02
				c0-23.74,6.02-47.1,17.49-67.87c0.1-0.18,0.2-0.36,0.3-0.54L195.5,246.5l69,67l-29.08,21.46c-8.12,6-12.92,15.5-12.92,25.6
				v274.12c0,10.99,9.73,19.43,20.61,17.88L264.5,649.5z"/>
			<path class="st6" d="M264.5,616.15v33.35l-21.39,3.06c-10.88,1.55-20.61-6.89-20.61-17.88V360.56c0-10.1,4.8-19.6,12.92-25.6
				l29.08-21.46V616.15z"/>
			<path class="st4" d="M195.5,246.5l-64.21,115.11c-0.1,0.18-0.2,0.36-0.3,0.54l-15.27,0.12c-13.02,0.11-21.64-13.47-16.01-25.21
				L170.5,223.5l2.3-0.6c0.33,1.65,1.16,3.25,2.58,4.59L195.5,246.5z"/>
		</g>
		<g>
		</g>
	</g>
	<polyline class="st3" points="754.81,691.34 754.81,276.37 730.9,273 730.9,693.49 	"/>
	<polygon class="st7" points="858.46,290.97 858.46,683.32 754.5,692.5 754.5,276.5 	"/>
	<polyline class="st3" points="960.46,673.86 960.46,306.33 980.33,308.5 980.33,672.07 	"/>
	<polygon class="st7" points="1042.07,666.53 1042.07,316.82 980.5,308.5 980.5,672.5 	"/>
	<polyline class="st3" points="1120.98,659.43 1120.98,328.98 1137.58,330.5 1137.58,657.94 	"/>
	<path class="st0" d="M1148.58,330.98"/>
	<polygon class="st7" points="1184.5,654.5 1184.5,337.5 1137.5,330.5 1137.5,658.5 	"/>
	<path class="st6" d="M130.5,427.93v41.44c0,3.05,3.4,4.87,5.93,3.17l7.37-4.91c1.06-0.71,1.7-1.9,1.7-3.17v-39.97
		c0-2.79-2.9-4.64-5.43-3.46l-7.37,3.44C131.36,425.1,130.5,426.45,130.5,427.93z"/>
	<path class="st6" d="M130.5,516.31v40.82c0,3.43,3.56,5.7,6.67,4.25l5.62-2.62c1.65-0.77,2.71-2.43,2.71-4.25v-41.2
		c0-3.54-3.77-5.81-6.9-4.14l-5.62,3C131.45,512.99,130.5,514.58,130.5,516.31z"/>
	<path class="st6" d="M130.5,597.43v34.13c0,2.72,2.21,4.93,4.93,4.93h5.13c2.72,0,4.93-2.21,4.93-4.93v-34.13
		c0-2.72-2.21-4.93-4.93-4.93h-5.13C132.71,592.5,130.5,594.71,130.5,597.43z"/>
	<path class="st5" d="M597,305.6v41.43c0,4.4,3.32,8.09,7.7,8.55l18.3,1.93c5.08,0.53,9.5-3.45,9.5-8.55v-39.5
		c0-4.07-2.85-7.58-6.83-8.41l-18.3-3.85C602.02,296.06,597,300.13,597,305.6z"/>
	<path class="st5" d="M670.5,317.45v35.56c0,4.53,3.42,8.32,7.92,8.78l15.35,1.58c5.21,0.54,9.73-3.55,9.73-8.78v-33.98
		c0-4.19-2.94-7.8-7.05-8.65l-15.35-3.16C675.63,307.68,670.5,311.86,670.5,317.45z"/>
	<path class="st5" d="M597,584.23v35.72c0,6.63,5.64,11.86,12.25,11.37l13.61-1.02c5.99-0.45,10.6-5.47,10.55-11.47l-0.31-33.77
		c-0.05-5.95-4.67-10.85-10.6-11.27l-13.3-0.93C602.6,572.39,597,577.62,597,584.23z"/>
	<path class="st5" d="M670.5,588.2v31.92c0,6.33,5.5,11.26,11.79,10.58l11.72-1.28c5.4-0.59,9.48-5.15,9.48-10.58v-30.71
		c0-5.9-4.8-10.68-10.71-10.64l-11.72,0.07C675.22,577.6,670.5,582.35,670.5,588.2z"/>
	<path class="st5" d="M597,392.6v41.43c0,4.4,3.32,8.09,7.7,8.55l18.3,1.93c5.08,0.53,9.5-3.45,9.5-8.55v-39.5
		c0-4.07-2.85-7.58-6.83-8.41l-18.3-3.85C602.02,383.06,597,387.13,597,392.6z"/>
	<path class="st5" d="M670.5,404.45v35.56c0,4.53,3.42,8.32,7.92,8.78l15.35,1.58c5.21,0.54,9.73-3.55,9.73-8.78v-33.98
		c0-4.19-2.94-7.8-7.05-8.65l-15.35-3.16C675.63,394.68,670.5,398.86,670.5,404.45z"/>
	<path class="st5" d="M597,485.6v41.43c0,4.4,3.32,8.09,7.7,8.55l18.3,1.93c5.08,0.53,9.5-3.45,9.5-8.55v-39.5
		c0-4.07-2.85-7.58-6.83-8.41l-18.3-3.85C602.02,476.06,597,480.13,597,485.6z"/>
	<path class="st5" d="M670.5,497.45v35.56c0,4.53,3.42,8.32,7.92,8.78l15.35,1.58c5.21,0.54,9.73-3.55,9.73-8.78v-33.98
		c0-4.19-2.94-7.8-7.05-8.65l-15.35-3.16C675.63,487.68,670.5,491.86,670.5,497.45z"/>
	<path class="st5" d="M881,357.73v32.46c0,3.45,2.12,6.34,4.92,6.7l11.69,1.51c3.24,0.42,6.06-2.7,6.06-6.7v-30.95
		c0-3.19-1.82-5.94-4.36-6.59l-11.69-3.02C884.21,350.26,881,353.46,881,357.73z"/>
	<path class="st5" d="M927.93,367.03v27.86c0,3.55,2.18,6.52,5.06,6.88l9.8,1.24c3.32,0.42,6.21-2.78,6.21-6.88V369.5
		c0-3.28-1.88-6.11-4.5-6.78l-9.8-2.48C931.21,359.37,927.93,362.65,927.93,367.03z"/>
	<path class="st5" d="M881,576.07v27.99c0,5.2,3.6,9.3,7.82,8.91l8.69-0.8c3.82-0.35,6.77-4.28,6.73-8.99l-0.2-26.46
		c-0.03-4.66-2.98-8.5-6.77-8.83l-8.49-0.73C884.58,566.8,881,570.9,881,576.07z"/>
	<path class="st5" d="M927.93,579.19v25.01c0,4.96,3.51,8.83,7.53,8.29l7.48-1c3.45-0.46,6.06-4.03,6.06-8.29v-24.06
		c0-4.62-3.07-8.37-6.84-8.34l-7.48,0.06C930.95,570.88,927.93,574.6,927.93,579.19z"/>
	<path class="st5" d="M881,425.91v32.46c0,3.45,2.12,6.34,4.92,6.7l11.69,1.51c3.24,0.42,6.06-2.7,6.06-6.7v-30.95
		c0-3.19-1.82-5.94-4.36-6.59l-11.69-3.02C884.21,418.43,881,421.63,881,425.91z"/>
	<path class="st5" d="M927.93,435.2v27.86c0,3.55,2.18,6.52,5.06,6.88l9.8,1.24c3.32,0.42,6.21-2.78,6.21-6.88v-26.63
		c0-3.28-1.88-6.11-4.5-6.78l-9.8-2.48C931.21,427.54,927.93,430.82,927.93,435.2z"/>
	<path class="st5" d="M881,498.78v32.46c0,3.45,2.12,6.34,4.92,6.7l11.69,1.51c3.24,0.42,6.06-2.7,6.06-6.7V501.8
		c0-3.19-1.82-5.94-4.36-6.59l-11.69-3.02C884.21,491.31,881,494.51,881,498.78z"/>
	<path class="st5" d="M927.93,508.08v27.86c0,3.55,2.18,6.52,5.06,6.88l9.8,1.24c3.32,0.42,6.21-2.78,6.21-6.88v-26.63
		c0-3.28-1.88-6.11-4.5-6.78l-9.8-2.48C931.21,500.42,927.93,503.7,927.93,508.08z"/>
	<path class="st5" d="M1062,380.12v29.49c0,3.13,1.59,5.76,3.69,6.09l8.77,1.37c2.43,0.38,4.55-2.45,4.55-6.09v-28.12
		c0-2.89-1.36-5.39-3.27-5.99l-8.77-2.74C1064.41,373.33,1062,376.24,1062,380.12z"/>
	<path class="st6" d="M1097.2,388.56v25.31c0,3.22,1.64,5.92,3.79,6.25l7.35,1.12c2.49,0.38,4.66-2.53,4.66-6.25v-24.19
		c0-2.98-1.41-5.55-3.37-6.15l-7.35-2.25C1099.65,381.61,1097.2,384.58,1097.2,388.56z"/>
	<path class="st5" d="M1062,578.46v25.43c0,4.72,2.7,8.44,5.87,8.09l6.52-0.73c2.87-0.32,5.08-3.89,5.05-8.17l-0.15-24.04
		c-0.03-4.23-2.24-7.72-5.08-8.02l-6.37-0.67C1064.68,570.03,1062,573.75,1062,578.46z"/>
	<path class="st6" d="M1097.2,581.28V604c0,4.51,2.63,8.02,5.65,7.53l5.61-0.91c2.58-0.42,4.54-3.66,4.54-7.53v-21.86
		c0-4.2-2.3-7.6-5.13-7.57l-5.61,0.05C1099.46,573.74,1097.2,577.12,1097.2,581.28z"/>
	<path class="st5" d="M1062,442.05v29.49c0,3.13,1.59,5.76,3.69,6.09l8.77,1.37c2.43,0.38,4.55-2.45,4.55-6.09v-28.12
		c0-2.89-1.36-5.39-3.27-5.99l-8.77-2.74C1064.41,435.26,1062,438.16,1062,442.05z"/>
	<path class="st6" d="M1097.2,450.49v25.31c0,3.22,1.64,5.92,3.79,6.25l7.35,1.12c2.49,0.38,4.66-2.53,4.66-6.25v-24.19
		c0-2.98-1.41-5.55-3.37-6.15l-7.35-2.25C1099.65,443.54,1097.2,446.51,1097.2,450.49z"/>
	<path class="st5" d="M1062,508.25v29.49c0,3.13,1.59,5.76,3.69,6.09l8.77,1.37c2.43,0.38,4.55-2.45,4.55-6.09v-28.12
		c0-2.89-1.36-5.39-3.27-5.99l-8.77-2.74C1064.41,501.46,1062,504.36,1062,508.25z"/>
	<path class="st6" d="M1097.2,516.69V542c0,3.22,1.64,5.92,3.79,6.25l7.35,1.12c2.49,0.38,4.66-2.53,4.66-6.25v-24.19
		c0-2.98-1.41-5.55-3.37-6.15l-7.35-2.25C1099.65,509.73,1097.2,512.71,1097.2,516.69z"/>
	<path class="st6" d="M1197,406.96v23.91c0,2.54,0.97,4.67,2.24,4.94l5.33,1.11c1.48,0.31,2.76-1.99,2.76-4.94v-22.8
		c0-2.35,0.17-4.37-0.99-4.86l-5.33-2.22C1199.46,401.46,1197,403.81,1197,406.96z"/>
	<path class="st6" d="M1218.39,413.81v20.53c0,2.61,1,4.8,2.31,5.07l4.47,0.91c1.52,0.31,2.83-2.05,2.83-5.07v-19.61
		c0-2.42-0.86-4.5-2.05-4.99l-4.47-1.82C1219.89,408.17,1218.39,410.58,1218.39,413.81z"/>
	<path class="st6" d="M1197,567.8v20.62c0,3.83,1.64,6.85,3.57,6.56l3.96-0.59c1.74-0.26,3.09-3.16,3.07-6.62l-0.09-19.49
		c-0.02-3.43-1.36-6.26-3.09-6.5l-3.87-0.54C1198.63,560.97,1197,563.98,1197,567.8z"/>
	<path class="st6" d="M1218.39,570.09v18.42c0,3.66,1.6,6.5,3.43,6.1l3.41-0.74c1.57-0.34,2.76-2.97,2.76-6.1v-17.73
		c0-3.41-1.4-6.16-3.12-6.14l-3.41,0.04C1219.77,563.97,1218.39,566.71,1218.39,570.09z"/>
	<path class="st6" d="M1197,457.18v23.91c0,2.54,0.97,4.67,2.24,4.94l5.33,1.11c1.48,0.31,2.76-1.99,2.76-4.94v-22.8
		c0-2.35-0.83-4.37-1.99-4.86l-5.33-2.22C1198.46,451.68,1197,454.03,1197,457.18z"/>
	<path class="st6" d="M1218.39,464.03v20.53c0,2.61,1,4.8,2.31,5.07l4.47,0.91c1.52,0.31,2.83-2.05,2.83-5.07v-19.61
		c0-2.42-0.86-4.5-2.05-4.99l-4.47-1.82C1219.89,458.39,1218.39,460.8,1218.39,464.03z"/>
	<path class="st6" d="M1197,510.87v23.91c0,2.54,0.97,4.67,2.24,4.94l5.33,1.11c1.48,0.31,2.76-1.99,2.76-4.94v-22.8
		c0-2.35-0.83-4.37-1.99-4.86l-5.33-2.22C1198.46,505.36,1197,507.71,1197,510.87z"/>
	<path class="st6" d="M1218.39,517.71v20.53c0,2.61,1,4.8,2.31,5.07l4.47,0.91c1.52,0.31,2.83-2.05,2.83-5.07v-19.61
		c0-2.42-0.86-4.5-2.05-4.99l-4.47-1.82C1219.89,512.07,1218.39,514.48,1218.39,517.71z"/>
	<path class="st5" d="M997.79,370.35v30.6c0,3.25,3.07,5.98,7.11,6.32l16.91,1.42c4.69,0.39,8.78-2.55,8.78-6.32V373.2
		c0-3-2.63-5.6-6.31-6.22l-16.91-2.85C1002.44,363.31,997.79,366.32,997.79,370.35z"/>
	<path class="st5" d="M997.79,576.19v26.39c0,4.9,5.21,8.76,11.32,8.4l12.57-0.75c5.53-0.33,9.8-4.04,9.75-8.47l-0.28-24.95
		c-0.05-4.39-4.31-8.02-9.79-8.32l-12.29-0.69C1002.97,567.45,997.79,571.31,997.79,576.19z"/>
	<path class="st5" d="M997.79,434.62v30.6c0,3.25,3.07,5.98,7.11,6.32l16.91,1.42c4.69,0.39,8.78-2.55,8.78-6.32v-29.18
		c0-3-2.63-5.6-6.31-6.22l-16.91-2.85C1002.44,427.58,997.79,430.59,997.79,434.62z"/>
	<path class="st5" d="M997.79,503.33v30.6c0,3.25,3.07,5.98,7.11,6.32l16.91,1.42c4.69,0.39,8.78-2.55,8.78-6.32v-29.18
		c0-3-2.63-5.6-6.31-6.22l-16.91-2.85C1002.44,496.28,997.79,499.29,997.79,503.33z"/>
	<path class="st5" d="M779,329.41v33.86c0,4.31,6.64,7.92,15.37,8.36l29.76,1.5c10.09,0.51,18.87-3.38,18.87-8.36v-32.36
		c0-3.99-5.71-7.43-13.67-8.23l-29.76-3.01C788.95,320.1,779,324.09,779,329.41z"/>
	<path class="st5" d="M779,587.23v30.39c0,6.03,10.66,10.73,22.87,10.07l22.73-1.22c10.47-0.56,18.39-4.9,18.39-10.07v-29.24
		c0-5.62-9.32-10.17-20.76-10.13l-22.73,0.07C788.16,577.13,779,581.66,779,587.23z"/>
	<path class="st5" d="M779,412.26v33.86c0,4.31,6.64,7.92,15.37,8.36l29.76,1.5c10.09,0.51,18.87-3.38,18.87-8.36v-32.36
		c0-3.99-5.71-7.43-13.67-8.23l-29.76-3.01C788.95,402.95,779,406.93,779,412.26z"/>
	<path class="st5" d="M779,500.82v33.86c0,4.31,6.64,7.92,15.37,8.36l29.76,1.5c10.09,0.51,18.87-3.38,18.87-8.36v-32.36
		c0-3.99-5.71-7.43-13.67-8.23l-29.76-3.01C788.95,491.51,779,495.49,779,500.82z"/>
	<path class="st5" d="M1153.23,399.7v22.96c0,2.92,2.28,5.37,5.28,5.67l10.23,1.02c3.47,0.35,6.49-2.29,6.49-5.67v-21.94
		c0-2.7-1.96-5.04-4.7-5.58l-10.23-2.04C1156.65,393.39,1153.23,396.09,1153.23,399.7z"/>
	<path class="st5" d="M1153.23,574.52v20.61c0,4.09,3.67,7.27,7.86,6.83l7.82-0.83c3.6-0.38,6.32-3.32,6.32-6.83v-19.83
		c0-3.81-3.2-6.89-7.14-6.87l-7.82,0.05C1156.38,567.68,1153.23,570.74,1153.23,574.52z"/>
	<path class="st5" d="M1153.23,455.88v22.96c0,2.92,2.28,5.37,5.28,5.67l10.23,1.02c3.47,0.35,6.49-2.29,6.49-5.67v-21.94
		c0-2.7-1.96-5.04-4.7-5.58l-10.23-2.04C1156.65,449.57,1153.23,452.27,1153.23,455.88z"/>
	<path class="st5" d="M1153.23,515.93v22.96c0,2.92,2.28,5.37,5.28,5.67l10.23,1.02c3.47,0.35,6.49-2.29,6.49-5.67v-21.94
		c0-2.7-1.96-5.04-4.7-5.58l-10.23-2.04C1156.65,509.62,1153.23,512.32,1153.23,515.93z"/>
	<path class="st0" d="M858.46,321"/>
	<polygon class="st8" points="222.5,403.85 264.5,381.58 363.5,381.58 363.5,398.45 264.5,398.45 222.5,417.1 	"/>
	<path class="st8" d="M271,64"/>
	<polygon class="st1" points="222.5,403.5 264.5,381.5 363.5,381.5 363.5,399.5 264.5,399.5 222.5,417.5 	"/>
	<polygon class="st1" points="221.5,488.5 263.5,466.5 362.5,466.5 362.5,484.5 263.5,484.5 221.5,502.5 	"/>
	<polygon class="st1" points="223.5,583.5 265.5,561.5 363.5,561.5 363.5,579.5 265.5,579.5 223.5,597.5 	"/>
	<line class="st9" x1="265" y1="382" x2="265" y2="400"/>
	<line class="st9" x1="264.5" y1="466.5" x2="264.5" y2="484.5"/>
	<line class="st9" x1="264.5" y1="561.5" x2="264.5" y2="579.5"/>
</g>
</svg>
