<?xml version="1.0" encoding="utf-8"?>
<!-- Generator: Adobe Illustrator 23.0.3, SVG Export Plug-In . SVG Version: 6.00 Build 0)  -->
<svg version="1.1" id="Layer_1" xmlns="http://www.w3.org/2000/svg" xmlns:xlink="http://www.w3.org/1999/xlink" x="0px" y="0px"
	 viewBox="0 0 1366 768" style="enable-background:new 0 0 1366 768;" xml:space="preserve">
<style type="text/css">
	.st0{fill:#FFFFFF;stroke:#BABABA;stroke-miterlimit:10;}
	.st1{fill:#FFFFFF;}
	.st2{fill:#9F3843;}
	.st3{fill:#502022;}
	.st4{fill:#B3B3B3;}
	.st5{fill:#D0E0FF;}
	.st6{fill:#8BB8FF;}
	.st7{fill:#CA515B;}
	.st8{fill:none;}
	.st9{fill:none;stroke:#BABABA;stroke-miterlimit:10;}
</style>
<g>
	<path class="st0" d="M363.5,786.5"/>
	<g id="XMLID_1_">
		<g>
			<path class="st1" d="M524.7,247.8l-129-94.1l-0.6,0.9l-15-10.8c-1.4-1.1-2-3.4-1.8-5.6c0.2-3,1.7-5.9,4.1-5.4l775,173.9
				c8.9,2,17.3,5.6,24.8,10.8l78.1,53.1c5.8,4,2.1,13.1-4.8,11.9l-11.5-2.1v-0.6l-51.5-8.7l-0.3-0.1l-6.3-1.1L612,273.3l-46.7-7.9
				l-10.1-1.7l-11.5-1.9L524.7,247.8z"/>
			<path class="st1" d="M392.9,305c5.8,6.5,1,16.8-7.7,16.5l-19.1-0.5v1l-99-0.7L200,252.4l-19.6-19.5c-1.4-1.4-2.2-3-2.5-4.7
				c-0.9-5,2.9-10.3,8.8-10.2l120.7,3.3c4.2,0.1,8.3,1.2,11.9,3.2c2.7,1.4,5.1,3.3,7.1,5.7l10.5,11.8L392.9,305z"/>
			<path class="st2" d="M1179.4,705.2l6.2-334.5l0.1-0.7l6.3,1.1l0.3,0.1l51.5,9.3l-7.4,273.9c-0.5,16.7-11.6,48.6-28.3,49.6
				l-28.7,1.8L1179.4,705.2z"/>
			<polygon class="st1" points="1243.9,379.8 1243.9,380.4 1192.4,371.1 			"/>
			<polygon class="st2" points="1179.4,705.2 1179.5,705.7 554.6,744.8 554.5,744.5 565.1,266.9 565.3,265.4 612,273.3 1185.7,370 
				1185.6,370.7 			"/>
			<path class="st3" d="M565.3,265.4l-0.3,1.5l-10.5,477.6v0.3l-199.7-6l2.1-79l9.2-337.9v-1l19.1,0.5c8.7,0.2,13.5-10,7.7-16.5
				l-56-63l58.1-87.4l129.6,93.1l19.2,14l11.5,1.9L565.3,265.4z"/>
			<polygon class="st1" points="524.7,247.8 395.1,154.6 395.7,153.7 			"/>
			<path class="st4" d="M395.1,154.6L336.9,242l-10.5-11.8c-2.1-2.3-4.5-4.2-7.1-5.7l0.5-0.9l57.3-85.5l1.1,0.1
				c-0.2,2.2,0.4,4.5,1.8,5.6L395.1,154.6z"/>
			<polygon class="st2" points="357,659.8 354.8,738.8 255.4,751.8 258,657.2 			"/>
			<polygon class="st5" points="366.1,322 357,659.8 258,657.2 258.9,623.8 267.1,321.3 			"/>
			<path class="st3" d="M258,657.2l-2.6,94.6l-2,0.3l-40.9-5.1l-81.2-16.6c-15.2-3.1-25.9-16.6-25.5-32.1l7.2-264.6
				c0.6-23.7,7.3-46.9,19.3-67.4c0.1-0.2,0.2-0.4,0.3-0.5L200,252.4l67.2,68.8l-29.7,20.7c-8.3,5.8-13.3,15.1-13.6,25.2l-7.4,274
				c-0.3,11,9.2,19.7,20.1,18.4L258,657.2z"/>
			<path class="st6" d="M258.9,623.8l-0.9,33.3l-21.5,2.5c-10.9,1.3-20.4-7.4-20.1-18.4l7.4-274c0.3-10.1,5.3-19.5,13.6-25.2
				l29.7-20.7L258.9,623.8z"/>
			<path class="st4" d="M200,252.4l-67.3,113.3c-0.1,0.2-0.2,0.4-0.3,0.5l-15.3-0.3c-13-0.2-21.3-14.1-15.3-25.6l73.8-111.6l2.3-0.5
				c0.3,1.7,1.1,3.3,2.5,4.7L200,252.4z"/>
		</g>
	</g>
	<polyline class="st3" points="748.9,730.7 758.2,297.4 734.4,293.4 724.9,732.2 	"/>
	<polygon class="st7" points="861.5,314.9 852.7,725.5 748.6,731.8 757.9,297.6 	"/>
	<polyline class="st3" points="955,718.8 963,333 982.8,335.7 974.9,717.5 	"/>
	<polygon class="st7" points="1036.7,713.6 1044.3,345.7 983,335.7 975,717.9 	"/>
	<polyline class="st3" points="1115.8,708.7 1122.9,360 1139.4,361.9 1132.4,707.6 	"/>
	<path class="st0" d="M1150.4,362.7"/>
	<polygon class="st7" points="1179.4,705.5 1186.1,370.2 1139.3,361.9 1132.3,708.2 	"/>
	<path class="st6" d="M130.1,432l-1.1,41.4c-0.1,3,3.3,5,5.8,3.3l7.5-4.7c1.1-0.7,1.8-1.9,1.8-3.1l1.1-40c0.1-2.8-2.8-4.7-5.3-3.6
		l-7.5,3.2C131,429.2,130.1,430.6,130.1,432z"/>
	<path class="st6" d="M127.7,520.4l-1.1,40.8c-0.1,3.4,3.4,5.8,6.6,4.4l5.7-2.5c1.7-0.7,2.8-2.4,2.8-4.2l1.1-41.2
		c0.1-3.5-3.6-5.9-6.8-4.3l-5.7,2.8C128.7,517.1,127.7,518.7,127.7,520.4z"/>
	<path class="st6" d="M125.5,601.5l-0.9,34.1c-0.1,2.7,2.1,5,4.8,5.1l5.1,0.1c2.7,0.1,5-2.1,5.1-4.8l0.9-34.1c0.1-2.7-2.1-5-4.8-5.1
		l-5.1-0.1C127.8,596.6,125.5,598.8,125.5,601.5z"/>
	<path class="st5" d="M599.7,322.4l-1.1,41.4c-0.1,4.4,3.1,8.2,7.5,8.8l18.2,2.4c5.1,0.7,9.6-3.2,9.7-8.3l1.1-39.5
		c0.1-4.1-2.6-7.7-6.6-8.6l-18.2-4.3C605,313,599.9,316.9,599.7,322.4z"/>
	<path class="st5" d="M672.9,336.2l-1,35.5c-0.1,4.5,3.2,8.4,7.7,9l15.3,2c5.2,0.7,9.8-3.3,10-8.5l0.9-34c0.1-4.2-2.7-7.9-6.8-8.8
		l-15.3-3.6C678.2,326.6,673,330.6,672.9,336.2z"/>
	<path class="st5" d="M592.2,600.9l-1,35.7c-0.2,6.6,5.3,12,11.9,11.7l13.6-0.7c6-0.3,10.7-5.2,10.9-11.2l0.6-33.8
		c0.1-5.9-4.4-11-10.3-11.6l-13.3-1.3C598.1,589.2,592.3,594.3,592.2,600.9z"/>
	<path class="st5" d="M665.5,606.9l-0.9,31.9c-0.2,6.3,5.2,11.4,11.5,10.9l11.8-1c5.4-0.4,9.6-4.9,9.8-10.3l0.8-30.7
		c0.2-5.9-4.5-10.8-10.4-10.9l-11.7-0.2C670.5,596.4,665.7,601,665.5,606.9z"/>
	<path class="st5" d="M597.3,409.4l-1.1,41.4c-0.1,4.4,3.1,8.2,7.5,8.8l18.2,2.4c5.1,0.7,9.6-3.2,9.7-8.3l1.1-39.5
		c0.1-4.1-2.6-7.7-6.6-8.6l-18.2-4.3C602.6,400,597.5,403.9,597.3,409.4z"/>
	<path class="st5" d="M670.5,423.2l-1,35.5c-0.1,4.5,3.2,8.4,7.7,9l15.3,2c5.2,0.7,9.8-3.3,10-8.5l0.9-34c0.1-4.2-2.7-7.9-6.8-8.8
		l-15.3-3.6C675.9,413.6,670.6,417.6,670.5,423.2z"/>
	<path class="st5" d="M594.8,502.3l-1.1,41.4c-0.1,4.4,3.1,8.2,7.5,8.8l18.2,2.4c5.1,0.7,9.6-3.2,9.7-8.3l1.1-39.5
		c0.1-4.1-2.6-7.7-6.6-8.6l-18.2-4.3C600.1,492.9,595,496.9,594.8,502.3z"/>
	<path class="st5" d="M668,516.2l-1,35.5c-0.1,4.5,3.2,8.4,7.7,9l15.3,2c5.2,0.7,9.8-3.3,10-8.5l0.9-34c0.1-4.2-2.7-7.9-6.8-8.8
		l-15.3-3.6C673.4,506.5,668.1,510.6,668,516.2z"/>
	<path class="st5" d="M882.2,382.2l-0.9,32.4c-0.1,3.4,1.9,6.4,4.7,6.8l11.6,1.8c3.2,0.5,6.1-2.5,6.2-6.5l0.8-30.9
		c0.1-3.2-1.7-6-4.2-6.7l-11.6-3.3C885.6,374.8,882.3,377.9,882.2,382.2z"/>
	<path class="st5" d="M928.8,392.8l-0.8,27.8c-0.1,3.5,2,6.6,4.9,7l9.8,1.5c3.3,0.5,6.3-2.6,6.4-6.7l0.7-26.6
		c0.1-3.3-1.7-6.2-4.3-6.9l-9.7-2.7C932.3,385.2,929,388.4,928.8,392.8z"/>
	<path class="st5" d="M876.3,600.5l-0.8,28c-0.1,5.2,3.3,9.4,7.6,9.1l8.7-0.6c3.8-0.2,6.9-4.1,7-8.8l0.5-26.5c0.1-4.7-2.7-8.6-6.5-9
		l-8.5-1C880.1,591.3,876.4,595.3,876.3,600.5z"/>
	<path class="st5" d="M923.1,604.8l-0.7,25c-0.1,5,3.3,8.9,7.3,8.5l7.5-0.8c3.5-0.4,6.2-3.9,6.3-8.1l0.7-24.1
		c0.1-4.6-2.8-8.5-6.6-8.5l-7.5-0.1C926.3,596.6,923.2,600.3,923.1,604.8z"/>
	<path class="st5" d="M880.3,450.4l-0.9,32.4c-0.1,3.4,1.9,6.4,4.7,6.8l11.6,1.8c3.2,0.5,6.1-2.5,6.2-6.5l0.8-30.9
		c0.1-3.2-1.7-6-4.2-6.7l-11.6-3.3C883.8,443,880.5,446.1,880.3,450.4z"/>
	<path class="st5" d="M927,460.9l-0.8,27.8c-0.1,3.5,2,6.6,4.9,7l9.8,1.5c3.3,0.5,6.3-2.6,6.4-6.7L948,464c0.1-3.3-1.7-6.2-4.3-6.9
		l-9.7-2.7C930.5,453.3,927.1,456.5,927,460.9z"/>
	<path class="st5" d="M878.4,523.2l-0.9,32.4c-0.1,3.4,1.9,6.4,4.7,6.8l11.6,1.8c3.2,0.5,6.1-2.5,6.2-6.5l0.8-30.9
		c0.1-3.2-1.7-6-4.2-6.7l-11.6-3.3C881.8,515.8,878.5,518.9,878.4,523.2z"/>
	<path class="st5" d="M925,533.8l-0.8,27.8c-0.1,3.5,2,6.6,4.9,7l9.8,1.5c3.3,0.5,6.3-2.6,6.4-6.7l0.7-26.6c0.1-3.3-1.7-6.2-4.3-6.9
		l-9.7-2.7C928.5,526.2,925.1,529.4,925,533.8z"/>
	<path class="st5" d="M1062.5,409.5l-0.8,29.5c-0.1,3.1,1.4,5.8,3.5,6.2l8.7,1.6c2.4,0.4,4.6-2.3,4.7-6l0.8-28.1
		c0.1-2.9-1.2-5.4-3.1-6.1l-8.7-3C1065.1,402.8,1062.6,405.6,1062.5,409.5z"/>
	<path class="st6" d="M1097.5,418.9l-0.7,25.3c-0.1,3.2,1.5,6,3.6,6.4l7.3,1.3c2.5,0.4,4.7-2.4,4.8-6.1l0.7-24.2
		c0.1-3-1.3-5.6-3.2-6.2l-7.3-2.4C1100.1,412,1097.6,414.9,1097.5,418.9z"/>
	<path class="st5" d="M1057.1,607.7l-0.7,25.4c-0.1,4.7,2.5,8.5,5.6,8.2l6.5-0.6c2.9-0.2,5.2-3.8,5.3-8l0.5-24
		c0.1-4.2-2-7.8-4.9-8.2l-6.3-0.8C1060,599.4,1057.3,603,1057.1,607.7z"/>
	<path class="st6" d="M1092.3,611.5l-0.6,22.7c-0.1,4.5,2.4,8.1,5.4,7.7l5.6-0.8c2.6-0.3,4.6-3.5,4.7-7.4l0.6-21.9
		c0.1-4.2-2.1-7.7-4.9-7.7l-5.6-0.1C1094.7,604,1092.4,607.4,1092.3,611.5z"/>
	<path class="st5" d="M1060.8,471.4l-0.8,29.5c-0.1,3.1,1.4,5.8,3.5,6.2l8.7,1.6c2.4,0.4,4.6-2.3,4.7-6l0.8-28.1
		c0.1-2.9-1.2-5.4-3.1-6.1l-8.7-3C1063.4,464.7,1060.9,467.5,1060.8,471.4z"/>
	<path class="st6" d="M1095.8,480.8l-0.7,25.3c-0.1,3.2,1.5,6,3.6,6.4l7.3,1.3c2.5,0.4,4.7-2.4,4.8-6.1l0.7-24.2
		c0.1-3-1.3-5.6-3.2-6.2l-7.3-2.4C1098.4,473.9,1095.9,476.8,1095.8,480.8z"/>
	<path class="st5" d="M1059,537.6l-0.8,29.5c-0.1,3.1,1.4,5.8,3.5,6.2l8.7,1.6c2.4,0.4,4.6-2.3,4.7-6l0.8-28.1
		c0.1-2.9-1.2-5.4-3.1-6.1l-8.7-3C1061.6,530.8,1059.1,533.7,1059,537.6z"/>
	<path class="st6" d="M1094,547l-0.7,25.3c-0.1,3.2,1.5,6,3.6,6.4l7.3,1.3c2.5,0.4,4.7-2.4,4.8-6.1l0.7-24.2c0.1-3-1.3-5.6-3.2-6.2
		l-7.3-2.4C1096.6,540.1,1094.1,543,1094,547z"/>
	<path class="st6" d="M1196.7,440l-0.6,23.9c-0.1,2.5,0.8,4.7,2.1,5l5.3,1.3c1.5,0.3,2.8-1.9,2.9-4.9l0.6-22.8
		c0.1-2.3,0.3-4.4-0.9-4.9l-5.3-2.4C1199.3,434.5,1196.8,436.8,1196.7,440z"/>
	<path class="st6" d="M1217.9,447.4l-0.6,20.5c-0.1,2.6,0.9,4.8,2.2,5.1l4.4,1c1.5,0.4,2.9-2,3-5l0.5-19.6c0.1-2.4-0.7-4.5-1.9-5
		l-4.4-1.9C1219.6,441.8,1218,444.2,1217.9,447.4z"/>
	<path class="st6" d="M1192.4,600.7l-0.6,20.6c-0.1,3.8,1.5,6.9,3.4,6.7l4-0.5c1.7-0.2,3.2-3.1,3.2-6.5l0.4-19.5
		c0.1-3.4-1.2-6.3-2.9-6.6l-3.9-0.6C1194.2,594,1192.5,596.9,1192.4,600.7z"/>
	<path class="st6" d="M1213.7,603.6l-0.5,18.4c-0.1,3.7,1.4,6.5,3.3,6.2l3.4-0.6c1.6-0.3,2.8-2.9,2.9-6l0.5-17.7
		c0.1-3.4-1.2-6.2-3-6.2l-3.4-0.1C1215.2,597.5,1213.8,600.2,1213.7,603.6z"/>
	<path class="st6" d="M1195.4,490.2l-0.6,23.9c-0.1,2.5,0.8,4.7,2.1,5l5.3,1.3c1.5,0.3,2.8-1.9,2.9-4.9l0.6-22.8
		c0.1-2.3-0.7-4.4-1.9-4.9l-5.3-2.4C1197,484.7,1195.5,487,1195.4,490.2z"/>
	<path class="st6" d="M1216.6,497.6l-0.6,20.5c-0.1,2.6,0.9,4.8,2.2,5.1l4.4,1c1.5,0.4,2.9-2,3-5l0.5-19.6c0.1-2.4-0.7-4.5-1.9-5
		l-4.4-1.9C1218.2,492,1216.7,494.4,1216.6,497.6z"/>
	<path class="st6" d="M1193.9,543.8l-0.6,23.9c-0.1,2.5,0.8,4.7,2.1,5l5.3,1.3c1.5,0.3,2.8-1.9,2.9-4.9l0.6-22.8
		c0.1-2.3-0.7-4.4-1.9-4.9l-5.3-2.4C1195.5,538.4,1194,540.7,1193.9,543.8z"/>
	<path class="st6" d="M1215.1,551.3l-0.6,20.5c-0.1,2.6,0.9,4.8,2.2,5.1l4.4,1c1.5,0.4,2.9-2,3-5l0.5-19.6c0.1-2.4-0.7-4.5-1.9-5
		l-4.4-1.9C1216.8,545.7,1215.2,548,1215.1,551.3z"/>
	<path class="st5" d="M998.6,398l-0.8,30.6c-0.1,3.2,2.9,6.1,6.9,6.5l16.9,1.9c4.7,0.5,8.8-2.3,8.9-6.1l0.8-29.2
		c0.1-3-2.5-5.7-6.1-6.4l-16.8-3.3C1003.4,391.1,998.7,393.9,998.6,398z"/>
	<path class="st5" d="M993,603.7l-0.7,26.4c-0.1,4.9,5,8.9,11.1,8.7l12.6-0.4c5.5-0.2,9.9-3.8,10-8.2l0.4-24.9
		c0.1-4.4-4.1-8.1-9.6-8.6l-12.3-1C998.4,595.1,993.1,598.9,993,603.7z"/>
	<path class="st5" d="M996.9,462.2l-0.8,30.6c-0.1,3.2,2.9,6.1,6.9,6.5l16.9,1.9c4.7,0.5,8.8-2.3,8.9-6.1l0.8-29.2
		c0.1-3-2.5-5.7-6.1-6.4l-16.8-3.3C1001.7,455.3,997,458.2,996.9,462.2z"/>
	<path class="st5" d="M995,530.9l-0.8,30.6c-0.1,3.2,2.9,6.1,6.9,6.5l16.9,1.9c4.7,0.5,8.8-2.3,8.9-6.1l0.8-29.2
		c0.1-3-2.5-5.7-6.1-6.4l-16.8-3.3C999.8,524,995.1,526.9,995,530.9z"/>
	<path class="st5" d="M781,351.1l-0.9,33.8c-0.1,4.3,6.4,8.1,15.1,8.8l29.7,2.3c10.1,0.8,19-2.9,19.1-7.8l0.9-32.3
		c0.1-4-5.5-7.6-13.4-8.6l-29.7-3.8C791.2,342.1,781.1,345.8,781,351.1z"/>
	<path class="st5" d="M774,608.9l-0.8,30.4c-0.2,6,10.4,11,22.6,10.7l22.8-0.6c10.5-0.3,18.5-4.4,18.7-9.6l0.8-29.2
		c0.2-5.6-9-10.4-20.5-10.7l-22.7-0.5C783.4,599,774.2,603.3,774,608.9z"/>
	<path class="st5" d="M778.7,433.9l-0.9,33.8c-0.1,4.3,6.4,8.1,15.1,8.8l29.7,2.3c10.1,0.8,19-2.9,19.1-7.8l0.9-32.3
		c0.1-4-5.5-7.6-13.4-8.6l-29.7-3.8C788.9,424.9,778.9,428.6,778.7,433.9z"/>
	<path class="st5" d="M776.3,522.5l-0.9,33.8c-0.1,4.3,6.4,8.1,15.1,8.8l29.7,2.3c10.1,0.8,19-2.9,19.1-7.8l0.9-32.3
		c0.1-4-5.5-7.6-13.4-8.6l-29.7-3.8C786.5,513.4,776.5,517.1,776.3,522.5z"/>
	<path class="st5" d="M1153.2,431.5l-0.6,23c-0.1,2.9,2.1,5.4,5.1,5.8l10.2,1.3c3.5,0.4,6.5-2.1,6.6-5.5l0.6-21.9
		c0.1-2.7-1.8-5.1-4.5-5.7l-10.2-2.3C1156.8,425.3,1153.3,427.9,1153.2,431.5z"/>
	<path class="st5" d="M1148.4,606.3l-0.6,20.6c-0.1,4.1,3.5,7.4,7.7,7l7.8-0.6c3.6-0.3,6.4-3.1,6.5-6.7l0.5-19.8c0.1-3.8-3-7-7-7.1
		l-7.8-0.2C1151.8,599.5,1148.5,602.5,1148.4,606.3z"/>
	<path class="st5" d="M1151.7,487.7l-0.6,23c-0.1,2.9,2.1,5.4,5.1,5.8l10.2,1.3c3.5,0.4,6.5-2.1,6.6-5.5l0.6-21.9
		c0.1-2.7-1.8-5.1-4.5-5.7l-10.2-2.3C1155.2,481.5,1151.8,484.1,1151.7,487.7z"/>
	<path class="st5" d="M1150,547.7l-0.6,23c-0.1,2.9,2.1,5.4,5.1,5.8l10.2,1.3c3.5,0.4,6.5-2.1,6.6-5.5l0.6-21.9
		c0.1-2.7-1.8-5.1-4.5-5.7l-10.2-2.3C1153.6,541.5,1150.1,544.1,1150,547.7z"/>
	<path class="st0" d="M860.6,344.9"/>
	<polygon class="st8" points="222.7,410.5 265.3,389.3 364.2,392 363.8,408.9 264.8,406.2 222.3,423.7 	"/>
	<path class="st8" d="M280.4,72.1"/>
	<polygon class="st1" points="222.7,410.1 265.3,389.3 364.2,391.9 363.7,409.9 264.8,407.3 222.3,424.1 	"/>
	<polygon class="st1" points="219.4,495.1 262,474.2 360.9,476.9 360.4,494.9 261.5,492.2 219,509.1 	"/>
	<polygon class="st1" points="218.8,590.1 261.4,569.2 359.4,571.9 358.9,589.9 260.9,587.2 218.4,604.1 	"/>
	<line class="st9" x1="265.8" y1="389.8" x2="265.3" y2="407.8"/>
	<line class="st9" x1="263" y1="474.2" x2="262.5" y2="492.2"/>
	<line class="st9" x1="260.4" y1="569.2" x2="259.9" y2="587.2"/>
</g>
</svg>
