<?xml version="1.0" encoding="utf-8"?>
<!-- Generator: Adobe Illustrator 23.0.4, SVG Export Plug-In . SVG Version: 6.00 Build 0)  -->
<svg version="1.1" id="Layer_1" xmlns="http://www.w3.org/2000/svg" xmlns:xlink="http://www.w3.org/1999/xlink" x="0px" y="0px"
	 viewBox="0 0 1366 768" style="enable-background:new 0 0 1366 768;" xml:space="preserve">
<style type="text/css">
	.st0{fill:#FFFFFF;stroke:#BABABA;stroke-miterlimit:10;}
	.st1{fill:#F4F4F4;}
	.st2{fill:#EFEFEF;}
	.st3{fill:#9F3843;}
	.st4{fill:#FFFFFF;}
	.st5{fill:#502022;}
	.st6{fill:#B3B3B3;}
	.st7{fill:#D0E0FF;}
	.st8{fill:#8BB8FF;}
	.st9{fill:#CA515B;}
	.st10{fill:none;}
	.st11{fill:none;stroke:#BABABA;stroke-miterlimit:10;}
</style>
<g>
	<path class="st0" d="M404.9,793.5"/>
	<g id="XMLID_1_">
		<g>
			<path class="st1" d="M556.8,304.6l-121.6-85.4l-0.6,0.8l-14.1-9.8c-1.3-1-1.9-3.1-1.7-5.1c0.2-2.7,1.6-5.4,3.9-4.9L1153,358.1
				c8.4,1.8,16.3,5.1,23.4,9.8L1250,416c5.5,3.6,2,11.9-4.5,10.8l-10.8-1.9v-0.5l-48.5-7.9l-0.3-0.1l-5.9-1l-540.8-87.7l-44-7.2
				l-9.5-1.5l-10.8-1.7L556.8,304.6z"/>
			<path class="st2" d="M432.6,356.5c5.5,5.9,0.9,15.2-7.3,15l-18-0.5v0.9l-93.3-0.6l-63.2-62.5l-18.5-17.7
				c-1.3-1.3-2.1-2.7-2.4-4.3c-0.8-4.5,2.7-9.3,8.3-9.3l113.7,3c4,0.1,7.8,1.1,11.2,2.9c2.5,1.3,4.8,3,6.7,5.2l9.9,10.7L432.6,356.5
				z"/>
			<path class="st3" d="M1173.7,731.5l5.8-315.4l0.1-0.6l5.9,1l0.3,0.1l48.5,8.4l-7,248.6c-0.5,15.2-10.9,55.9-26.7,56.8l-27,1.6
				L1173.7,731.5L1173.7,731.5z"/>
			<polygon class="st4" points="1234.5,424.4 1234.5,424.9 1186,416.5 			"/>
			<polygon class="st3" points="1173.7,731.5 1173.8,732 585,755.7 584.9,755.4 594.9,321.9 595.1,320.6 639.1,327.7 1179.7,415.5 
				1179.6,416.1 			"/>
			<path class="st5" d="M595.1,320.6l-0.3,1.4l-9.9,433.5v0.3l-188.2-5.4l2-71.7l8.7-306.7v-0.9l18,0.5c8.2,0.2,12.7-9.1,7.3-15
				l-52.8-57.2l54.8-79.3l122.1,84.5l18.1,12.7l10.8,1.7L595.1,320.6z"/>
			<polygon class="st4" points="556.8,304.6 434.7,220 435.2,219.2 			"/>
			<path class="st6" d="M434.7,220l-54.8,79.3l-9.9-10.7c-2-2.1-4.2-3.8-6.7-5.2l0.5-0.8l54-77.6l1,0.1c-0.2,2,0.4,4.1,1.7,5.1
				L434.7,220z"/>
			<polygon class="st3" points="398.8,678.5 396.7,750.2 303,762 305.5,676.2 			"/>
			<polygon class="st7" points="407.3,371.9 398.8,678.5 305.5,676.2 306.3,645.9 314.1,371.3 			"/>
			<path class="st5" d="M305.5,676.2L303,762l-1.9,0.3l-38.5-4.6l-76.5-15.1c-14.3-2.8-24.4-15.1-24-29.1l6.8-240.2
				c0.6-21.5,6.9-42.6,18.2-61.2c0.1-0.2,0.2-0.4,0.3-0.5l63.5-102.9l63.3,62.4l-28,18.8c-7.8,5.3-12.5,13.7-12.8,22.9l-7,248.7
				c-0.3,10,8.7,17.9,18.9,16.7L305.5,676.2z"/>
			<path class="st8" d="M306.3,645.9l-0.8,30.2l-20.3,2.3c-10.3,1.2-19.2-6.7-18.9-16.7l7-248.7c0.3-9.2,5-17.7,12.8-22.9l28-18.8
				L306.3,645.9z"/>
			<path class="st6" d="M250.8,308.8l-63.4,102.8c-0.1,0.2-0.2,0.4-0.3,0.5l-14.4-0.3c-12.3-0.2-20.1-12.8-14.4-23.2l69.5-101.3
				l2.2-0.5c0.3,1.5,1,3,2.4,4.3L250.8,308.8z"/>
		</g>
	</g>
	<polyline class="st5" points="768.1,754.7 776.8,349.6 754.4,346 745.5,756 	"/>
	<polygon class="st9" points="874.2,365.5 865.9,750 767.8,755.7 776.6,349.8 	"/>
	<polyline class="st5" points="962.3,743.9 969.8,381.9 988.5,384.4 981,742.7 	"/>
	<polygon class="st9" points="1039.3,739.2 1046.4,393.4 988.7,384.4 981.1,743.1 	"/>
	<polyline class="st5" points="1113.8,734.7 1120.5,406.4 1136.1,408.2 1129.5,733.7 	"/>
	<path class="st0" d="M1146.4,408.9"/>
	<polygon class="st9" points="1173.7,731.8 1180.1,415.7 1136,408.2 1129.4,734.3 	"/>
	<path class="st8" d="M184.9,471.8l-1,37.6c-0.1,2.7,3.1,4.5,5.5,3l7.1-4.3c1-0.6,1.7-1.7,1.7-2.8l1-36.3c0.1-2.5-2.6-4.3-5-3.3
		l-7.1,2.9C185.8,469.2,184.9,470.5,184.9,471.8z"/>
	<path class="st8" d="M182.7,552l-1,37c-0.1,3.1,3.2,5.3,6.2,4l5.4-2.3c1.6-0.6,2.6-2.2,2.6-3.8l1-37.4c0.1-3.2-3.4-5.4-6.4-3.9
		l-5.4,2.5C183.6,549,182.7,550.5,182.7,552z"/>
	<path class="st8" d="M180.6,625.6l-0.8,30.9c-0.1,2.5,2,4.5,4.5,4.6l4.8,0.1c2.5,0.1,4.7-1.9,4.8-4.4l0.8-30.9
		c0.1-2.5-2-4.5-4.5-4.6l-4.8-0.1C182.8,621.2,180.6,623.2,180.6,625.6z"/>
	<path class="st7" d="M627.5,372.3l-1,37.6c-0.1,4,2.9,7.4,7.1,8l17.2,2.2c4.8,0.6,9-2.9,9.1-7.5l1-35.9c0.1-3.7-2.5-7-6.2-7.8
		l-17.2-3.9C632.5,363.8,627.7,367.3,627.5,372.3z"/>
	<path class="st7" d="M696.5,384.8l-0.9,32.2c-0.1,4.1,3,7.6,7.3,8.2l14.4,1.8c4.9,0.6,9.2-3,9.4-7.7l0.8-30.9
		c0.1-3.8-2.5-7.2-6.4-8l-14.4-3.3C701.4,376.1,696.5,379.7,696.5,384.8z"/>
	<path class="st7" d="M620.4,625.1l-0.9,32.4c-0.2,6,5,10.9,11.2,10.6l12.8-0.6c5.7-0.3,10.1-4.7,10.3-10.2l0.6-30.7
		c0.1-5.4-4.1-10-9.7-10.5l-12.5-1.2C626,614.5,620.5,619.1,620.4,625.1z"/>
	<path class="st7" d="M689.5,630.5l-0.8,29c-0.2,5.7,4.9,10.3,10.8,9.9l11.1-0.9c5.1-0.4,9-4.4,9.2-9.3l0.8-27.9
		c0.2-5.4-4.2-9.8-9.8-9.9l-11-0.2C694.2,621,689.7,625.2,689.5,630.5z"/>
	<path class="st7" d="M625.2,451.3l-1,37.6c-0.1,4,2.9,7.4,7.1,8l17.2,2.2c4.8,0.6,9-2.9,9.1-7.5l1-35.9c0.1-3.7-2.5-7-6.2-7.8
		l-17.2-3.9C630.2,442.7,625.4,446.3,625.2,451.3z"/>
	<path class="st7" d="M694.2,463.8l-0.9,32.2c-0.1,4.1,3,7.6,7.3,8.2L715,506c4.9,0.6,9.2-3,9.4-7.7l0.8-30.9c0.1-3.8-2.5-7.2-6.4-8
		l-14.4-3.3C699.3,455.1,694.3,458.7,694.2,463.8z"/>
	<path class="st7" d="M622.9,535.6l-1,37.6c-0.1,4,2.9,7.4,7.1,8l17.2,2.2c4.8,0.6,9-2.9,9.1-7.5l1-35.9c0.1-3.7-2.5-7-6.2-7.8
		l-17.2-3.9C627.9,527,623,530.7,622.9,535.6z"/>
	<path class="st7" d="M691.8,548.2l-0.9,32.2c-0.1,4.1,3,7.6,7.3,8.2l14.4,1.8c4.9,0.6,9.2-3,9.4-7.7l0.8-30.9
		c0.1-3.8-2.5-7.2-6.4-8l-14.4-3.3C696.9,539.4,691.9,543.1,691.8,548.2z"/>
	<path class="st7" d="M893.7,426.6l-0.8,29.4c-0.1,3.1,1.8,5.8,4.4,6.2l10.9,1.6c3,0.5,5.7-2.3,5.8-5.9l0.8-28
		c0.1-2.9-1.6-5.4-4-6.1l-10.9-3C896.9,419.9,893.8,422.7,893.7,426.6z"/>
	<path class="st7" d="M937.6,436.2l-0.8,25.2c-0.1,3.2,1.9,6,4.6,6.4l9.2,1.4c3.1,0.5,5.9-2.4,6-6.1l0.7-24.1c0.1-3-1.6-5.6-4.1-6.3
		l-9.1-2.5C940.9,429.3,937.8,432.2,937.6,436.2z"/>
	<path class="st7" d="M888.1,624.7l-0.8,25.4c-0.1,4.7,3.1,8.5,7.2,8.3l8.2-0.5c3.6-0.2,6.5-3.7,6.6-8l0.5-24.1
		c0.1-4.3-2.5-7.8-6.1-8.2l-8-0.9C891.7,616.4,888.2,620,888.1,624.7z"/>
	<path class="st7" d="M932.2,628.6l-0.7,22.7c-0.1,4.5,3.1,8.1,6.9,7.7l7.1-0.7c3.3-0.4,5.8-3.5,5.9-7.4l0.7-21.9
		c0.1-4.2-2.6-7.7-6.2-7.7l-7.1-0.1C935.2,621.2,932.3,624.5,932.2,628.6z"/>
	<path class="st7" d="M891.9,488.5l-0.8,29.4c-0.1,3.1,1.8,5.8,4.4,6.2l10.9,1.6c3,0.5,5.7-2.3,5.8-5.9l0.8-28
		c0.1-2.9-1.6-5.4-4-6.1l-10.9-3C895.2,481.8,892.1,484.6,891.9,488.5z"/>
	<path class="st7" d="M935.9,498l-0.8,25.2c-0.1,3.2,1.9,6,4.6,6.4l9.2,1.4c3.1,0.5,5.9-2.4,6-6.1l0.7-24.1c0.1-3-1.6-5.6-4.1-6.3
		l-9.1-2.5C939.2,491.1,936,494,935.9,498z"/>
	<path class="st7" d="M890.1,554.5l-0.8,29.4c-0.1,3.1,1.8,5.8,4.4,6.2l10.9,1.6c3,0.5,5.7-2.3,5.8-5.9l0.8-28
		c0.1-2.9-1.6-5.4-4-6.1l-10.9-3C893.3,547.8,890.2,550.6,890.1,554.5z"/>
	<path class="st7" d="M934,564.2l-0.8,25.2c-0.1,3.2,1.9,6,4.6,6.4l9.2,1.4c3.1,0.5,5.9-2.4,6-6.1l0.7-24.1c0.1-3-1.6-5.6-4.1-6.3
		l-9.1-2.5C937.3,557.3,934.1,560.2,934,564.2z"/>
	<path class="st7" d="M1063.6,451.4l-0.8,26.8c-0.1,2.8,1.3,5.3,3.3,5.6l8.2,1.5c2.3,0.4,4.3-2.1,4.4-5.4l0.8-25.5
		c0.1-2.6-1.1-4.9-2.9-5.5l-8.2-2.7C1066,445.3,1063.7,447.8,1063.6,451.4z"/>
	<path class="st8" d="M1096.6,459.9l-0.7,23c-0.1,2.9,1.4,5.4,3.4,5.8l6.9,1.2c2.4,0.4,4.4-2.2,4.5-5.5l0.7-22
		c0.1-2.7-1.2-5.1-3-5.6l-6.9-2.2C1099,453.6,1096.7,456.3,1096.6,459.9z"/>
	<path class="st7" d="M1058.5,631.2l-0.7,23.1c-0.1,4.3,2.4,7.7,5.3,7.4l6.1-0.5c2.7-0.2,4.9-3.4,5-7.3l0.5-21.8
		c0.1-3.8-1.9-7.1-4.6-7.4l-5.9-0.7C1061.2,623.7,1058.7,627,1058.5,631.2z"/>
	<path class="st8" d="M1091.7,634.7l-0.6,20.6c-0.1,4.1,2.3,7.4,5.1,7l5.3-0.7c2.5-0.3,4.3-3.2,4.4-6.7l0.6-19.9c0.1-3.8-2-7-4.6-7
		l-5.3-0.1C1093.9,627.9,1091.8,631,1091.7,634.7z"/>
	<path class="st7" d="M1062,507.5l-0.8,26.8c-0.1,2.8,1.3,5.3,3.3,5.6l8.2,1.5c2.3,0.4,4.3-2.1,4.4-5.4l0.8-25.5
		c0.1-2.6-1.1-4.9-2.9-5.5l-8.2-2.7C1064.4,501.5,1062.1,504,1062,507.5z"/>
	<path class="st8" d="M1095,516.1l-0.7,23c-0.1,2.9,1.4,5.4,3.4,5.8l6.9,1.2c2.4,0.4,4.4-2.2,4.5-5.5l0.7-22c0.1-2.7-1.2-5.1-3-5.6
		l-6.9-2.2C1097.4,509.8,1095.1,512.4,1095,516.1z"/>
	<path class="st7" d="M1060.3,567.6l-0.8,26.8c-0.1,2.8,1.3,5.3,3.3,5.6l8.2,1.5c2.3,0.4,4.3-2.1,4.4-5.4l0.8-25.5
		c0.1-2.6-1.1-4.9-2.9-5.5l-8.2-2.7C1062.7,561.4,1060.4,564.1,1060.3,567.6z"/>
	<path class="st8" d="M1093.3,576.1l-0.7,23c-0.1,2.9,1.4,5.4,3.4,5.8l6.9,1.2c2.4,0.4,4.4-2.2,4.5-5.5l0.7-22
		c0.1-2.7-1.2-5.1-3-5.6l-6.9-2.2C1095.7,569.9,1093.4,572.5,1093.3,576.1z"/>
	<path class="st8" d="M1190.1,479l-0.6,21.7c-0.1,2.3,0.8,4.3,2,4.5l5,1.2c1.4,0.3,2.6-1.7,2.7-4.4l0.6-20.7c0.1-2.1,0.3-4-0.8-4.4
		l-5-2.2C1192.5,474,1190.1,476.1,1190.1,479z"/>
	<path class="st8" d="M1210,485.8l-0.6,18.6c-0.1,2.4,0.8,4.4,2.1,4.6l4.1,0.9c1.4,0.4,2.7-1.8,2.8-4.5l0.5-17.8
		c0.1-2.2-0.7-4.1-1.8-4.5l-4.1-1.7C1211.6,480.7,1210.1,482.8,1210,485.8z"/>
	<path class="st8" d="M1186,624.9l-0.6,18.7c-0.1,3.4,1.4,6.3,3.2,6.1l3.8-0.5c1.6-0.2,3-2.8,3-5.9l0.4-17.7c0.1-3.1-1.1-5.7-2.7-6
		l-3.7-0.5C1187.7,618.8,1186.1,621.4,1186,624.9z"/>
	<path class="st8" d="M1206.1,627.5l-0.5,16.7c-0.1,3.4,1.3,5.9,3.1,5.6l3.2-0.5c1.5-0.3,2.6-2.6,2.7-5.4l0.5-16.1
		c0.1-3.1-1.1-5.6-2.8-5.6l-3.2-0.1C1207.5,622,1206.2,624.4,1206.1,627.5z"/>
	<path class="st8" d="M1188.8,524.6l-0.6,21.7c-0.1,2.3,0.8,4.3,2,4.5l5,1.2c1.4,0.3,2.6-1.7,2.7-4.4l0.6-20.7
		c0.1-2.1-0.7-4-1.8-4.4l-5-2.2C1190.3,519.6,1188.9,521.7,1188.8,524.6z"/>
	<path class="st8" d="M1208.8,531.3l-0.6,18.6c-0.1,2.4,0.8,4.4,2.1,4.6l4.1,0.9c1.4,0.4,2.7-1.8,2.8-4.5l0.5-17.8
		c0.1-2.2-0.7-4.1-1.8-4.5l-4.1-1.7C1210.3,526.2,1208.9,528.4,1208.8,531.3z"/>
	<path class="st8" d="M1187.4,573.2l-0.6,21.7c-0.1,2.3,0.8,4.3,2,4.5l5,1.2c1.4,0.3,2.6-1.7,2.7-4.4l0.6-20.7
		c0.1-2.1-0.7-4-1.8-4.4l-5-2.2C1188.9,568.3,1187.5,570.4,1187.4,573.2z"/>
	<path class="st8" d="M1207.4,580.1l-0.6,18.6c-0.1,2.4,0.8,4.4,2.1,4.6l4.1,0.9c1.4,0.4,2.7-1.8,2.8-4.5l0.5-17.8
		c0.1-2.2-0.7-4.1-1.8-4.5l-4.1-1.7C1209,575,1207.5,577.1,1207.4,580.1z"/>
	<path class="st7" d="M1003.4,440.9l-0.8,27.8c-0.1,2.9,2.7,5.5,6.5,5.9l15.9,1.7c4.4,0.5,8.3-2.1,8.4-5.5l0.8-26.5
		c0.1-2.7-2.4-5.2-5.7-5.8l-15.8-3C1007.9,434.7,1003.5,437.2,1003.4,440.9z"/>
	<path class="st7" d="M998.1,627.6l-0.7,24c-0.1,4.4,4.7,8.1,10.5,7.9l11.9-0.4c5.2-0.2,9.3-3.4,9.4-7.4l0.4-22.6
		c0.1-4-3.9-7.4-9-7.8l-11.6-0.9C1003.2,619.8,998.2,623.3,998.1,627.6z"/>
	<path class="st7" d="M1001.8,499.2L1001,527c-0.1,2.9,2.7,5.5,6.5,5.9l15.9,1.7c4.4,0.5,8.3-2.1,8.4-5.5l0.8-26.5
		c0.1-2.7-2.4-5.2-5.7-5.8l-15.8-3C1006.3,492.9,1001.9,495.6,1001.8,499.2z"/>
	<path class="st7" d="M1000,561.5l-0.8,27.8c-0.1,2.9,2.7,5.5,6.5,5.9l15.9,1.7c4.4,0.5,8.3-2.1,8.4-5.5l0.8-26.5
		c0.1-2.7-2.4-5.2-5.7-5.8l-15.8-3C1004.5,555.3,1000.1,557.9,1000,561.5z"/>
	<path class="st7" d="M798.3,398.3l-0.8,30.7c-0.1,3.9,6,7.4,14.2,8l28,2.1c9.5,0.7,17.9-2.6,18-7.1l0.8-29.3
		c0.1-3.6-5.2-6.9-12.6-7.8l-28-3.4C807.9,390.2,798.4,393.5,798.3,398.3z"/>
	<path class="st7" d="M791.7,632.3l-0.8,27.6c-0.2,5.4,9.8,10,21.3,9.7l21.5-0.5c9.9-0.3,17.4-4,17.6-8.7l0.8-26.5
		c0.2-5.1-8.5-9.4-19.3-9.7l-21.4-0.5C800.6,623.3,791.9,627.2,791.7,632.3z"/>
	<path class="st7" d="M796.2,473.5l-0.8,30.7c-0.1,3.9,6,7.4,14.2,8l28,2.1c9.5,0.7,17.9-2.6,18-7.1l0.8-29.3
		c0.1-3.6-5.2-6.9-12.6-7.8l-28-3.4C805.8,465.3,796.3,468.7,796.2,473.5z"/>
	<path class="st7" d="M793.9,553.9l-0.8,30.7c-0.1,3.9,6,7.4,14.2,8l28,2.1c9.5,0.7,17.9-2.6,18-7.1l0.8-29.3
		c0.1-3.6-5.2-6.9-12.6-7.8l-28-3.4C803.5,545.7,794.1,549,793.9,553.9z"/>
	<path class="st7" d="M1149.1,471.3l-0.6,20.9c-0.1,2.6,2,4.9,4.8,5.3l9.6,1.2c3.3,0.4,6.1-1.9,6.2-5l0.6-19.9
		c0.1-2.5-1.7-4.6-4.2-5.2l-9.6-2.1C1152.5,465.7,1149.2,468.1,1149.1,471.3z"/>
	<path class="st7" d="M1144.5,630l-0.6,18.7c-0.1,3.7,3.3,6.7,7.3,6.4l7.4-0.5c3.4-0.3,6-2.8,6.1-6.1l0.5-18
		c0.1-3.4-2.8-6.4-6.6-6.4l-7.4-0.2C1147.7,623.8,1144.6,626.5,1144.5,630z"/>
	<path class="st7" d="M1147.6,522.3l-0.6,20.9c-0.1,2.6,2,4.9,4.8,5.3l9.6,1.2c3.3,0.4,6.1-1.9,6.2-5l0.6-19.9
		c0.1-2.5-1.7-4.6-4.2-5.2l-9.6-2.1C1150.9,516.7,1147.7,519.1,1147.6,522.3z"/>
	<path class="st7" d="M1146,576.8l-0.6,20.9c-0.1,2.6,2,4.9,4.8,5.3l9.6,1.2c3.3,0.4,6.1-1.9,6.2-5l0.6-19.9
		c0.1-2.5-1.7-4.6-4.2-5.2l-9.6-2.1C1149.4,571.2,1146.1,573.5,1146,576.8z"/>
	<path class="st0" d="M873.3,392.7"/>
	<polygon class="st10" points="272.2,452.3 312.4,433 405.6,435.5 405.2,450.8 311.9,448.4 271.8,464.2 	"/>
	<path class="st10" d="M326.6,145.1"/>
	<polygon class="st4" points="272.2,451.9 312.4,433 405.6,435.4 405.1,451.7 311.9,449.4 271.8,464.6 	"/>
	<polygon class="st4" points="269.1,529 309.2,510.1 402.4,512.5 402,528.9 308.8,526.4 268.7,541.8 	"/>
	<polygon class="st4" points="268.5,615.3 308.7,596.3 401,598.7 400.6,615.1 308.2,612.6 268.2,628 	"/>
	<line class="st11" x1="312.8" y1="433.5" x2="312.4" y2="449.8"/>
	<line class="st11" x1="310.2" y1="510.1" x2="309.7" y2="526.4"/>
	<line class="st11" x1="307.7" y1="596.3" x2="307.3" y2="612.6"/>
</g>
</svg>
