<?xml version="1.0" encoding="utf-8"?>
<!-- Generator: Adobe Illustrator 23.0.4, SVG Export Plug-In . SVG Version: 6.00 Build 0)  -->
<svg version="1.1" id="Layer_1" xmlns="http://www.w3.org/2000/svg" xmlns:xlink="http://www.w3.org/1999/xlink" x="0px" y="0px"
	 viewBox="0 0 1366 768" style="enable-background:new 0 0 1366 768;" xml:space="preserve">
<style type="text/css">
	.st0{fill:#9F3843;}
	.st1{fill:#60363C;}
	.st2{fill:#FFFFFF;}
	.st3{fill:#BEB3B3;}
	.st4{fill:#C45363;}
	.st5{fill:#D0E0FF;}
</style>
<path class="st0" d="M202.4,483l-8.6,203.3c0,7.3,7.3,13.4,17.1,14.4l915,42.3V372.9L202.4,483z"/>
<path class="st1" d="M1125.9,743l142.9-29.4c7.8-1.6,13.2-6.8,13.2-12.8V390.2l-156.1-17.2L1125.9,743L1125.9,743z"/>
<path class="st2" d="M1116.6,373.4L156.8,488.7c-5.5,0.3-9.4-3.8-7.2-7.4l53-89.3c1-1.7,3.2-2.9,5.7-3.1l848.7-148.7
	c3.4-0.3,6.6,1.1,7.8,3.5l58.1,122.8C1124.4,369.7,1121.3,373.2,1116.6,373.4z"/>
<path class="st3" d="M1286.6,391.6l-160.1-18.4L1063.4,240l143.1,39.1c7.7,2.1,14,6.2,17.8,11.5l68.1,95.1
	C1294.5,388.7,1291.1,392.2,1286.6,391.6z"/>
<polygon class="st4" points="334.8,471.4 338.8,703.8 482.1,711.3 477.3,447.5 "/>
<polygon class="st4" points="674.8,428.7 674.8,720.6 843.5,728 843.5,410 "/>
<polygon class="st1" points="477.3,447.5 482.1,711.3 531,714.6 526.3,444.4 "/>
<polygon class="st1" points="846.8,409.2 843.2,727.7 886.6,729.7 893.2,402.9 "/>
<path class="st1" d="M210.4,442.6h35.3V332.1h-17.6h-1.8c-8.8,0-15.9,5.2-15.9,11.6v14.2"/>
<path class="st0" d="M245.7,442.6l27.8-36.1v-55.4c0-5.4-4.2-10.4-10.8-12.8l-17-6.2V442.6z"/>
<path class="st0" d="M70,9"/>
<path class="st5" d="M226.5,504.6v27c0,2,2.1,3.7,4.8,4l6.2,0.6c3.3,0.3,6.1-1.6,6.1-4v-28.8c0-2.6-3.3-4.5-6.8-3.9l-6.2,1.1
	C228.2,501.1,226.5,502.7,226.5,504.6z"/>
<path class="st5" d="M271.7,502.6v30.8c0,2.3,2.5,4.2,5.9,4.5l7.6,0.6c4,0.3,7.5-1.8,7.5-4.5v-32.7c0-3-4.1-5.1-8.3-4.4l-7.6,1.3
	C273.8,498.7,271.7,500.5,271.7,502.6z"/>
<path class="st5" d="M226.5,565.1v27c0,2,2.1,3.7,4.8,4l6.2,0.6c3.3,0.3,6.1-1.6,6.1-4V564c0-2.6-3.3-4.5-6.8-3.9l-6.2,1.1
	C228.2,561.7,226.5,563.3,226.5,565.1z"/>
<path class="st5" d="M271.7,563.1v30.8c0,2.3,2.5,4.2,5.9,4.5l7.6,0.6c4,0.3,7.5-1.8,7.5-4.5v-32.7c0-3-4.1-5.1-8.3-4.4l-7.6,1.3
	C273.8,559.2,271.7,561.1,271.7,563.1z"/>
<path class="st5" d="M226.5,625.7v27c0,2,2,3.7,4.8,4l6.2,0.6c3.3,0.3,6.1-1.6,6.1-4v-28.8c0-2.6-3.3-4.5-6.8-3.9l-6.2,1.1
	C228.2,622.3,226.5,623.9,226.5,625.7z"/>
<path class="st5" d="M271.7,623.7v30.8c0,2.3,2.5,4.2,5.9,4.5l7.6,0.6c4,0.3,7.5-1.8,7.5-4.5v-32.7c0-3-4.1-5.1-8.3-4.4l-7.6,1.3
	C273.8,619.8,271.7,621.6,271.7,623.7z"/>
<path class="st5" d="M540.2,479.4v27c0,2,2,3.7,4.8,4l6.2,0.6c3.3,0.3,6.1-1.6,6.1-4v-28.8c0-2.6-3.3-4.5-6.8-3.9l-6.2,1.1
	C541.9,475.9,540.2,477.5,540.2,479.4z"/>
<path class="st5" d="M581.1,477.4v30.8c0,2.3,2.5,4.2,5.9,4.5l7.6,0.6c4,0.3,7.5-1.8,7.5-4.5v-32.7c0-3-4.1-5.1-8.3-4.4l-7.6,1.3
	C583.2,473.5,581.1,475.3,581.1,477.4z"/>
<path class="st5" d="M628.8,473.9V511c0,2.8,3,5.1,6.9,5.5l8.9,0.8c4.7,0.4,8.8-2.1,8.8-5.4v-39.5c0-3.6-4.8-6.2-9.8-5.3l-8.9,1.6
	C631.2,469.1,628.8,471.3,628.8,473.9z"/>
<path class="st5" d="M539.2,548.6v27c0,2,2,3.7,4.8,4l6.2,0.6c3.3,0.3,6.1-1.6,6.1-4v-28.8c0-2.6-3.3-4.5-6.8-3.9l-6.2,1.1
	C540.9,545.2,539.2,546.8,539.2,548.6z"/>
<path class="st5" d="M580,546.7v30.8c0,2.3,2.5,4.2,5.9,4.5l7.6,0.6c4,0.3,7.5-1.8,7.5-4.5v-32.7c0-3-4.1-5.1-8.3-4.4l-7.6,1.3
	C582.1,542.7,580,544.6,580,546.7z"/>
<path class="st5" d="M627.7,543.2v37.1c0,2.8,3,5.1,6.9,5.5l8.9,0.8c4.7,0.4,8.8-2.2,8.8-5.5v-39.5c0-3.6-4.8-6.2-9.8-5.3l-8.9,1.6
	C630.1,538.4,627.7,540.6,627.7,543.2z"/>
<path class="st5" d="M538.6,617.9v27c0,2,2,3.7,4.8,4l6.2,0.6c3.3,0.3,6.1-1.6,6.1-4v-28.8c0-2.6-3.3-4.5-6.8-3.9l-6.2,1.1
	C540.3,614.5,538.6,616.1,538.6,617.9z"/>
<path class="st5" d="M579.4,615.9v30.8c0,2.3,2.5,4.2,5.9,4.5l7.6,0.6c4,0.3,7.5-1.8,7.5-4.5v-32.7c0-3-4.1-5.1-8.3-4.4l-7.6,1.3
	C581.5,612,579.4,613.8,579.4,615.9z"/>
<path class="st5" d="M627.1,612.4v37.1c0,2.8,3,5.1,6.9,5.5l8.9,0.8c4.7,0.4,8.8-2.2,8.8-5.5v-39.5c0-3.6-4.8-6.2-9.8-5.3l-8.9,1.6
	C629.5,607.7,627.1,609.9,627.1,612.4z"/>
<path class="st5" d="M900.9,438.7v34.5c0,2.6,3.9,4.8,9.1,5.1l11.8,0.7c6.2,0.4,11.7-2,11.7-5.1v-36.7c0-3.3-6.3-5.8-12.9-5
	l-11.8,1.5C904.2,434.3,900.9,436.3,900.9,438.7z"/>
<path class="st5" d="M978.5,436.1v39.2c0,2.9,4.8,5.4,11.2,5.8l14.4,0.8c7.6,0.4,14.3-2.3,14.3-5.8v-41.7c0-3.8-7.8-6.5-15.8-5.6
	l-14.4,1.6C982.5,431.2,978.5,433.5,978.5,436.1z"/>
<path class="st5" d="M1069.1,431.7V479c0,3.5,5.6,6.5,13.1,7l16.9,1c8.9,0.5,16.8-2.7,16.8-7v-50.3c0-4.6-9.1-7.9-18.5-6.8l-16.9,2
	C1073.7,425.7,1069.1,428.5,1069.1,431.7z"/>
<path class="st5" d="M898.8,542.2v34.5c0,2.6,3.9,4.8,9.1,5.1l11.8,0.7c6.2,0.4,11.7-2,11.7-5.1v-36.7c0-3.3-6.3-5.8-12.9-5
	l-11.8,1.5C902,537.8,898.8,539.8,898.8,542.2z"/>
<path class="st5" d="M976.4,539.7v39.2c0,2.9,4.8,5.4,11.2,5.8l14.4,0.8c7.6,0.4,14.3-2.3,14.3-5.8V538c0-3.8-7.8-6.5-15.8-5.6
	L986,534C980.3,534.7,976.4,537,976.4,539.7z"/>
<path class="st5" d="M1066.9,535.2v47.3c0,3.5,5.6,6.5,13.1,7l16.9,1c8.9,0.5,16.8-2.7,16.8-7v-50.3c0-4.6-9.1-7.9-18.5-6.8l-16.9,2
	C1071.6,529.2,1066.9,532,1066.9,535.2z"/>
<path class="st5" d="M898.8,645.7v34.5c0,2.6,3.9,4.8,9.1,5.1l11.8,0.7c6.2,0.4,11.7-2,11.7-5.1v-36.7c0-3.3-6.3-5.8-12.9-5
	l-11.8,1.5C902,641.3,898.8,643.3,898.8,645.7z"/>
<path class="st5" d="M976.4,643.2v39.2c0,2.9,4.8,5.4,11.2,5.8l14.4,0.8c7.6,0.4,14.3-2.3,14.3-5.8v-41.7c0-3.8-7.8-6.5-15.8-5.6
	l-14.4,1.6C980.3,638.2,976.4,640.5,976.4,643.2z"/>
<path class="st5" d="M1066.9,638.7V686c0,3.5,5.6,6.5,13.1,7l16.9,1c8.9,0.5,16.8-2.7,16.8-7v-50.3c0-4.6-9.1-7.9-18.5-6.8l-16.9,2
	C1071.6,632.7,1066.9,635.5,1066.9,638.7z"/>
<path class="st5" d="M360.1,555v34.6c0,2.6,9,4.8,20.9,5.1l27.1,0.7c14.2,0.4,26.9-2,26.9-5.1v-36.8c0-3.3-14.6-5.8-29.7-5
	l-27.1,1.5C367.5,550.6,360.1,552.6,360.1,555z"/>
<path class="st5" d="M360.1,484.5v34.6c0,2.6,9,4.8,20.9,5.1l27.1,0.7c14.2,0.4,26.9-2,26.9-5.1V483c0-3.3-14.6-5.8-29.7-5
	l-27.1,1.5C367.5,480.1,360.1,482.1,360.1,484.5z"/>
<path class="st5" d="M360.1,621.8v34.6c0,2.6,9,4.8,20.9,5.1l27.1,0.7c14.2,0.4,26.9-2,26.9-5.1v-36.8c0-3.3-14.6-5.8-29.7-5
	l-27.1,1.5C367.5,617.4,360.1,619.5,360.1,621.8z"/>
<path class="st5" d="M696.3,532.5v42c0,3.1,14,5.8,32.7,6.2l42.2,0.9c22.3,0.5,41.9-2.4,41.9-6.2v-44.7c0-4-22.8-7-46.3-6l-42.2,1.8
	C708,527.2,696.3,529.7,696.3,532.5z"/>
<path class="st5" d="M696.3,458.4v42c0,3.1,14,5.8,32.7,6.2l42.2,0.9c22.3,0.5,41.9-2.4,41.9-6.2v-44.7c0-4-22.8-7-46.3-6l-42.2,1.8
	C708,453.1,696.3,455.6,696.3,458.4z"/>
<path class="st5" d="M695.4,618.2v42c0,3.1,14,5.8,32.7,6.2l42.2,0.9c22.3,0.5,41.9-2.4,41.9-6.2v-44.7c0-4-22.8-7-46.3-6l-42.2,1.8
	C707,612.9,695.4,615.3,695.4,618.2z"/>
<path class="st1" d="M245.7,332.1"/>
</svg>
