<?xml version="1.0" encoding="utf-8"?>
<!-- Generator: Adobe Illustrator 23.0.4, SVG Export Plug-In . SVG Version: 6.00 Build 0)  -->
<svg version="1.1" id="Layer_1" xmlns="http://www.w3.org/2000/svg" xmlns:xlink="http://www.w3.org/1999/xlink" x="0px" y="0px"
	 viewBox="0 0 1366 768" style="enable-background:new 0 0 1366 768;" xml:space="preserve">
<style type="text/css">
	.st0{fill:#9F3843;}
	.st1{fill:#60363C;}
	.st2{fill:#FFFFFF;}
	.st3{fill:#BEB3B3;}
	.st4{fill:#C45363;}
	.st5{fill:#D0E0FF;}
</style>
<path class="st0" d="M202.41,427.01v233.53c0,7.26,7.31,13.4,17.12,14.37l906.4,68.08V372.9L202.41,427.01z"/>
<path class="st1" d="M1125.93,743l142.88-29.43c7.79-1.61,13.18-6.82,13.18-12.76V390.16l-156.06-17.25V743z"/>
<path class="st2" d="M1116.61,373.44L156.8,428.66c-5.46,0.31-9.39-3.77-7.16-7.44l53-85.3c1.03-1.69,3.17-2.86,5.67-3.1
	l848.74-92.67c3.39-0.32,6.63,1.15,7.75,3.52l58.07,122.75C1124.42,369.7,1121.33,373.17,1116.61,373.44z"/>
<path class="st3" d="M1286.56,391.65l-160.09-18.35L1063.4,240l143.11,39.1c7.65,2.09,13.98,6.18,17.78,11.48l68.06,95.14
	C1294.48,388.69,1291.08,392.16,1286.56,391.65z"/>
<polygon class="st4" points="334.82,418.42 334.42,683.02 477.77,693.51 477.77,411.21 "/>
<polygon class="st4" points="674.81,399.4 674.81,707.6 843.45,722 843.45,389.16 "/>
<polygon class="st1" points="477.65,410.93 477.65,693.21 526.65,696.8 526.65,410.93 "/>
<polygon class="st1" points="843.21,388.98 843.21,720.65 886.58,724.71 886.58,386.68 "/>
<path class="st1" d="M210.43,386.63h35.27V276.07h-17.64h-1.75c-8.77,0-15.89,5.22-15.89,11.65v14.22"/>
<path class="st0" d="M245.7,386.63l27.79-36.07v-55.44c0-5.43-4.18-10.39-10.8-12.82l-16.99-6.23V386.63z"/>
<path class="st0" d="M70,9"/>
<path class="st5" d="M225.39,460.32v27.05c0,2.02,2.05,3.72,4.78,3.97l6.18,0.57c3.26,0.3,6.14-1.56,6.14-3.97v-28.76
	c0-2.61-3.34-4.52-6.78-3.88l-6.18,1.13C227.1,456.88,225.39,458.48,225.39,460.32z"/>
<path class="st5" d="M270.51,458.34v30.77c0,2.3,2.52,4.23,5.87,4.52l7.59,0.64c4,0.34,7.53-1.78,7.53-4.52v-32.7
	c0-2.96-4.1-5.14-8.33-4.42l-7.59,1.29C272.61,454.43,270.51,456.25,270.51,458.34z"/>
<path class="st5" d="M226.46,526.19v27.05c0,2.02,2.05,3.72,4.78,3.97l6.18,0.57c3.26,0.3,6.14-1.56,6.14-3.97v-28.76
	c0-2.61-3.34-4.52-6.78-3.89l-6.18,1.13C228.17,522.75,226.46,524.35,226.46,526.19z"/>
<path class="st5" d="M271.58,524.2v30.77c0,2.3,2.52,4.23,5.87,4.52l7.59,0.64c4,0.34,7.53-1.78,7.53-4.52v-32.7
	c0-2.96-4.1-5.14-8.33-4.42l-7.59,1.29C273.67,520.29,271.58,522.11,271.58,524.2z"/>
<path class="st5" d="M228.6,592.05v27.05c0,2.02,2.05,3.72,4.78,3.97l6.18,0.57c3.26,0.3,6.14-1.56,6.14-3.97v-28.76
	c0-2.61-3.34-4.52-6.78-3.89l-6.18,1.13C230.3,588.61,228.6,590.21,228.6,592.05z"/>
<path class="st5" d="M273.72,590.07v30.77c0,2.3,2.52,4.23,5.87,4.52l7.59,0.64c4,0.34,7.53-1.78,7.53-4.52v-32.7
	c0-2.96-4.1-5.14-8.33-4.42l-7.59,1.29C275.81,586.15,273.72,587.98,273.72,590.07z"/>
<path class="st5" d="M539.65,453.27v27.05c0,2.02,2.05,3.72,4.78,3.97l6.18,0.57c3.26,0.3,6.14-1.56,6.14-3.97v-28.76
	c0-2.61-3.34-4.52-6.78-3.88l-6.18,1.13C541.35,449.83,539.65,451.43,539.65,453.27z"/>
<path class="st5" d="M580.49,451.28v30.77c0,2.3,2.52,4.23,5.87,4.52l7.59,0.64c4,0.34,7.53-1.78,7.53-4.52v-32.7
	c0-2.96-4.1-5.14-8.33-4.42l-7.59,1.29C582.58,447.37,580.49,449.19,580.49,451.28z"/>
<path class="st5" d="M628.17,447.78v37.11c0,2.77,2.95,5.11,6.87,5.45l8.89,0.78c4.68,0.41,8.82-2.15,8.82-5.45v-39.45
	c0-3.57-4.8-6.2-9.75-5.33l-8.89,1.56C630.62,443.06,628.17,445.26,628.17,447.78z"/>
<path class="st5" d="M539.65,534.03v27.05c0,2.02,2.05,3.72,4.78,3.97l6.18,0.57c3.26,0.3,6.14-1.56,6.14-3.97v-28.76
	c0-2.61-3.34-4.52-6.78-3.89l-6.18,1.13C541.35,530.59,539.65,532.19,539.65,534.03z"/>
<path class="st5" d="M580.49,532.04v30.77c0,2.3,2.52,4.23,5.87,4.52l7.59,0.64c4,0.34,7.53-1.78,7.53-4.52v-32.7
	c0-2.96-4.1-5.14-8.33-4.42l-7.59,1.29C582.58,528.13,580.49,529.95,580.49,532.04z"/>
<path class="st5" d="M628.17,528.54v37.11c0,2.77,2.95,5.11,6.87,5.45l8.89,0.78c4.68,0.41,8.82-2.15,8.82-5.45v-39.45
	c0-3.57-4.8-6.2-9.75-5.33l-8.89,1.56C630.62,523.83,628.17,526.02,628.17,528.54z"/>
<path class="st5" d="M538.58,617.93v27.05c0,2.02,2.05,3.72,4.78,3.97l6.18,0.57c3.26,0.3,6.14-1.56,6.14-3.97v-28.76
	c0-2.61-3.34-4.52-6.78-3.89l-6.18,1.13C540.28,614.49,538.58,616.09,538.58,617.93z"/>
<path class="st5" d="M579.42,615.94v30.77c0,2.3,2.52,4.23,5.87,4.52l7.59,0.64c4,0.34,7.53-1.78,7.53-4.52v-32.7
	c0-2.96-4.1-5.14-8.33-4.42l-7.59,1.29C581.52,612.03,579.42,613.85,579.42,615.94z"/>
<path class="st5" d="M627.1,612.44v37.11c0,2.77,2.95,5.11,6.87,5.45l8.89,0.78c4.68,0.41,8.82-2.15,8.82-5.45v-39.45
	c0-3.57-4.8-6.2-9.75-5.33l-8.89,1.56C629.55,607.72,627.1,609.92,627.1,612.44z"/>
<path class="st5" d="M900.93,438.68v34.49c0,2.57,3.89,4.75,9.08,5.07l11.75,0.72c6.19,0.38,11.66-1.99,11.66-5.07v-36.66
	c0-3.32-6.34-5.76-12.88-4.95l-11.75,1.45C904.17,434.29,900.93,436.33,900.93,438.68z"/>
<path class="st5" d="M978.52,436.15v39.22c0,2.93,4.78,5.4,11.15,5.76l14.42,0.82c7.6,0.43,14.31-2.27,14.31-5.76V434.5
	c0-3.78-7.78-6.55-15.82-5.63l-14.42,1.64C982.49,431.16,978.52,433.48,978.52,436.15z"/>
<path class="st5" d="M1069.09,431.68V479c0,3.53,5.6,6.51,13.06,6.95l16.88,0.99c8.9,0.52,16.75-2.74,16.75-6.95V429.7
	c0-4.56-9.11-7.9-18.52-6.79l-16.88,1.98C1073.74,425.67,1069.09,428.47,1069.09,431.68z"/>
<path class="st5" d="M898.79,542.18v34.49c0,2.57,3.89,4.75,9.08,5.07l11.75,0.72c6.19,0.38,11.66-1.99,11.66-5.07v-36.66
	c0-3.32-6.34-5.76-12.88-4.95l-11.75,1.45C902.03,537.79,898.79,539.83,898.79,542.18z"/>
<path class="st5" d="M976.38,539.65v39.22c0,2.93,4.78,5.4,11.15,5.76l14.42,0.82c7.6,0.43,14.31-2.27,14.31-5.76V538
	c0-3.78-7.78-6.55-15.82-5.63l-14.42,1.64C980.35,534.66,976.38,536.98,976.38,539.65z"/>
<path class="st5" d="M1066.95,535.19v47.31c0,3.53,5.6,6.51,13.06,6.95l16.88,0.99c8.9,0.52,16.75-2.74,16.75-6.95V533.2
	c0-4.56-9.11-7.9-18.52-6.79l-16.88,1.98C1071.6,529.17,1066.95,531.97,1066.95,535.19z"/>
<path class="st5" d="M898.79,645.68v34.49c0,2.57,3.89,4.75,9.08,5.07l11.75,0.72c6.19,0.38,11.66-1.99,11.66-5.07v-36.66
	c0-3.32-6.34-5.76-12.88-4.95l-11.75,1.45C902.03,641.29,898.79,643.34,898.79,645.68z"/>
<path class="st5" d="M976.38,643.15v39.22c0,2.93,4.78,5.4,11.15,5.76l14.42,0.82c7.6,0.43,14.31-2.27,14.31-5.76V641.5
	c0-3.78-7.78-6.55-15.82-5.63l-14.42,1.64C980.35,638.16,976.38,640.48,976.38,643.15z"/>
<path class="st5" d="M1066.95,638.69V686c0,3.53,5.6,6.51,13.06,6.95l16.88,0.99c8.9,0.52,16.75-2.74,16.75-6.95V636.7
	c0-4.56-9.11-7.9-18.52-6.79l-16.88,1.98C1071.6,632.67,1066.95,635.47,1066.95,638.69z"/>
<path class="st5" d="M360.07,522.58v34.62c0,2.58,8.97,4.76,20.92,5.08l27.06,0.73c14.25,0.38,26.85-2,26.85-5.08v-36.79
	c0-3.33-14.6-5.78-29.68-4.97l-27.06,1.45C367.53,518.18,360.07,520.23,360.07,522.58z"/>
<path class="st5" d="M360.07,449.66v34.62c0,2.58,8.97,4.76,20.92,5.08l27.06,0.73c14.25,0.38,26.85-2,26.85-5.08v-36.79
	c0-3.33-14.6-5.78-29.68-4.97l-27.06,1.45C367.53,445.26,360.07,447.31,360.07,449.66z"/>
<path class="st5" d="M363.28,593.15v34.62c0,2.58,8.97,4.76,20.92,5.08l27.06,0.73c14.25,0.38,26.85-2,26.85-5.08V591.7
	c0-3.33-14.6-5.78-29.68-4.97l-27.06,1.45C370.74,588.75,363.28,590.8,363.28,593.15z"/>
<path class="st5" d="M690.36,532.54v42.03c0,3.14,14.01,5.78,32.67,6.17l42.25,0.88c22.26,0.46,41.92-2.43,41.92-6.17v-44.67
	c0-4.05-22.8-7.02-46.34-6.03l-42.25,1.76C702.01,527.19,690.36,529.68,690.36,532.54z"/>
<path class="st5" d="M690.36,444.01v42.03c0,3.14,14.01,5.78,32.67,6.17l42.25,0.88c22.26,0.46,41.92-2.43,41.92-6.17v-44.67
	c0-4.05-22.8-7.02-46.34-6.03l-42.25,1.76C702.01,438.67,690.36,441.16,690.36,444.01z"/>
<path class="st5" d="M695.37,618.21v42.03c0,3.14,14.01,5.78,32.67,6.17l42.25,0.88c22.26,0.46,41.92-2.43,41.92-6.17v-44.67
	c0-4.05-22.8-7.02-46.34-6.03l-42.25,1.76C707.02,612.86,695.37,615.35,695.37,618.21z"/>
<path class="st1" d="M245.7,276.07"/>
</svg>
