<?xml version="1.0" encoding="utf-8"?>
<!-- Generator: Adobe Illustrator 23.0.4, SVG Export Plug-In . SVG Version: 6.00 Build 0)  -->
<svg version="1.1" id="Layer_1" xmlns="http://www.w3.org/2000/svg" xmlns:xlink="http://www.w3.org/1999/xlink" x="0px" y="0px"
	 viewBox="0 0 1366 768" style="enable-background:new 0 0 1366 768;" xml:space="preserve">
<style type="text/css">
	.st0{fill:#9F3843;}
	.st1{fill:#60363C;}
	.st2{fill:#EFEFEF;}
	.st3{fill:#BEB3B3;}
	.st4{fill:#C45363;}
	.st5{fill:#D0E0FF;}
</style>
<path class="st0" d="M202.4,500l4.3,223.3c0,7.3,7.3,13.4,17.1,14.4l902.1,22.3V389.9L202.4,500z"/>
<path class="st1" d="M1125.9,760l142.9-29.4c7.8-1.6,13.2-6.8,13.2-12.8V407.2L1125.9,390V760L1125.9,760z"/>
<path class="st2" d="M1116.6,390.4L156.8,505.7c-5.5,0.3-9.4-3.8-7.2-7.4l53-89.3c1-1.7,3.2-2.9,5.7-3.1L1057,257.2
	c3.4-0.3,6.6,1.1,7.8,3.5l58.1,122.8C1124.4,386.7,1121.3,390.2,1116.6,390.4z"/>
<path class="st3" d="M1286.6,408.6l-160.1-18.4L1063.4,257l143.1,39.1c7.7,2.1,14,6.2,17.8,11.5l68.1,95.1
	C1294.5,405.7,1291.1,409.2,1286.6,408.6z"/>
<polygon class="st4" points="334.8,488.4 345.7,740.8 489,748.3 477.3,464.5 "/>
<polygon class="st4" points="674.8,445.7 681.8,748.6 850.4,756 843.5,427 "/>
<polygon class="st1" points="477.3,464.5 489,748.3 537.9,745.6 526.3,461.4 "/>
<polygon class="st1" points="846.8,426.2 850.2,755.7 893.5,754.7 893.2,419.9 "/>
<path class="st1" d="M210.4,459.6h35.3V349.1h-17.6h-1.8c-8.8,0-15.9,5.2-15.9,11.6v14.2"/>
<path class="st0" d="M245.7,459.6l27.8-36.1v-55.4c0-5.4-4.2-10.4-10.8-12.8l-17-6.2L245.7,459.6L245.7,459.6z"/>
<path class="st0" d="M70,9"/>
<path class="st5" d="M226.5,521.6v27c0,2,2.1,3.7,4.8,4l6.2,0.6c3.3,0.3,6.1-1.6,6.1-4v-28.8c0-2.6-3.3-4.5-6.8-3.9l-6.2,1.1
	C228.2,518.1,226.5,519.7,226.5,521.6z"/>
<path class="st5" d="M271.7,519.6v30.8c0,2.3,2.5,4.2,5.9,4.5l7.6,0.6c4,0.3,7.5-1.8,7.5-4.5v-32.7c0-3-4.1-5.1-8.3-4.4l-7.6,1.3
	C273.8,515.7,271.7,517.5,271.7,519.6z"/>
<path class="st5" d="M226.5,582.1v27c0,2,2.1,3.7,4.8,4l6.2,0.6c3.3,0.3,6.1-1.6,6.1-4V581c0-2.6-3.3-4.5-6.8-3.9l-6.2,1.1
	C228.2,578.7,226.5,580.3,226.5,582.1z"/>
<path class="st5" d="M271.7,580.1v30.8c0,2.3,2.5,4.2,5.9,4.5l7.6,0.6c4,0.3,7.5-1.8,7.5-4.5v-32.7c0-3-4.1-5.1-8.3-4.4l-7.6,1.3
	C273.8,576.2,271.7,578.1,271.7,580.1z"/>
<path class="st5" d="M226.5,642.7v27c0,2,2,3.7,4.8,4l6.2,0.6c3.3,0.3,6.1-1.6,6.1-4v-28.8c0-2.6-3.3-4.5-6.8-3.9l-6.2,1.1
	C228.2,639.3,226.5,640.9,226.5,642.7z"/>
<path class="st5" d="M271.7,640.7v30.8c0,2.3,2.5,4.2,5.9,4.5l7.6,0.6c4,0.3,7.5-1.8,7.5-4.5v-32.7c0-3-4.1-5.1-8.3-4.4l-7.6,1.3
	C273.8,636.8,271.7,638.6,271.7,640.7z"/>
<path class="st5" d="M540.2,496.4v27c0,2,2,3.7,4.8,4l6.2,0.6c3.3,0.3,6.1-1.6,6.1-4v-28.8c0-2.6-3.3-4.5-6.8-3.9l-6.2,1.1
	C541.9,492.9,540.2,494.5,540.2,496.4z"/>
<path class="st5" d="M581.1,494.4v30.8c0,2.3,2.5,4.2,5.9,4.5l7.6,0.6c4,0.3,7.5-1.8,7.5-4.5v-32.7c0-3-4.1-5.1-8.3-4.4l-7.6,1.3
	C583.2,490.5,581.1,492.3,581.1,494.4z"/>
<path class="st5" d="M628.8,490.9V528c0,2.8,3,5.1,6.9,5.5l8.9,0.8c4.7,0.4,8.8-2.1,8.8-5.4v-39.5c0-3.6-4.8-6.2-9.8-5.3l-8.9,1.6
	C631.2,486.1,628.8,488.3,628.8,490.9z"/>
<path class="st5" d="M539.2,565.6v27c0,2,2,3.7,4.8,4l6.2,0.6c3.3,0.3,6.1-1.6,6.1-4v-28.8c0-2.6-3.3-4.5-6.8-3.9l-6.2,1.1
	C540.9,562.2,539.2,563.8,539.2,565.6z"/>
<path class="st5" d="M580,563.7v30.8c0,2.3,2.5,4.2,5.9,4.5l7.6,0.6c4,0.3,7.5-1.8,7.5-4.5v-32.7c0-3-4.1-5.1-8.3-4.4l-7.6,1.3
	C582.1,559.7,580,561.6,580,563.7z"/>
<path class="st5" d="M627.7,560.2v37.1c0,2.8,3,5.1,6.9,5.5l8.9,0.8c4.7,0.4,8.8-2.2,8.8-5.5v-39.5c0-3.6-4.8-6.2-9.8-5.3l-8.9,1.6
	C630.1,555.4,627.7,557.6,627.7,560.2z"/>
<path class="st5" d="M538.6,634.9v27c0,2,2,3.7,4.8,4l6.2,0.6c3.3,0.3,6.1-1.6,6.1-4v-28.8c0-2.6-3.3-4.5-6.8-3.9l-6.2,1.1
	C540.3,631.5,538.6,633.1,538.6,634.9z"/>
<path class="st5" d="M579.4,632.9v30.8c0,2.3,2.5,4.2,5.9,4.5l7.6,0.6c4,0.3,7.5-1.8,7.5-4.5v-32.7c0-3-4.1-5.1-8.3-4.4l-7.6,1.3
	C581.5,629,579.4,630.8,579.4,632.9z"/>
<path class="st5" d="M627.1,629.4v37.1c0,2.8,3,5.1,6.9,5.5l8.9,0.8c4.7,0.4,8.8-2.2,8.8-5.5v-39.5c0-3.6-4.8-6.2-9.8-5.3l-8.9,1.6
	C629.5,624.7,627.1,626.9,627.1,629.4z"/>
<path class="st5" d="M900.9,455.7v34.5c0,2.6,3.9,4.8,9.1,5.1l11.8,0.7c6.2,0.4,11.7-2,11.7-5.1v-36.7c0-3.3-6.3-5.8-12.9-5
	l-11.8,1.5C904.2,451.3,900.9,453.3,900.9,455.7z"/>
<path class="st5" d="M978.5,453.1v39.2c0,2.9,4.8,5.4,11.2,5.8l14.4,0.8c7.6,0.4,14.3-2.3,14.3-5.8v-41.7c0-3.8-7.8-6.5-15.8-5.6
	l-14.4,1.6C982.5,448.2,978.5,450.5,978.5,453.1z"/>
<path class="st5" d="M1069.1,448.7V496c0,3.5,5.6,6.5,13.1,7l16.9,1c8.9,0.5,16.8-2.7,16.8-7v-50.3c0-4.6-9.1-7.9-18.5-6.8l-16.9,2
	C1073.7,442.7,1069.1,445.5,1069.1,448.7z"/>
<path class="st5" d="M898.8,559.2v34.5c0,2.6,3.9,4.8,9.1,5.1l11.8,0.7c6.2,0.4,11.7-2,11.7-5.1v-36.7c0-3.3-6.3-5.8-12.9-5
	l-11.8,1.5C902,554.8,898.8,556.8,898.8,559.2z"/>
<path class="st5" d="M976.4,556.7v39.2c0,2.9,4.8,5.4,11.2,5.8l14.4,0.8c7.6,0.4,14.3-2.3,14.3-5.8V555c0-3.8-7.8-6.5-15.8-5.6
	L986,551C980.3,551.7,976.4,554,976.4,556.7z"/>
<path class="st5" d="M1066.9,552.2v47.3c0,3.5,5.6,6.5,13.1,7l16.9,1c8.9,0.5,16.8-2.7,16.8-7v-50.3c0-4.6-9.1-7.9-18.5-6.8l-16.9,2
	C1071.6,546.2,1066.9,549,1066.9,552.2z"/>
<path class="st5" d="M898.8,662.7v34.5c0,2.6,3.9,4.8,9.1,5.1l11.8,0.7c6.2,0.4,11.7-2,11.7-5.1v-36.7c0-3.3-6.3-5.8-12.9-5
	l-11.8,1.5C902,658.3,898.8,660.3,898.8,662.7z"/>
<path class="st5" d="M976.4,660.2v39.2c0,2.9,4.8,5.4,11.2,5.8l14.4,0.8c7.6,0.4,14.3-2.3,14.3-5.8v-41.7c0-3.8-7.8-6.5-15.8-5.6
	l-14.4,1.6C980.3,655.2,976.4,657.5,976.4,660.2z"/>
<path class="st5" d="M1066.9,655.7V703c0,3.5,5.6,6.5,13.1,7l16.9,1c8.9,0.5,16.8-2.7,16.8-7v-50.3c0-4.6-9.1-7.9-18.5-6.8l-16.9,2
	C1071.6,649.7,1066.9,652.5,1066.9,655.7z"/>
<path class="st5" d="M360.1,572v34.6c0,2.6,9,4.8,20.9,5.1l27.1,0.7c14.2,0.4,26.9-2,26.9-5.1v-36.8c0-3.3-14.6-5.8-29.7-5
	l-27.1,1.5C367.5,567.6,360.1,569.6,360.1,572z"/>
<path class="st5" d="M360.1,501.5v34.6c0,2.6,9,4.8,20.9,5.1l27.1,0.7c14.2,0.4,26.9-2,26.9-5.1V500c0-3.3-14.6-5.8-29.7-5
	l-27.1,1.5C367.5,497.1,360.1,499.1,360.1,501.5z"/>
<path class="st5" d="M360.1,638.8v34.6c0,2.6,9,4.8,20.9,5.1l27.1,0.7c14.2,0.4,26.9-2,26.9-5.1v-36.8c0-3.3-14.6-5.8-29.7-5
	l-27.1,1.5C367.5,634.4,360.1,636.5,360.1,638.8z"/>
<path class="st5" d="M696.3,549.5v42c0,3.1,14,5.8,32.7,6.2l42.2,0.9c22.3,0.5,41.9-2.4,41.9-6.2v-44.7c0-4-22.8-7-46.3-6l-42.2,1.8
	C708,544.2,696.3,546.7,696.3,549.5z"/>
<path class="st5" d="M696.3,475.4v42c0,3.1,14,5.8,32.7,6.2l42.2,0.9c22.3,0.5,41.9-2.4,41.9-6.2v-44.7c0-4-22.8-7-46.3-6l-42.2,1.8
	C708,470.1,696.3,472.6,696.3,475.4z"/>
<path class="st5" d="M695.4,635.2v42c0,3.1,14,5.8,32.7,6.2l42.2,0.9c22.3,0.5,41.9-2.4,41.9-6.2v-44.7c0-4-22.8-7-46.3-6l-42.2,1.8
	C707,629.9,695.4,632.3,695.4,635.2z"/>
<path class="st1" d="M245.7,349.1"/>
</svg>
