<?xml version="1.0" encoding="utf-8"?>
<!-- Generator: Adobe Illustrator 23.0.4, SVG Export Plug-In . SVG Version: 6.00 Build 0)  -->
<svg version="1.1" id="Layer_1" xmlns="http://www.w3.org/2000/svg" xmlns:xlink="http://www.w3.org/1999/xlink" x="0px" y="0px"
	 viewBox="0 0 1366 768" style="enable-background:new 0 0 1366 768;" xml:space="preserve">
<style type="text/css">
	.st0{fill:#E0D9D9;}
	.st1{fill:#CECECE;}
	.st2{fill:#FFFFFF;}
	.st3{fill:#9F3843;}
	.st4{fill:#C45363;}
	.st5{fill:#60363C;}
	.st6{fill:#B2B2B2;}
	.st7{fill:#E2E2E2;}
	.st8{fill:#8BB8FF;}
	.st9{fill:#502022;}
	.st10{fill:#D0E0FF;}
	.st11{fill:#C2B4B4;}
</style>
<g>
	
		<image style="display:none;overflow:visible;opacity:0.6;enable-background:new    ;" width="1200" height="800" xlink:href="B275A67D3E64EC30.jpg"  transform="matrix(1 0 0 1 83 25)">
	</image>
	<path class="st0" d="M1060.6,473h59.5c3.7,0,6.9-2.5,7.9-6.1l13.4-50.3c0.5-1.9-0.9-3.7-2.8-3.7h-100.4c-2.3,0-4.3,1.8-4.4,4.2
		l-0.3,4.7L1060.6,473z"/>
	<path class="st1" d="M273.8,382.5h-16.2c-2.1,0-3.4-2.2-2.3-4l75.3-132.6v29.5L273.8,382.5"/>
	<path class="st2" d="M407.6,204.5h-16.9l90.3,84.8l599.6,180.6c1.8-0.2,3.3-2.5,1.9-3.9l-44.1-42.3c-1.2-1.2-2.7-2.2-4.2-1.9
		L407.6,205.5l-16.9-1"/>
	<path class="st2" d="M330.6,173.4l43.2-26.3v-10.8l-37.4,23.3c-3.7,2.3-5.9,6.3-5.9,10.7L330.6,173.4"/>
	<path class="st1" d="M373.8,136.2V147l33.8,18v-2.3c0-4.8-2.6-9.3-6.8-11.6L373.8,136.2z"/>
	<polyline class="st3" points="481,288.3 481,747 1060.6,722.7 1060.6,463.9 481,289.3 481,747 	"/>
	<polygon class="st4" points="635.5,337.2 635.5,608 710.4,608 710.4,358.4 	"/>
	<polygon class="st4" points="844.2,396.8 844.2,639.2 898,639.2 893.7,411.5 	"/>
	<polygon class="st5" points="623.6,331.5 623.6,613.1 635.5,608 635.5,337.2 	"/>
	<polygon class="st5" points="844.2,396.8 844.2,639.2 834.9,645.5 834.9,395.9 	"/>
	<polygon class="st6" points="623.6,622.4 704.9,622.4 709.4,614.4 635.5,617.6 	"/>
	<path class="st2" d="M635.5,608v9.6h69.7c2.9,0,5.3-2.4,5.3-5.4V608H635.5z"/>
	<polygon class="st6" points="834.9,650.8 894,650.8 896.9,644.4 844.2,645.5 	"/>
	<path class="st2" d="M844.2,639.2v6.3h50.7c1.7,0,3.1-1.4,3.1-3.1v-3.2L844.2,639.2L844.2,639.2z"/>
	<polygon class="st7" points="844.2,639.2 844.2,645.5 834.9,650.8 834.9,645.5 	"/>
	<polygon class="st7" points="635.5,608 635.5,617.6 623.6,622.4 623.6,613.1 	"/>
	<path class="st2" d="M586.1,650.8h23.8c5.8,0,10.6,5.3,10.6,11.8v49.3c0,6.3-4.5,11.5-10.1,11.8l-24.8,1.1c-6.1,0.3-11.2-5.2-11-12
		l1-50.4C575.7,655.9,580.4,650.8,586.1,650.8z"/>
	<path class="st2" d="M701.1,656.8h19.5c4.8,0,8.7,4.4,8.7,9.9v41.3c0,5.3-3.7,9.7-8.3,9.9l-20.3,1c-5,0.2-9.1-4.4-9-10.1l0.8-42.2
		C692.6,661.1,696.4,656.8,701.1,656.8z"/>
	<path class="st2" d="M794.8,673.1h9.7c2.4,0,4.3,3.1,4.3,6.9v28.9c0,3.7-1.8,6.8-4.2,6.9l-10.1,0.7c-2.5,0.2-4.6-3.1-4.5-7.1
		l0.4-29.6C790.5,676.1,792.4,673.1,794.8,673.1z"/>
	<path class="st2" d="M825.5,673.1h9.7c2.4,0,4.3,3.1,4.3,6.9v28.9c0,3.7-1.8,6.8-4.2,6.9l-10.1,0.7c-2.5,0.2-4.6-3.1-4.5-7.1
		l0.4-29.6C821.2,676.1,823.1,673.1,825.5,673.1z"/>
	<path class="st2" d="M876.9,679.5h7.4c1.8,0,3.3,2.6,3.3,5.7v23.9c0,3.1-1.4,5.6-3.2,5.7l-7.7,0.5c-1.9,0.1-3.5-2.5-3.4-5.8
		l0.3-24.4C873.7,682,875.2,679.5,876.9,679.5z"/>
	<path class="st2" d="M901.6,679.5h7.4c1.8,0,3.3,2.6,3.3,5.7v23.9c0,3.1-1.4,5.6-3.2,5.7l-7.7,0.5c-1.9,0.1-3.5-2.5-3.4-5.8
		l0.3-24.4C898.3,682,899.8,679.5,901.6,679.5z"/>
	<path class="st8" d="M939.4,673.1l18.8,6.4v35.8h-14c-2.7,0-4.8-2.2-4.8-4.9L939.4,673.1L939.4,673.1z"/>
	<path class="st9" d="M1126.3,473l0.1,247.5l16.6-2.7c5-0.8,8.6-5.2,8.6-10.2V473l-14.8-39.6L1126.3,473h-11h-54.8v249.7l65.8-2.2
		L1126.3,473"/>
	<path class="st10" d="M958.2,715.4h118.4c3.4,0,6.1-2.8,6-6.2l-0.7-22.3c-0.1-4.1-3.4-7.3-7.4-7.3H958.2V715.4z"/>
	<polygon class="st2" points="958.2,679.5 1075.3,679.5 1060.6,674.4 939.4,673.1 	"/>
	<path class="st11" d="M1140.2,414l19.1,53.5c0.8,2.7-1.2,5.5-4,5.5h-3.6l-14.8-39.6L1140.2,414z"/>
</g>
<g>
	<path class="st2" d="M234.6,747"/>
	<path class="st9" d="M266.6,405.5v330.8c0,5.9,4.7,10.6,10.5,10.6H481V288.3L378.3,185.2L271,387.8
		C268.1,393.2,266.6,399.3,266.6,405.5z"/>
	<path class="st2" d="M430.7,366.2v35.5c0,4.1,5.6,6.9,11,5.5l10.5-2.8c3.2-0.9,5.3-3,5.3-5.5v-35.5c0-4.1-5.6-6.9-11-5.5l-10.5,2.8
		C432.8,361.6,430.7,363.7,430.7,366.2z"/>
	<path class="st2" d="M430.7,459.6v35.5c0,4.1,5.6,6.9,11,5.5l10.5-2.8c3.2-0.9,5.3-3,5.3-5.5v-35.5c0-4.1-5.6-6.9-11-5.5l-10.5,2.8
		C432.8,455,430.7,457.2,430.7,459.6z"/>
	<path class="st2" d="M430.7,553.1v35.5c0,4.1,5.6,6.9,11,5.5l10.5-2.8c3.2-0.8,5.3-3,5.3-5.5v-35.5c0-4.1-5.6-6.9-11-5.5l-10.5,2.8
		C432.8,548.5,430.7,550.7,430.7,553.1z"/>
	<path class="st2" d="M279.8,410v30.8c0,3.5,4,6,7.8,4.7l7.4-2.5c2.2-0.7,3.7-2.6,3.7-4.7v-30.8c0-3.5-4-6-7.8-4.7l-7.4,2.5
		C281.3,406,279.8,407.9,279.8,410z"/>
	<path class="st2" d="M279.8,491.1v30.8c0,3.5,4,6,7.8,4.7l7.4-2.5c2.2-0.7,3.7-2.6,3.7-4.7v-30.8c0-3.5-4-6-7.8-4.7l-7.4,2.5
		C281.3,487.1,279.8,489,279.8,491.1z"/>
	<path class="st2" d="M279.8,572.2V603c0,3.5,4,6,7.8,4.7l7.4-2.5c2.2-0.7,3.7-2.6,3.7-4.7v-30.8c0-3.5-4-6-7.8-4.7l-7.4,2.5
		C281.3,568.2,279.8,570.1,279.8,572.2z"/>
	<polygon class="st3" points="330.6,747 330.6,173.4 373.8,147 373.8,747 	"/>
	<polygon class="st5" points="373.8,147 407.6,165 407.6,204.5 390.7,204.5 373.8,193.7 	"/>
	<path class="st5" d="M-38.9,93.8"/>
	<path class="st2" d="M507,352v45c0,1.5,1.1,2.8,2.5,3.1l23.1,4.2c1.9,0.4,3.6-1.1,3.6-3.1v-40.4c0-1.3-0.8-2.5-2-2.9l-23.1-8.8
		C509.2,348.3,507,349.8,507,352L507,352z"/>
	<path class="st2" d="M566.2,365.7v45c0,1.5,1.1,2.8,2.5,3.1l23.1,4.2c1.9,0.4,3.6-1.1,3.6-3.1v-40.4c0-1.3-0.8-2.5-2-2.9l-23.1-8.8
		C568.4,362,566.2,363.5,566.2,365.7L566.2,365.7z"/>
	<path class="st2" d="M507,448.2v40.7c0,1.5,1.1,2.8,2.5,3.1l23.1,4.2c1.9,0.4,3.6-1.1,3.6-3.1v-40.4c0-1.3-0.8-2.5-2-2.9l-23.1-5.6
		c-2-0.8-4.2,0.7-4.2,2.9L507,448.2L507,448.2z"/>
	<path class="st2" d="M568.2,458.7v41.8c0,1.5,1.1,2.8,2.5,3.1l23.1,4.2c1.9,0.4,3.6-1.1,3.6-3.1v-40.4c0-1.3-0.8-2.5-2-2.9
		l-23.1-5.6c-2-0.8-4.2-0.3-4.2,1.9V458.7z"/>
	<path class="st2" d="M507,540.2v40.7c0,1.5,1.1,2.8,2.5,3.1l23.1,2.1c1.9,0.3,3.6-1.1,3.6-3.1v-38.3c0-1.3-0.8-2.5-2-2.9l-23.1-5.6
		c-2-0.8-4.2,0.7-4.2,2.9L507,540.2L507,540.2z"/>
	<path class="st2" d="M568.2,547.5v41.8c0,1.5,1.1,2.8,2.5,3.1l23.1,2.1c1.9,0.3,3.6-1.1,3.6-3.1v-38.3c0-1.3-0.8-2.5-2-2.9
		l-23.1-5.6c-2-0.8-4.2-0.3-4.2,1.9V547.5z"/>
	<path class="st2" d="M740.8,404.8v32.8c0,1.1,0.8,2,1.8,2.2l16.3,3.1c1.3,0.2,2.6-0.8,2.6-2.2v-29.5c0-1-0.6-1.8-1.4-2.1l-16.3-6.4
		C742.3,402.1,740.8,403.2,740.8,404.8L740.8,404.8z"/>
	<path class="st2" d="M782.5,414.8v32.8c0,1.1,0.8,2,1.8,2.2l16.3,3.1c1.3,0.2,2.6-0.8,2.6-2.2v-29.5c0-1-0.6-1.8-1.4-2.1l-16.3-6.4
		C784,412.1,782.5,413.2,782.5,414.8L782.5,414.8z"/>
	<path class="st2" d="M738.9,488.4V518c0,1.1,0.8,2,1.8,2.2l16.3,3.1c1.3,0.2,2.6-0.8,2.6-2.2v-29.5c0-1-0.6-1.8-1.4-2.1l-16.3-4.1
		c-1.4-0.6-2.9,0.5-2.9,2.1V488.4z"/>
	<path class="st2" d="M782,496v30.5c0,1.1,0.8,2,1.8,2.2l16.3,3.1c1.3,0.2,2.6-0.8,2.6-2.2v-29.5c0-1-0.6-1.8-1.4-2.1l-16.3-4.1
		c-1.4-0.6-2.9-0.2-2.9,1.4V496z"/>
	<path class="st2" d="M738.9,568.1v29.7c0,1.1,0.8,2,1.8,2.2l16.3,1.5c1.3,0.2,2.6-0.8,2.6-2.2v-27.9c0-1-0.6-1.8-1.4-2.1l-16.3-4.1
		c-1.4-0.6-2.9,0.5-2.9,2.1V568.1z"/>
	<path class="st2" d="M782,573.4v30.5c0,1.1,0.8,2,1.8,2.2l16.3,1.5c1.3,0.2,2.6-0.8,2.6-2.2v-27.9c0-1-0.6-1.8-1.4-2.1l-16.3-4.1
		c-1.4-0.6-2.9-0.2-2.9,1.3V573.4z"/>
	<path class="st2" d="M922.1,451.6v26c0,0.9,0.6,1.6,1.5,1.8l13.7,2.5c1.1,0.2,2.2-0.6,2.2-1.8v-23.3c0-0.8-0.5-1.4-1.2-1.7
		l-13.7-5.1C923.3,449.5,922.1,450.3,922.1,451.6L922.1,451.6z"/>
	<path class="st2" d="M962.3,464.6v24.9c0,0.8,0.5,1.5,1.3,1.7l11.9,2.4c1,0.2,1.9-0.6,1.9-1.7v-22.4c0-0.7-0.4-1.4-1-1.6l-11.9-4.9
		C963.5,462.6,962.3,463.4,962.3,464.6L962.3,464.6z"/>
	<path class="st2" d="M917.5,525.8v23.5c0,0.9,0.6,1.6,1.5,1.8l13.7,2.5c1.1,0.2,2.2-0.7,2.2-1.8v-23.3c0-0.8-0.5-1.4-1.2-1.7
		l-13.7-3.2c-1.2-0.4-2.5,0.4-2.5,1.7L917.5,525.8L917.5,525.8z"/>
	<path class="st2" d="M958.8,534.9v23.2c0,0.8,0.5,1.5,1.3,1.7l11.9,2.4c1,0.2,1.9-0.6,1.9-1.7v-22.4c0-0.7-0.4-1.4-1-1.6l-11.9-3.1
		c-1-0.4-2.2-0.2-2.2,1L958.8,534.9L958.8,534.9z"/>
	<path class="st2" d="M922.1,596.4v23.5c0,0.9,0.6,1.6,1.5,1.8l13.7,1.2c1.1,0.2,2.2-0.7,2.2-1.8V599c0-0.8-0.5-1.4-1.2-1.7
		l-13.7-3.2c-1.2-0.4-2.5,0.4-2.5,1.7L922.1,596.4L922.1,596.4z"/>
	<path class="st2" d="M963.4,601.7v23.2c0,0.8,0.5,1.5,1.3,1.7l11.9,1.2c1,0.2,1.9-0.6,1.9-1.7v-21.2c0-0.7-0.4-1.4-1-1.6l-11.9-3.1
		c-1-0.4-2.2-0.2-2.2,1L963.4,601.7L963.4,601.7z"/>
	<path class="st2" d="M1001.1,479.2v24c0,0.8,0.5,1.5,1.1,1.6l10.4,2.3c0.8,0.2,1.6-0.6,1.6-1.6V484c0-0.7-0.4-1.3-0.9-1.6
		l-10.4-4.7C1002,477.3,1001.1,478.1,1001.1,479.2L1001.1,479.2z"/>
	<path class="st2" d="M997.4,547.5v22.2c0,0.8,0.5,1.5,1.1,1.6l10.4,2.3c0.8,0.2,1.6-0.6,1.6-1.6v-21.5c0-0.7-0.4-1.3-0.9-1.6
		l-10.4-3c-0.9-0.4-1.9-0.2-1.9,1V547.5z"/>
	<path class="st2" d="M1002,607.4v22.2c0,0.8,0.5,1.5,1.1,1.6l10.4,1.1c0.8,0.2,1.6-0.6,1.6-1.6v-20.4c0-0.7-0.4-1.3-0.9-1.6
		l-10.4-3c-0.9-0.4-1.9-0.2-1.9,1V607.4z"/>
	<path class="st2" d="M1039.3,497.7v19.8c0,0.7,0.3,1.2,0.8,1.3l7.3,1.9c0.6,0.2,1.1-0.5,1.1-1.3v-17.8c0-0.6-0.2-1.1-0.6-1.3
		l-7.3-3.9C1040,496.1,1039.3,496.7,1039.3,497.7L1039.3,497.7z"/>
	<path class="st2" d="M1035.3,557.5v18.4c0,0.7,0.3,1.2,0.8,1.3l7.3,1.9c0.6,0.2,1.1-0.5,1.1-1.3v-17.8c0-0.6-0.2-1.1-0.6-1.3
		l-7.3-2.5c-0.6-0.3-1.3-0.2-1.3,0.8V557.5z"/>
	<path class="st2" d="M1039.9,614.1v18.4c0,0.7,0.3,1.2,0.8,1.3l7.3,0.9c0.6,0.2,1.1-0.5,1.1-1.3v-16.9c0-0.6-0.2-1.1-0.6-1.3
		l-7.3-2.5c-0.6-0.3-1.3-0.2-1.3,0.8V614.1z"/>
	<path class="st2" d="M1137.3,503.1v17.7c0,0.6,0.3,1.1,0.7,1.2l6.8,1.7c0.6,0.1,1.1-0.4,1.1-1.2v-15.9c0-0.5-0.2-1-0.6-1.2
		l-6.8-3.5C1137.9,501.6,1137.3,502.2,1137.3,503.1L1137.3,503.1z"/>
	<path class="st2" d="M1137.3,556v16.4c0,0.6,7.1,2.8,7.5,2.9l0,0c0.6,0.1,1.1-0.4,1.1-1.2v-15.9c0-0.5-0.2-1-0.6-1.2l-6.8-2.2
		c-0.6-0.3-1.2-0.1-1.2,0.7L1137.3,556L1137.3,556z"/>
	<path class="st2" d="M1136.7,613.8v16.4c0,0.6,0.3,1.1,0.7,1.2l6.8,0.8c0.6,0.1,1.1-0.4,1.1-1.2v-15c0-0.5-0.2-1-0.6-1.2l-6.8-2.2
		c-0.6-0.3-1.2-0.1-1.2,0.7L1136.7,613.8L1136.7,613.8z"/>
</g>
</svg>
