<?xml version="1.0" encoding="utf-8"?>
<!-- Generator: Adobe Illustrator 23.0.4, SVG Export Plug-In . SVG Version: 6.00 Build 0)  -->
<svg version="1.1" id="Layer_1" xmlns="http://www.w3.org/2000/svg" xmlns:xlink="http://www.w3.org/1999/xlink" x="0px" y="0px"
	 viewBox="0 0 1366 768" style="enable-background:new 0 0 1366 768;" xml:space="preserve">
<style type="text/css">
	.st0{fill:#E0D9D9;}
	.st1{fill:#CECECE;}
	.st2{fill:#EDEDED;}
	.st3{fill:#EAEAEA;}
	.st4{fill:#9F3843;}
	.st5{fill:#C45363;}
	.st6{fill:#60363C;}
	.st7{fill:#B2B2B2;}
	.st8{fill:#FFFFFF;}
	.st9{fill:#E2E2E2;}
	.st10{fill:#8BB8FF;}
	.st11{fill:#502022;}
	.st12{fill:#D0E0FF;}
	.st13{fill:#C2B4B4;}
</style>
<g>
	
		<image style="display:none;overflow:visible;opacity:0.6;enable-background:new    ;" width="1200" height="800" xlink:href="B275A67D3E64EC30.jpg"  transform="matrix(1 0 0 1 83 42)">
	</image>
	<path class="st0" d="M1060.6,490h59.5c3.7,0,6.9-2.5,7.9-6.1l13.4-50.3c0.5-1.9-0.9-3.7-2.8-3.7h-100.4c-2.3,0-4.3,1.8-4.4,4.2
		l-0.3,4.7L1060.6,490z"/>
	<path class="st1" d="M273.8,399.5h-16.2c-2.1,0-3.4-2.2-2.3-4l75.3-132.6v29.5L273.8,399.5"/>
	<path class="st2" d="M407.6,221.5h-16.9l90.3,84.8l599.6,180.6c1.8-0.2,3.3-2.5,1.9-3.9l-44.1-42.3c-1.2-1.2-2.7-2.2-4.2-1.9
		L407.6,222.5l-16.9-1"/>
	<path class="st3" d="M330.6,190.4l43.2-26.3v-10.8l-37.4,23.3c-3.7,2.3-5.9,6.3-5.9,10.7L330.6,190.4"/>
	<path class="st1" d="M373.8,153.2V164l33.8,18v-2.3c0-4.8-2.6-9.3-6.8-11.6L373.8,153.2z"/>
	<polyline class="st4" points="481,305.3 481,764 1060.6,739.7 1060.6,480.9 481,306.3 481,764 	"/>
	<polygon class="st5" points="635.5,354.2 635.5,625 710.4,625 710.4,375.4 	"/>
	<polygon class="st5" points="844.2,413.8 844.2,656.2 898,656.2 893.7,428.5 	"/>
	<polygon class="st6" points="623.6,348.5 623.6,630.1 635.5,625 635.5,354.2 	"/>
	<polygon class="st6" points="844.2,413.8 844.2,656.2 834.9,662.5 834.9,412.9 	"/>
	<polygon class="st7" points="623.6,639.4 704.9,639.4 709.4,631.4 635.5,634.6 	"/>
	<path class="st8" d="M635.5,625v9.6h69.7c2.9,0,5.3-2.4,5.3-5.4V625H635.5z"/>
	<polygon class="st7" points="834.9,667.8 894,667.8 896.9,661.4 844.2,662.5 	"/>
	<path class="st8" d="M844.2,656.2v6.3h50.7c1.7,0,3.1-1.4,3.1-3.1v-3.2H844.2L844.2,656.2z"/>
	<polygon class="st9" points="844.2,656.2 844.2,662.5 834.9,667.8 834.9,662.5 	"/>
	<polygon class="st9" points="635.5,625 635.5,634.6 623.6,639.4 623.6,630.1 	"/>
	<path class="st8" d="M586.1,667.8h23.8c5.8,0,10.6,5.3,10.6,11.8v49.3c0,6.3-4.5,11.5-10.1,11.8l-24.8,1.1c-6.1,0.3-11.2-5.2-11-12
		l1-50.4C575.7,672.9,580.4,667.8,586.1,667.8z"/>
	<path class="st8" d="M701.1,673.8h19.5c4.8,0,8.7,4.4,8.7,9.9V725c0,5.3-3.7,9.7-8.3,9.9l-20.3,1c-5,0.2-9.1-4.4-9-10.1l0.8-42.2
		C692.6,678.1,696.4,673.8,701.1,673.8z"/>
	<path class="st8" d="M794.8,690.1h9.7c2.4,0,4.3,3.1,4.3,6.9v28.9c0,3.7-1.8,6.8-4.2,6.9l-10.1,0.7c-2.5,0.2-4.6-3.1-4.5-7.1
		l0.4-29.6C790.5,693.1,792.4,690.1,794.8,690.1z"/>
	<path class="st8" d="M825.5,690.1h9.7c2.4,0,4.3,3.1,4.3,6.9v28.9c0,3.7-1.8,6.8-4.2,6.9l-10.1,0.7c-2.5,0.2-4.6-3.1-4.5-7.1
		l0.4-29.6C821.2,693.1,823.1,690.1,825.5,690.1z"/>
	<path class="st8" d="M876.9,696.5h7.4c1.8,0,3.3,2.6,3.3,5.7v23.9c0,3.1-1.4,5.6-3.2,5.7l-7.7,0.5c-1.9,0.1-3.5-2.5-3.4-5.8
		l0.3-24.4C873.7,699,875.2,696.5,876.9,696.5z"/>
	<path class="st8" d="M901.6,696.5h7.4c1.8,0,3.3,2.6,3.3,5.7v23.9c0,3.1-1.4,5.6-3.2,5.7l-7.7,0.5c-1.9,0.1-3.5-2.5-3.4-5.8
		l0.3-24.4C898.3,699,899.8,696.5,901.6,696.5z"/>
	<path class="st10" d="M939.4,690.1l18.8,6.4v35.8h-14c-2.7,0-4.8-2.2-4.8-4.9V690.1L939.4,690.1z"/>
	<path class="st11" d="M1126.3,490l0.1,247.5l16.6-2.7c5-0.8,8.6-5.2,8.6-10.2V490l-14.8-39.6L1126.3,490h-11h-54.8v249.7l65.8-2.2
		V490"/>
	<path class="st12" d="M958.2,732.4h118.4c3.4,0,6.1-2.8,6-6.2l-0.7-22.3c-0.1-4.1-3.4-7.3-7.4-7.3H958.2V732.4z"/>
	<polygon class="st8" points="958.2,696.5 1075.3,696.5 1060.6,691.4 939.4,690.1 	"/>
	<path class="st13" d="M1140.2,431l19.1,53.5c0.8,2.7-1.2,5.5-4,5.5h-3.6l-14.8-39.6L1140.2,431z"/>
</g>
<g>
	<path class="st8" d="M234.6,764"/>
	<path class="st11" d="M266.6,422.5v330.8c0,5.9,4.7,10.6,10.5,10.6H481V305.3L378.3,202.2L271,404.8
		C268.1,410.2,266.6,416.3,266.6,422.5z"/>
	<path class="st8" d="M430.7,383.2v35.5c0,4.1,5.6,6.9,11,5.5l10.5-2.8c3.2-0.9,5.3-3,5.3-5.5v-35.5c0-4.1-5.6-6.9-11-5.5l-10.5,2.8
		C432.8,378.6,430.7,380.7,430.7,383.2z"/>
	<path class="st8" d="M430.7,476.6v35.5c0,4.1,5.6,6.9,11,5.5l10.5-2.8c3.2-0.9,5.3-3,5.3-5.5v-35.5c0-4.1-5.6-6.9-11-5.5l-10.5,2.8
		C432.8,472,430.7,474.2,430.7,476.6z"/>
	<path class="st8" d="M430.7,570.1v35.5c0,4.1,5.6,6.9,11,5.5l10.5-2.8c3.2-0.8,5.3-3,5.3-5.5v-35.5c0-4.1-5.6-6.9-11-5.5l-10.5,2.8
		C432.8,565.5,430.7,567.7,430.7,570.1z"/>
	<path class="st8" d="M279.8,427v30.8c0,3.5,4,6,7.8,4.7l7.4-2.5c2.2-0.7,3.7-2.6,3.7-4.7v-30.8c0-3.5-4-6-7.8-4.7l-7.4,2.5
		C281.3,423,279.8,424.9,279.8,427z"/>
	<path class="st8" d="M279.8,508.1v30.8c0,3.5,4,6,7.8,4.7l7.4-2.5c2.2-0.7,3.7-2.6,3.7-4.7v-30.8c0-3.5-4-6-7.8-4.7l-7.4,2.5
		C281.3,504.1,279.8,506,279.8,508.1z"/>
	<path class="st8" d="M279.8,589.2V620c0,3.5,4,6,7.8,4.7l7.4-2.5c2.2-0.7,3.7-2.6,3.7-4.7v-30.8c0-3.5-4-6-7.8-4.7l-7.4,2.5
		C281.3,585.2,279.8,587.1,279.8,589.2z"/>
	<polygon class="st4" points="330.6,764 330.6,190.4 373.8,164 373.8,764 	"/>
	<polygon class="st6" points="373.8,164 407.6,182 407.6,221.5 390.7,221.5 373.8,210.7 	"/>
	<path class="st6" d="M-38.9,110.8"/>
	<path class="st8" d="M507,369v45c0,1.5,1.1,2.8,2.5,3.1l23.1,4.2c1.9,0.4,3.6-1.1,3.6-3.1v-40.4c0-1.3-0.8-2.5-2-2.9l-23.1-8.8
		C509.2,365.3,507,366.8,507,369L507,369z"/>
	<path class="st8" d="M566.2,382.7v45c0,1.5,1.1,2.8,2.5,3.1l23.1,4.2c1.9,0.4,3.6-1.1,3.6-3.1v-40.4c0-1.3-0.8-2.5-2-2.9l-23.1-8.8
		C568.4,379,566.2,380.5,566.2,382.7L566.2,382.7z"/>
	<path class="st8" d="M507,465.2v40.7c0,1.5,1.1,2.8,2.5,3.1l23.1,4.2c1.9,0.4,3.6-1.1,3.6-3.1v-40.4c0-1.3-0.8-2.5-2-2.9l-23.1-5.6
		c-2-0.8-4.2,0.7-4.2,2.9L507,465.2L507,465.2z"/>
	<path class="st8" d="M568.2,475.7v41.8c0,1.5,1.1,2.8,2.5,3.1l23.1,4.2c1.9,0.4,3.6-1.1,3.6-3.1v-40.4c0-1.3-0.8-2.5-2-2.9
		l-23.1-5.6c-2-0.8-4.2-0.3-4.2,1.9v1H568.2z"/>
	<path class="st8" d="M507,557.2v40.7c0,1.5,1.1,2.8,2.5,3.1l23.1,2.1c1.9,0.3,3.6-1.1,3.6-3.1v-38.3c0-1.3-0.8-2.5-2-2.9l-23.1-5.6
		c-2-0.8-4.2,0.7-4.2,2.9L507,557.2L507,557.2z"/>
	<path class="st8" d="M568.2,564.5v41.8c0,1.5,1.1,2.8,2.5,3.1l23.1,2.1c1.9,0.3,3.6-1.1,3.6-3.1v-38.3c0-1.3-0.8-2.5-2-2.9
		l-23.1-5.6c-2-0.8-4.2-0.3-4.2,1.9v1H568.2z"/>
	<path class="st8" d="M740.8,421.8v32.8c0,1.1,0.8,2,1.8,2.2l16.3,3.1c1.3,0.2,2.6-0.8,2.6-2.2v-29.5c0-1-0.6-1.8-1.4-2.1l-16.3-6.4
		C742.3,419.1,740.8,420.2,740.8,421.8L740.8,421.8z"/>
	<path class="st8" d="M782.5,431.8v32.8c0,1.1,0.8,2,1.8,2.2l16.3,3.1c1.3,0.2,2.6-0.8,2.6-2.2v-29.5c0-1-0.6-1.8-1.4-2.1l-16.3-6.4
		C784,429.1,782.5,430.2,782.5,431.8L782.5,431.8z"/>
	<path class="st8" d="M738.9,505.4V535c0,1.1,0.8,2,1.8,2.2l16.3,3.1c1.3,0.2,2.6-0.8,2.6-2.2v-29.5c0-1-0.6-1.8-1.4-2.1l-16.3-4.1
		c-1.4-0.6-2.9,0.5-2.9,2.1L738.9,505.4L738.9,505.4z"/>
	<path class="st8" d="M782,513v30.5c0,1.1,0.8,2,1.8,2.2l16.3,3.1c1.3,0.2,2.6-0.8,2.6-2.2v-29.5c0-1-0.6-1.8-1.4-2.1l-16.3-4.1
		c-1.4-0.6-2.9-0.2-2.9,1.4L782,513L782,513z"/>
	<path class="st8" d="M738.9,585.1v29.7c0,1.1,0.8,2,1.8,2.2l16.3,1.5c1.3,0.2,2.6-0.8,2.6-2.2v-27.9c0-1-0.6-1.8-1.4-2.1l-16.3-4.1
		c-1.4-0.6-2.9,0.5-2.9,2.1L738.9,585.1L738.9,585.1z"/>
	<path class="st8" d="M782,590.4v30.5c0,1.1,0.8,2,1.8,2.2l16.3,1.5c1.3,0.2,2.6-0.8,2.6-2.2v-27.9c0-1-0.6-1.8-1.4-2.1l-16.3-4.1
		c-1.4-0.6-2.9-0.2-2.9,1.3L782,590.4L782,590.4z"/>
	<path class="st8" d="M922.1,468.6v26c0,0.9,0.6,1.6,1.5,1.8l13.7,2.5c1.1,0.2,2.2-0.6,2.2-1.8v-23.3c0-0.8-0.5-1.4-1.2-1.7
		l-13.7-5.1C923.3,466.5,922.1,467.3,922.1,468.6L922.1,468.6z"/>
	<path class="st8" d="M962.3,481.6v24.9c0,0.8,0.5,1.5,1.3,1.7l11.9,2.4c1,0.2,1.9-0.6,1.9-1.7v-22.4c0-0.7-0.4-1.4-1-1.6l-11.9-4.9
		C963.5,479.6,962.3,480.4,962.3,481.6L962.3,481.6z"/>
	<path class="st8" d="M917.5,542.8v23.5c0,0.9,0.6,1.6,1.5,1.8l13.7,2.5c1.1,0.2,2.2-0.7,2.2-1.8v-23.3c0-0.8-0.5-1.4-1.2-1.7
		l-13.7-3.2c-1.2-0.4-2.5,0.4-2.5,1.7V542.8L917.5,542.8z"/>
	<path class="st8" d="M958.8,551.9v23.2c0,0.8,0.5,1.5,1.3,1.7l11.9,2.4c1,0.2,1.9-0.6,1.9-1.7v-22.4c0-0.7-0.4-1.4-1-1.6l-11.9-3.1
		c-1-0.4-2.2-0.2-2.2,1V551.9L958.8,551.9z"/>
	<path class="st8" d="M922.1,613.4v23.5c0,0.9,0.6,1.6,1.5,1.8l13.7,1.2c1.1,0.2,2.2-0.7,2.2-1.8V616c0-0.8-0.5-1.4-1.2-1.7
		l-13.7-3.2c-1.2-0.4-2.5,0.4-2.5,1.7V613.4L922.1,613.4z"/>
	<path class="st8" d="M963.4,618.7v23.2c0,0.8,0.5,1.5,1.3,1.7l11.9,1.2c1,0.2,1.9-0.6,1.9-1.7v-21.2c0-0.7-0.4-1.4-1-1.6l-11.9-3.1
		c-1-0.4-2.2-0.2-2.2,1V618.7L963.4,618.7z"/>
	<path class="st8" d="M1001.1,496.2v24c0,0.8,0.5,1.5,1.1,1.6l10.4,2.3c0.8,0.2,1.6-0.6,1.6-1.6V501c0-0.7-0.4-1.3-0.9-1.6
		l-10.4-4.7C1002,494.3,1001.1,495.1,1001.1,496.2L1001.1,496.2z"/>
	<path class="st8" d="M997.4,564.5v22.2c0,0.8,0.5,1.5,1.1,1.6l10.4,2.3c0.8,0.2,1.6-0.6,1.6-1.6v-21.5c0-0.7-0.4-1.3-0.9-1.6
		l-10.4-3c-0.9-0.4-1.9-0.2-1.9,1v0.6H997.4z"/>
	<path class="st8" d="M1002,624.4v22.2c0,0.8,0.5,1.5,1.1,1.6l10.4,1.1c0.8,0.2,1.6-0.6,1.6-1.6v-20.4c0-0.7-0.4-1.3-0.9-1.6
		l-10.4-3c-0.9-0.4-1.9-0.2-1.9,1v0.7H1002z"/>
	<path class="st8" d="M1039.3,514.7v19.8c0,0.7,0.3,1.2,0.8,1.3l7.3,1.9c0.6,0.2,1.1-0.5,1.1-1.3v-17.8c0-0.6-0.2-1.1-0.6-1.3
		l-7.3-3.9C1040,513.1,1039.3,513.7,1039.3,514.7L1039.3,514.7z"/>
	<path class="st8" d="M1035.3,574.5v18.4c0,0.7,0.3,1.2,0.8,1.3l7.3,1.9c0.6,0.2,1.1-0.5,1.1-1.3V577c0-0.6-0.2-1.1-0.6-1.3
		l-7.3-2.5c-0.6-0.3-1.3-0.2-1.3,0.8V574.5z"/>
	<path class="st8" d="M1039.9,631.1v18.4c0,0.7,0.3,1.2,0.8,1.3l7.3,0.9c0.6,0.2,1.1-0.5,1.1-1.3v-16.9c0-0.6-0.2-1.1-0.6-1.3
		l-7.3-2.5c-0.6-0.3-1.3-0.2-1.3,0.8V631.1z"/>
	<path class="st8" d="M1137.3,520.1v17.7c0,0.6,0.3,1.1,0.7,1.2l6.8,1.7c0.6,0.1,1.1-0.4,1.1-1.2v-15.9c0-0.5-0.2-1-0.6-1.2
		l-6.8-3.5C1137.9,518.6,1137.3,519.2,1137.3,520.1L1137.3,520.1z"/>
	<path class="st8" d="M1137.3,573v16.4c0,0.6,7.1,2.8,7.5,2.9l0,0c0.6,0.1,1.1-0.4,1.1-1.2v-15.9c0-0.5-0.2-1-0.6-1.2l-6.8-2.2
		c-0.6-0.3-1.2-0.1-1.2,0.7V573L1137.3,573z"/>
	<path class="st8" d="M1136.7,630.8v16.4c0,0.6,0.3,1.1,0.7,1.2l6.8,0.8c0.6,0.1,1.1-0.4,1.1-1.2v-15c0-0.5-0.2-1-0.6-1.2l-6.8-2.2
		c-0.6-0.3-1.2-0.1-1.2,0.7V630.8L1136.7,630.8z"/>
</g>
</svg>
